<svg viewBox="0 0 1112.2000732421875 400" xmlns="http://www.w3.org/2000/svg"><g><g><g><g><g><line x1="41.6875" y1="375" x2="36.6875" y2="375" style="visibility: inherit;" fill="rgb(0, 0, 0)" stroke="rgb(204, 204, 204)" stroke-width="1px"></line><line x1="41.6875" y1="328.125" x2="36.6875" y2="328.125" style="visibility: inherit;" fill="rgb(0, 0, 0)" stroke="rgb(204, 204, 204)" stroke-width="1px"></line><line x1="41.6875" y1="281.25" x2="36.6875" y2="281.25" style="visibility: inherit;" fill="rgb(0, 0, 0)" stroke="rgb(204, 204, 204)" stroke-width="1px"></line><line x1="41.6875" y1="234.375" x2="36.6875" y2="234.375" style="visibility: inherit;" fill="rgb(0, 0, 0)" stroke="rgb(204, 204, 204)" stroke-width="1px"></line><line x1="41.6875" y1="187.5" x2="36.6875" y2="187.5" style="visibility: inherit;" fill="rgb(0, 0, 0)" stroke="rgb(204, 204, 204)" stroke-width="1px"></line><line x1="41.6875" y1="140.625" x2="36.6875" y2="140.625" style="visibility: inherit;" fill="rgb(0, 0, 0)" stroke="rgb(204, 204, 204)" stroke-width="1px"></line><line x1="41.6875" y1="93.75" x2="36.6875" y2="93.75" style="visibility: inherit;" fill="rgb(0, 0, 0)" stroke="rgb(204, 204, 204)" stroke-width="1px"></line><line x1="41.6875" y1="46.875" x2="36.6875" y2="46.875" style="visibility: inherit;" fill="rgb(0, 0, 0)" stroke="rgb(204, 204, 204)" stroke-width="1px"></line><line x1="41.6875" y1="0" x2="36.6875" y2="0" style="visibility: inherit;" fill="rgb(0, 0, 0)" stroke="rgb(204, 204, 204)" stroke-width="1px"></line></g><g transform="translate(31.6875, 0)"><text x="0" y="375" dx="0em" dy="0.3em" style="text-anchor: end; visibility: hidden; font-family: &quot;Helvetica Neue&quot;, sans-serif; font-size: 12px; font-weight: 200;" fill="rgb(33, 33, 33)" stroke="none" stroke-width="1px">-10</text><text x="0" y="328.125" dx="0em" dy="0.3em" style="text-anchor: end; visibility: inherit; font-family: &quot;Helvetica Neue&quot;, sans-serif; font-size: 12px; font-weight: 200;" fill="rgb(33, 33, 33)" stroke="none" stroke-width="1px">0</text><text x="0" y="281.25" dx="0em" dy="0.3em" style="text-anchor: end; visibility: inherit; font-family: &quot;Helvetica Neue&quot;, sans-serif; font-size: 12px; font-weight: 200;" fill="rgb(33, 33, 33)" stroke="none" stroke-width="1px">10</text><text x="0" y="234.375" dx="0em" dy="0.3em" style="text-anchor: end; visibility: inherit; font-family: &quot;Helvetica Neue&quot;, sans-serif; font-size: 12px; font-weight: 200;" fill="rgb(33, 33, 33)" stroke="none" stroke-width="1px">20</text><text x="0" y="187.5" dx="0em" dy="0.3em" style="text-anchor: end; visibility: inherit; font-family: &quot;Helvetica Neue&quot;, sans-serif; font-size: 12px; font-weight: 200;" fill="rgb(33, 33, 33)" stroke="none" stroke-width="1px">30</text><text x="0" y="140.625" dx="0em" dy="0.3em" style="text-anchor: end; visibility: inherit; font-family: &quot;Helvetica Neue&quot;, sans-serif; font-size: 12px; font-weight: 200;" fill="rgb(33, 33, 33)" stroke="none" stroke-width="1px">40</text><text x="0" y="93.75" dx="0em" dy="0.3em" style="text-anchor: end; visibility: inherit; font-family: &quot;Helvetica Neue&quot;, sans-serif; font-size: 12px; font-weight: 200;" fill="rgb(33, 33, 33)" stroke="none" stroke-width="1px">50</text><text x="0" y="46.875" dx="0em" dy="0.3em" style="text-anchor: end; visibility: inherit; font-family: &quot;Helvetica Neue&quot;, sans-serif; font-size: 12px; font-weight: 200;" fill="rgb(33, 33, 33)" stroke="none" stroke-width="1px">60</text><text x="0" y="0" dx="0em" dy="0.3em" style="text-anchor: end; visibility: hidden; font-family: &quot;Helvetica Neue&quot;, sans-serif; font-size: 12px; font-weight: 200;" fill="rgb(33, 33, 33)" stroke="none" stroke-width="1px">70</text></g><line x1="41.6875" y1="0" x2="41.6875" y2="375" fill="rgb(0, 0, 0)" stroke="rgb(204, 204, 204)" stroke-width="1px"></line></g></g><g transform="translate(41, 0)" clip-path="url(#clip_0)"><clipPath id="clip_0"><rect width="1070" height="375"></rect></clipPath><g><g><g><line x1="0" y1="0" x2="0" y2="375" fill="rgb(0, 0, 0)" stroke="rgb(66, 66, 66)" stroke-width="1px" opacity="0.25"></line><line x1="89.209375" y1="0" x2="89.209375" y2="375" fill="rgb(0, 0, 0)" stroke="rgb(66, 66, 66)" stroke-width="1px" opacity="0.25"></line><line x1="178.41875" y1="0" x2="178.41875" y2="375" fill="rgb(0, 0, 0)" stroke="rgb(66, 66, 66)" stroke-width="1px" opacity="0.25"></line><line x1="267.628125" y1="0" x2="267.628125" y2="375" fill="rgb(0, 0, 0)" stroke="rgb(66, 66, 66)" stroke-width="1px" opacity="0.25"></line><line x1="356.8375" y1="0" x2="356.8375" y2="375" fill="rgb(0, 0, 0)" stroke="rgb(66, 66, 66)" stroke-width="1px" opacity="0.25"></line><line x1="446.04687500000006" y1="0" x2="446.04687500000006" y2="375" fill="rgb(0, 0, 0)" stroke="rgb(66, 66, 66)" stroke-width="1px" opacity="0.25"></line><line x1="535.25625" y1="0" x2="535.25625" y2="375" fill="rgb(0, 0, 0)" stroke="rgb(66, 66, 66)" stroke-width="1px" opacity="0.25"></line><line x1="624.465625" y1="0" x2="624.465625" y2="375" fill="rgb(0, 0, 0)" stroke="rgb(66, 66, 66)" stroke-width="1px" opacity="0.25"></line><line x1="713.675" y1="0" x2="713.675" y2="375" fill="rgb(0, 0, 0)" stroke="rgb(66, 66, 66)" stroke-width="1px" opacity="0.25"></line><line x1="802.8843750000001" y1="0" x2="802.8843750000001" y2="375" fill="rgb(0, 0, 0)" stroke="rgb(66, 66, 66)" stroke-width="1px" opacity="0.25"></line><line x1="892.0937500000001" y1="0" x2="892.0937500000001" y2="375" fill="rgb(0, 0, 0)" stroke="rgb(66, 66, 66)" stroke-width="1px" opacity="0.25"></line><line x1="981.303125" y1="0" x2="981.303125" y2="375" fill="rgb(0, 0, 0)" stroke="rgb(66, 66, 66)" stroke-width="1px" opacity="0.25"></line><line x1="1070.5125" y1="0" x2="1070.5125" y2="375" fill="rgb(0, 0, 0)" stroke="rgb(66, 66, 66)" stroke-width="1px" opacity="0.25"></line></g><g><line x1="0" y1="375" x2="1070.5125" y2="375" fill="rgb(0, 0, 0)" stroke="rgb(66, 66, 66)" stroke-width="1px" opacity="0.25"></line><line x1="0" y1="328.125" x2="1070.5125" y2="328.125" fill="rgb(0, 0, 0)" stroke="rgb(66, 66, 66)" stroke-width="1px" opacity="0.25"></line><line x1="0" y1="281.25" x2="1070.5125" y2="281.25" fill="rgb(0, 0, 0)" stroke="rgb(66, 66, 66)" stroke-width="1px" opacity="0.25"></line><line x1="0" y1="234.375" x2="1070.5125" y2="234.375" fill="rgb(0, 0, 0)" stroke="rgb(66, 66, 66)" stroke-width="1px" opacity="0.25"></line><line x1="0" y1="187.5" x2="1070.5125" y2="187.5" fill="rgb(0, 0, 0)" stroke="rgb(66, 66, 66)" stroke-width="1px" opacity="0.25"></line><line x1="0" y1="140.625" x2="1070.5125" y2="140.625" fill="rgb(0, 0, 0)" stroke="rgb(66, 66, 66)" stroke-width="1px" opacity="0.25"></line><line x1="0" y1="93.75" x2="1070.5125" y2="93.75" fill="rgb(0, 0, 0)" stroke="rgb(66, 66, 66)" stroke-width="1px" opacity="0.25"></line><line x1="0" y1="46.875" x2="1070.5125" y2="46.875" fill="rgb(0, 0, 0)" stroke="rgb(66, 66, 66)" stroke-width="1px" opacity="0.25"></line><line x1="0" y1="0" x2="1070.5125" y2="0" fill="rgb(0, 0, 0)" stroke="rgb(66, 66, 66)" stroke-width="1px" opacity="0.25"></line></g></g></g><g><g><line x1="0" y1="328.125" x2="1070.5125" y2="328.125" fill="rgb(0, 0, 0)" stroke="rgb(153, 153, 153)" stroke-width="1.5px"></line></g></g><g><g><line x1="89.209375" y1="0" x2="89.209375" y2="375" fill="rgb(0, 0, 0)" stroke="rgb(153, 153, 153)" stroke-width="1.5px"></line></g></g><g><g><g><g><g><path stroke="rgb(187, 187, 187)" stroke-width="2px" d="M98.1303125,327.1381578873843L102.59078125,327.7458192867782L107.05125000000001,327.5665428693006L111.51171875000001,327.8140478956823L115.9721875,326.50879579969296L120.43265625000001,327.1546142957598L124.89312500000001,325.510902575782L129.35359375000002,326.51692842648043L133.8140625,321.48357676017616L138.27453125000002,322.2248869740289L142.735,314.47438433554737L147.19546875000003,309.01298230050713L151.6559375,307.38305635301685L156.11640625,308.13304490908274L160.576875,306.0008459290925L165.03734375000002,309.03363034845165L169.4978125,302.4808776969562L173.95828125000003,303.31073841997073L178.41875,280.4491483548206L182.87921875,270.1744454573652L187.3396875,256.3421112816376L191.80015625000001,223.4064500686066L196.260625,223.54181009568097L200.72109375000002,209.98992489969152L205.1815625,204.59485486604595L209.64203125,212.2672257215623L214.10250000000002,206.47973177078165L218.56296875,192.2933265008957L223.02343750000003,182.4206268242141L227.48390625,187.85547503526206L231.944375,175.6625993786747L236.40484375,180.11346325494978L240.86531250000002,171.6664599712543L245.32578125,151.18236879520356L249.78625000000002,147.49108628989907L254.24671874999999,160.77193840707153L258.70718750000003,150.97037528695992L263.16765625,154.13051423114896L267.628125,144.50704321351174L272.08859375,121.897394820128L276.54906250000005,114.28239751307603L281.00953125,103.03721602005857L285.47,110.86232524096943L289.93046875,127.34059096639862L294.39093750000006,118.05000314932909L298.85140625,123.01320196706175L303.311875,113.49444961310206L307.77234375,125.45803656034059L312.2328125,113.6285776165949L316.69328125000004,86.76673243121229L321.15375,84.01217823294627L325.61421874999996,77.09859921720386L330.07468750000004,78.35031432364678L334.53515625,68.27809613786786L338.995625,73.9594807739349L343.45609375000004,69.06321600291875L347.91656250000005,71.85202361001541L352.37703125,60.698162732634955L356.8375,61.43749317338444L361.29796875000005,31.286995740176337L365.7584375,38.16848290962133L370.21890625000003,55.54213333560716L374.679375,52.097765593355746L379.13984375,62.471505730254705L383.60031250000003,60.22498237971024L388.06078125,42.86788900493866L392.52125,41.31337675923851L396.98171875,57.504547097765055L401.44218750000005,54.62099776078577L405.90265625,30.558502602730186L410.363125,34.003370860385985L414.82359375000004,35.31810341688089L419.2840625,38.64309896438465L423.74453125,13.538293753776031L428.20500000000004,19.393946518481698L432.66546875,49.114322627532545L437.1259375,43.26312573167445L441.58640625,92.20869045656485L446.04687500000006,70.43229966908467L450.50734375,58.04975499350883L454.9678125,51.62173309579265L459.42828125,32.211961451774584L463.88875,27.614084689468143L468.34921875000003,41.90618884622813L472.8096875,34.40538501585809L477.27015625000007,10.893960249895429L481.73062500000003,13.476779979809237L486.19109375,26.03451070740101L490.6515625,27.84093224916728L495.11203125000003,27.947741723480362L499.57250000000005,27.82886522738903L504.03296875,40.27771190189077L508.49343749999997,32.55434344290535L512.95390625,32.65141030837293L517.4143750000001,25.754749559860045L521.87484375,33.69596372535267L526.3353125,25.200627716243616L530.79578125,17.487691694936018L535.25625,15.550473266016581L539.71671875,6.178495317994418L544.1771875,6.823804254240258L548.63765625,14.833053854645925L553.0981250000001,18.43937682142456L557.5585937500001,15.031171136568958L562.0190625,24.03602761340727L566.47953125,6.185981230766117L570.94,13.229129112186342L575.40046875,24.117476566004257L579.8609375,14.492728552998415L584.32140625,12.56846261707102L588.7818750000001,11.274951145616967L593.24234375,36.99806951486494L597.7028125,28.467064904711037L602.1632812500001,21.288448500539687L606.62375,21.2616199046505L611.08421875,29.129750820501897L615.5446875,30.143413295867674L620.00515625,61.10948989662148L624.465625,41.84284730355449L628.9260937500001,40.209936717417975L633.3865625000001,28.43047490360607L637.84703125,19.503116339850237L642.3075,19.4054702041293L646.76796875,45.596513407376676L651.2284374999999,29.287096325889365L655.6889062500001,12.987648107354971L660.1493750000001,17.566138770613065L664.6098437500001,5.6737705928625815L669.0703125,4.004253593507087L673.53078125,18.36115424234839L677.99125,12.570513895601891L682.4517187499999,25.469000670855564L686.9121875000001,25.818310066990307L691.3726562500001,21.398125481801912L695.8331250000001,18.454404692581647L700.29359375,34.42804852817096L704.7540625,30.38837180901396L709.21453125,54.21234400882469L713.675,34.29232340506741L718.13546875,12.585909804762139L722.5959375000001,14.347030893983288L727.05640625,26.577547277845554L731.516875,18.717940717501108L735.97734375,24.017495007720754L740.4378125000001,25.74744249288051L744.89828125,12.541404115557441L749.35875,17.380438600358843L753.8192187500001,37.282893686623936L758.2796875,31.05662809270433L762.74015625,47.5793359298475L767.2006250000001,33.028980012162094L771.6610937500001,43.52258352758912L776.1215625,32.352822593780274L780.58203125,11.375661298518935L785.0425,14.241182177711096L789.50296875,15.936497678891726L793.9634375,18.200297727440216L798.4239062500001,28.981985781922674L802.8843750000001,23.743310344045256L807.34484375,-11.62167434531574L811.8053125,9.352677640773948L816.26578125,26.986070847842882L820.72625,27.97088503324221L825.1867187500001,22.74133226074315L829.6471875000001,27.17743095892331L834.10765625,13.433716918368134L838.568125,22.668164965124447L843.02859375,30.007434938237623L847.4890625,29.392402205491692L851.94953125,44.778358976226855L856.4100000000001,42.31998441325965L860.8704687500001,54.60767027387402L865.3309375,49.10282101461502L869.79140625,48.26516031311979L874.251875,43.93917162329262L878.7123437500001,55.61804309293461L883.1728125,47.50697291014802L887.6332812500001,78.99435109593236L892.0937500000001,64.41287265161083L896.55421875,57.81863253460517L901.0146875,46.93211511368776L905.47515625,31.04813983094118L909.935625,40.33851364644448L914.39609375,69.2337325153814L918.8565625,57.85842591378622L923.3170312500001,60.778657770202585L927.7775,58.055484880857364L932.23796875,82.05162256565501L936.6984375000001,59.45613565678053L941.15890625,72.35062864983098L945.619375,60.26718984524359L950.07984375,71.094226463432L954.5403125000001,62.82266254946393L959.00078125,69.16384143086543L963.4612500000001,57.07271144479728L967.9217187500001,58.52587194155353L972.3821875,48.11554165927845L976.84265625,84.66159799538974L981.303125,66.7433115410604" style="fill: none;" fill="none"></path></g><g><path stroke="rgb(0, 153, 136)" stroke-width="2px" d="M98.1303125,325.90460521169007L102.59078125,324.3854517562159L107.05125000000001,325.26251794680957L111.51171875000001,324.45368036512L115.9721875,324.44149644652157L120.43265625000001,324.0403098421149L124.89312500000001,323.9976065969531L129.35359375000002,323.78205161783825L133.8140625,322.144805498846L138.27453125000002,324.4136660017442L142.735,321.52589373178495L147.19546875000003,320.4785074440937L151.6559375,317.8749001277355L156.11640625,312.9096998345233L160.576875,310.83679245376277L165.03734375000002,304.99657258557806L169.4978125,306.17943559946013L173.95828125000003,305.6183523757697L178.41875,304.7116561327165L182.87921875,306.46521390596564L187.3396875,303.1064941755185L191.80015625000001,294.8881960098894L196.260625,298.29451136022925L200.72109375000002,307.7483899147659L205.1815625,307.33959716208085L209.64203125,306.3424039130856L214.10250000000002,303.77212600813016L218.56296875,300.59130077162683L223.02343750000003,297.4933102711291L227.48390625,293.14832249369533L231.944375,294.61139604018075L236.40484375,300.162512678914L240.86531250000002,303.34811921411074L245.32578125,293.2767252947274L249.78625000000002,297.93822979710444L254.24671874999999,298.71345542620827L258.70718750000003,293.53864315229134L263.16765625,290.68061327992325L267.628125,294.74128207390027L272.08859375,287.90605997024693L276.54906250000005,288.4645657226629L281.00953125,298.0893890349933L285.47,300.3847523129268L289.93046875,310.81508545341524L294.39093750000006,313.89137654904306L298.85140625,310.4307189652917L303.311875,306.78705788600024L307.77234375,295.4226241191876L312.2328125,296.86542819798626L316.69328125000004,298.04402719561114L321.15375,298.686710166053L325.61421874999996,307.99300714382525L330.07468750000004,301.5553992616885L334.53515625,304.49556913931923L338.995625,302.89799794695784L343.45609375000004,312.3833507189339L347.91656250000005,308.09826374558213L352.37703125,301.5283165772346L356.8375,294.089195152251L361.29796875000005,299.83665777500755L365.7584375,299.6197851990851L370.21890625000003,294.47524596422807L374.679375,293.67689563117426L379.13984375,290.7668828738525L383.60031250000003,294.9806398668116L388.06078125,305.6804192768908L392.52125,302.98800228331504L396.98171875,291.2895134247885L401.44218750000005,288.90610348009153L405.90265625,294.83990857157715L410.363125,294.92484014463275L414.82359375000004,268.6331002502508L419.2840625,278.3862653036369L423.74453125,282.98802954946945L428.20500000000004,283.35492464491597L432.66546875,289.6134729784276L437.1259375,289.15893854055446L441.58640625,286.185177649306L446.04687500000006,292.3999458996395L450.50734375,291.732566241375L454.9678125,286.9562527366337L459.42828125,286.57320170765945L463.88875,284.47891506154815L468.34921875000003,269.164842998406L472.8096875,273.52333642294263L477.27015625000007,287.00356192791617L481.73062500000003,286.97377553999615L486.19109375,286.58413593695764L490.6515625,277.80679091760663L495.11203125000003,270.28893753258654L499.57250000000005,271.34911272134184L504.03296875,275.0718463381173L508.49343749999997,279.7139106200244L512.95390625,290.86648022689525L517.4143750000001,285.30265805351985L521.87484375,264.39135862539644L526.3353125,272.1216548852709L530.79578125,286.128912648409L535.25625,282.43917868857585L539.71671875,280.22954750167133L544.1771875,278.9435004450743L548.63765625,281.57324427772636L553.0981250000001,281.17341433635613L557.5585937500001,295.3022105458862L562.0190625,290.9462107826487L566.47953125,280.25043552837275L570.94,271.2571932646654L575.40046875,282.06448859715124L579.8609375,277.02731938966156L584.32140625,275.0900472991488L588.7818750000001,272.6752680197081L593.24234375,275.8993672442978L597.7028125,272.2526522634654L602.1632812500001,259.7731550124024L606.62375,265.807658634794L611.08421875,269.85147898811147L615.5446875,275.9925856926129L620.00515625,283.2568734721905L624.465625,277.0292634385841L628.9260937500001,260.99126038567647L633.3865625000001,267.03157208872483L637.84703125,282.9527009833643L642.3075,282.9618267226899L646.76796875,291.1306798749585L651.2284374999999,269.9760698500369L655.6889062500001,260.115067586423L660.1493750000001,266.8558806789672L664.6098437500001,274.0305695436755L669.0703125,272.84902249827707L673.53078125,272.48279003892486L677.99125,271.3266295822734L682.4517187499999,282.10781685933864L686.9121875000001,279.55896201921945L691.3726562500001,287.2447922999929L695.8331250000001,279.9815404881407L700.29359375,291.0334812645998L704.7540625,280.0266022161652L709.21453125,271.6740997828871L713.675,271.28582256351365L718.13546875,285.60735327963255L722.5959375000001,280.90780414749855L727.05640625,272.2239697880391L731.516875,270.14473153967367L735.97734375,253.17031248075637L740.4378125000001,250.09209236985077L744.89828125,256.5199656387869L749.35875,252.0895097747285L753.8192187500001,247.19135409943058L758.2796875,253.13293056610743L762.74015625,260.17994867325103L767.2006250000001,268.19505077614L771.6610937500001,255.47871168431135L776.1215625,258.1187160910103L780.58203125,256.24107884079046L785.0425,252.37930179463754L789.50296875,261.4721843198538L793.9634375,270.85666862365156L798.4239062500001,273.00206122115856L802.8843750000001,268.58947050099505L807.34484375,276.8748295926209L811.8053125,264.69818207788956L816.26578125,269.1591656166031L820.72625,261.55334495282307L825.1867187500001,235.4717872505616L829.6471875000001,245.8199208524132L834.10765625,262.6666306119058L838.568125,255.0901601199704L843.02859375,229.67625991486153L847.4890625,239.606144877803L851.94953125,265.83923440374906L856.4100000000001,261.05868226793945L860.8704687500001,252.7881177351942L865.3309375,250.41017967280823L869.79140625,226.75595211583234L874.251875,238.98979262531861L878.7123437500001,256.64213059819883L883.1728125,252.25850687513488L887.6332812500001,259.63430829008416L892.0937500000001,257.2795711770439L896.55421875,275.1049524144754L901.0146875,255.61614731671108L905.47515625,258.2044759256277L909.935625,249.89393596751324L914.39609375,247.5838160437283L918.8565625,241.22585242741195L923.3170312500001,235.12493191470506L927.7775,235.9561145248544L932.23796875,240.64911546350913L936.6984375000001,236.52754804922972L941.15890625,241.00568998271933L945.619375,234.43097036332668L950.07984375,241.45992550671585L954.5403125000001,239.53809931014362L959.00078125,223.4967739695296L963.4612500000001,226.38106714287667L967.9217187500001,209.99928589715506L972.3821875,217.77310561595024L976.84265625,232.82791790435294L981.303125,234.1517265662692" style="fill: none;" fill="none"></path></g><g><path stroke="rgb(238, 51, 119)" stroke-width="2px" d="M98.1303125,325.1644738018513L102.59078125,326.9874579140118L107.05125000000001,326.08202141722205L111.51171875000001,326.9874579140118L115.9721875,326.84512956498173L120.43265625000001,325.48347600635884L124.89312500000001,324.29952224570695L129.35359375000002,323.96777613134105L133.8140625,319.71862808413255L138.27453125000002,321.12955236153203L142.735,316.311880627147L147.19546875000003,317.2318195893776L151.6559375,314.8290089529859L156.11640625,314.5404099538465L160.576875,312.4108861317823L165.03734375000002,304.2150623664289L169.4978125,307.7333324927799L173.95828125000003,310.1135891938821L178.41875,308.90809348992434L182.87921875,307.32102319602967L187.3396875,307.16567930678656L191.80015625000001,306.2338548207774L196.260625,305.74517870030957L200.72109375000002,300.0599224563676L205.1815625,301.70714129309505L209.64203125,302.82776146667044L214.10250000000002,295.3638424375017L218.56296875,293.58203439982583L223.02343750000003,300.16953918460683L227.48390625,296.5807898779516L231.944375,297.30983386457115L236.40484375,300.08383710597883L240.86531250000002,299.5884985668264L245.32578125,297.9807229309157L249.78625000000002,296.51365530836347L254.24671874999999,289.01202059487684L258.70718750000003,290.63889594064756L263.16765625,274.7711708054295L267.628125,275.5374733945007L272.08859375,265.3478833327741L276.54906250000005,274.38826353484706L281.00953125,284.0182764698092L285.47,284.9254301266382L289.93046875,288.83096840282246L294.39093750000006,286.53710278700765L298.85140625,272.21165213366527L303.311875,278.30020233486226L307.77234375,267.0718262552976L312.2328125,271.75347827466607L316.69328125000004,275.32417044359676L321.15375,276.90294104779036L325.61421874999996,278.53743521385775L330.07468750000004,279.7428851815268L334.53515625,278.5470603532623L338.995625,280.3982342584301L343.45609375000004,286.00599817727937L347.91656250000005,284.77432136765896L352.37703125,257.0116765333825L356.8375,265.19765475482177L361.29796875000005,271.23333656701186L365.7584375,273.14433921378463L370.21890625000003,270.90456766940116L374.679375,270.89839732872986L379.13984375,276.5530999331279L383.60031250000003,281.2875558532328L388.06078125,277.7484348524172L392.52125,272.7571291418611L396.98171875,281.23794858452146L401.44218750000005,280.50037412278846L405.90265625,270.20723345261996L410.363125,271.8547078804819L414.82359375000004,268.3373377174207L419.2840625,269.3892086427254L423.74453125,265.03636619306064L428.20500000000004,264.2682181125326L432.66546875,275.94086810222035L437.1259375,274.78315459276195L441.58640625,263.1146884658835L446.04687500000006,274.4789606491838L450.50734375,280.54987144509073L454.9678125,278.03022557568954L459.42828125,282.7658607592303L463.88875,278.20708141275185L468.34921875000003,275.82621880155716L472.8096875,272.94911342914816L477.27015625000007,261.97024677978845L481.73062500000003,266.62206539260364L486.19109375,284.4596688049847L490.6515625,279.0784920252398L495.11203125000003,272.84497902374966L499.57250000000005,271.9236884057806L504.03296875,282.4803815652071L508.49343749999997,272.5559167876186L512.95390625,270.53739207547403L517.4143750000001,272.5245425621507L521.87484375,275.805314558782L526.3353125,273.0288319856878L530.79578125,283.1699911590692L535.25625,274.099390184267L539.71671875,271.50051947498264L544.1771875,272.105139853397L548.63765625,275.54360726851974L553.0981250000001,271.6596051416034L557.5585937500001,271.74059360836054L562.0190625,271.42007751464047L566.47953125,276.87862836913564L570.94,271.84331699931715L575.40046875,271.8552298075739L579.8609375,267.41003199791044L584.32140625,272.61385996669605L588.7818750000001,268.1617073101478L593.24234375,258.98290536153223L597.7028125,262.2533585536588L602.1632812500001,279.9710957374831L606.62375,272.5670951422052L611.08421875,274.06936736873604L615.5446875,269.16270673305206L620.00515625,264.8950290014245L624.465625,266.035288189834L628.9260937500001,273.5185198304564L633.3865625000001,267.2420034772283L637.84703125,279.55901016979044L642.3075,272.4954810368787L646.76796875,259.9246801670123L651.2284374999999,259.7798417332863L655.6889062500001,248.4651212415706L660.1493750000001,251.23762986078714L664.6098437500001,260.75978103313116L669.0703125,259.187787663666L673.53078125,251.6206795021276L677.99125,256.4534098032806L682.4517187499999,262.25192771724704L686.9121875000001,259.46954420463277L691.3726562500001,242.9839955836908L695.8331250000001,248.7450388522858L700.29359375,245.10440424382637L704.7540625,246.35764824814763L709.21453125,248.90217250684412L713.675,249.19127302612958L718.13546875,259.48285436830486L722.5959375000001,256.1646697238065L727.05640625,244.44675390765525L731.516875,247.61701163434552L735.97734375,247.9255152598316L740.4378125000001,248.02525871810354L744.89828125,260.5177614400966L749.35875,255.88282033458893L753.8192187500001,251.32087988878348L758.2796875,255.61699185463226L762.74015625,265.25500291729054L767.2006250000001,254.75727883046773L771.6610937500001,264.71854199021186L776.1215625,261.47252889282163L780.58203125,258.3338580291207L785.0425,255.1694075960615L789.50296875,263.2132103399424L793.9634375,259.60556886018674L798.4239062500001,267.7438749687566L802.8843750000001,257.8873093825198L807.34484375,259.6216810546923L811.8053125,254.67432318417508L816.26578125,248.80427766692523L820.72625,245.79071225408293L825.1867187500001,245.02340444654774L829.6471875000001,245.84328699278697L834.10765625,236.24371108349905L838.568125,242.2200244999779L843.02859375,233.98279528798622L847.4890625,234.6868444455936L851.94953125,234.5695909340504L856.4100000000001,240.80431894889452L860.8704687500001,234.8618950241102L865.3309375,238.1110596910134L869.79140625,227.89380124719236L874.251875,236.5458633802637L878.7123437500001,242.77961874928457L883.1728125,243.42277051164768L887.6332812500001,245.30830879926816L892.0937500000001,250.75199048469625L896.55421875,269.2692420624505L901.0146875,258.7463756449534L905.47515625,260.15773840245095L909.935625,257.88448166010585L914.39609375,268.43241655590606L918.8565625,257.20380232282264L923.3170312500001,253.90767264944134L927.7775,251.2015447433298L932.23796875,248.39976391983782L936.6984375000001,247.76460969605722L941.15890625,235.6801164503397L945.619375,239.45649845896492L950.07984375,258.6958550383941L954.5403125000001,252.334107750005L959.00078125,266.7314832360031L963.4612500000001,257.7193943231404L967.9217187500001,264.80440205763966L972.3821875,258.00110389404557L976.84265625,259.69268882988445L981.303125,252.3995552117067" style="fill: none;" fill="none"></path></g><g><path stroke="rgb(51, 187, 238)" stroke-width="2px" d="M98.1303125,325.4111842252314L102.59078125,327.08225305205934L107.05125000000001,326.9874840035788L111.51171875000001,325.414151269229L115.9721875,324.90063793468886L120.43265625000001,324.3159831365268L124.89312500000001,323.49148519486255L129.35359375000002,323.4707091896978L133.8140625,322.61102306337193L138.27453125000002,322.92458491787517L142.735,319.6670103528576L147.19546875000003,317.55234464156166L151.6559375,316.23730323373434L156.11640625,311.88867607089657L160.576875,309.92147304028424L165.03734375000002,307.9524587724551L169.4978125,307.5595733319763L173.95828125000003,315.29376500596L178.41875,311.58362229733376L182.87921875,312.5157549875564L187.3396875,308.366203024823L191.80015625000001,298.1701926405344L196.260625,301.73392742488215L200.72109375000002,306.3695270167141L205.1815625,304.53115027074597L209.64203125,299.302413040538L214.10250000000002,303.7390609797834L218.56296875,302.33317146245844L223.02343750000003,301.73418755680876L227.48390625,301.08213256790526L231.944375,304.2002521175041L236.40484375,302.620956880392L240.86531250000002,305.99534627922617L245.32578125,303.74109583317386L249.78625000000002,303.9114173629662L254.24671874999999,304.203224446843L258.70718750000003,304.47807486612123L263.16765625,308.0818187758572L267.628125,303.65160776754715L272.08859375,312.85360330600565L276.54906250000005,307.742359189959L281.00953125,299.5437321140467L285.47,301.1994995892274L289.93046875,304.27348774666893L294.39093750000006,299.605472052095L298.85140625,297.9913145598957L303.311875,296.2419753314339L307.77234375,290.60499260598317L312.2328125,296.9204104331874L316.69328125000004,291.0283361099705L321.15375,294.58720818123743L325.61421874999996,300.14741790521646L330.07468750000004,296.9380416697868L334.53515625,296.3268380019416L338.995625,294.2757097172318L343.45609375000004,296.42804286355994L347.91656250000005,293.87504584987954L352.37703125,297.9405286103302L356.8375,294.2622584508273L361.29796875000005,298.18214927331826L365.7584375,295.3406611465497L370.21890625000003,291.80507255544626L374.679375,296.6488652745991L379.13984375,303.1963919313504L383.60031250000003,298.84060146213886L388.06078125,297.51403531237463L392.52125,295.01652083895306L396.98171875,293.3653090035067L401.44218750000005,290.4796900141568L405.90265625,272.90932656883376L410.363125,275.9526569749209L414.82359375000004,284.9944579523507L419.2840625,283.7720673703295L423.74453125,289.8737700390856L428.20500000000004,288.67202259733455L432.66546875,291.16884210073675L437.1259375,288.27422606884403L441.58640625,289.15811706695865L446.04687500000006,285.62808654474304L450.50734375,289.26942600391965L454.9678125,284.76991191939095L459.42828125,276.39642503769994L463.88875,280.1693948315875L468.34921875000003,291.1507023749106L472.8096875,290.76751267388147L477.27015625000007,299.52642790850206L481.73062500000003,292.84001662296805L486.19109375,295.532170372732L490.6515625,288.21404870452204L495.11203125000003,280.30806639162176L499.57250000000005,284.7438127738367L504.03296875,272.85513917087405L508.49343749999997,277.0320010486725L512.95390625,271.5679686543716L517.4143750000001,274.9301223473828L521.87484375,284.35639634476684L526.3353125,286.06405001006397L530.79578125,287.7789672062799L535.25625,286.4372342276481L539.71671875,275.67433415805243L544.1771875,278.4201258236953L548.63765625,274.1966585139859L553.0981250000001,278.7039777167586L557.5585937500001,281.4237820952573L562.0190625,278.48278133651115L566.47953125,275.998255553983L570.94,278.52948997072457L575.40046875,274.26490174173216L579.8609375,274.20116728482515L584.32140625,271.5640283857309L588.7818750000001,278.7309537126961L593.24234375,281.44061511672237L597.7028125,280.99789093585827L602.1632812500001,274.0426839439756L606.62375,276.2888190800329L611.08421875,267.5792231059405L615.5446875,272.62667241407553L620.00515625,263.5315435863831L624.465625,269.0805245069737L628.9260937500001,278.94374729235153L633.3865625000001,275.4510297124431L637.84703125,272.34394254056446L642.3075,269.29196145438283L646.76796875,268.50068394753487L651.2284374999999,268.28521687620685L655.6889062500001,271.3974753307531L660.1493750000001,272.3191304003429L664.6098437500001,273.91463736981393L669.0703125,271.0141808217874L673.53078125,264.28784883279536L677.99125,266.67680197065647L682.4517187499999,273.9188244296896L686.9121875000001,267.3990307431185L691.3726562500001,256.7444951837059L695.8331250000001,260.48553938656977L700.29359375,254.19297657721955L704.7540625,258.05852317813793L709.21453125,263.25351846315806L713.675,266.0313798200028L718.13546875,275.27858100768174L722.5959375000001,273.4422560437542L727.05640625,265.80296777130263L731.516875,269.0136832913085L735.97734375,287.7145383737765L740.4378125000001,279.4397934401973L744.89828125,280.12043110668316L749.35875,278.4115961135938L753.8192187500001,295.34133597488255L758.2796875,282.6219407513502L762.74015625,285.63109102884255L767.2006250000001,275.9134065959507L771.6610937500001,262.05746571587326L776.1215625,265.2850429056971L780.58203125,273.05036677315496L785.0425,271.30974456745656L789.50296875,282.09728061009287L793.9634375,275.37804440976856L798.4239062500001,270.5358997116956L802.8843750000001,271.4104543170745L807.34484375,259.2476234938545L811.8053125,261.67643855512597L816.26578125,265.5110976583986L820.72625,268.8315563408564L825.1867187500001,261.1633911566944L829.6471875000001,260.9238502878244L834.10765625,275.6164825796024L838.568125,269.38600083067973L843.02859375,265.03436451834415L847.4890625,265.56565336650164L851.94953125,266.175467700697L856.4100000000001,263.4948075462428L860.8704687500001,252.54575990885553L865.3309375,255.36092278111016L869.79140625,254.5202158154127L874.251875,257.14956177184104L878.7123437500001,267.97382654562887L883.1728125,265.9156677644724L887.6332812500001,269.9188766850308L892.0937500000001,266.75832615448275L896.55421875,272.20719552039725L901.0146875,264.8467643966651L905.47515625,262.20188098351906L909.935625,263.89094812565315L914.39609375,273.94295163040755L918.8565625,267.13579602342134L923.3170312500001,265.39273671861497L927.7775,262.26427761947065L932.23796875,265.87790923454963L936.6984375000001,261.7321566714296L941.15890625,260.25836576297206L945.619375,260.08082603004755L950.07984375,259.22793544274964L954.5403125000001,259.5306003142601L959.00078125,267.6970945960983L963.4612500000001,263.145618429981L967.9217187500001,266.4278659003082L972.3821875,264.9509883217923L976.84265625,227.01691671279838L981.303125,239.98750313180975" style="fill: none;" fill="none"></path></g><g><path stroke="rgb(204, 51, 17)" stroke-width="2px" d="M98.1303125,326.64473690092564L102.59078125,327.5562289570059L107.05125000000001,326.73590342152926L111.51171875000001,327.3515431302936L115.9721875,326.3408204709897L120.43265625000001,327.05376017249506L124.89312500000001,327.0867074127881L129.35359375000002,329.29025778742493L133.8140625,325.8341260548822L138.27453125000002,326.7032739413252L142.735,323.50947884508616L147.19546875000003,325.25098411701066L151.6559375,321.1279108594163L156.11640625,323.7623914026577L160.576875,319.4622488256757L165.03734375000002,324.4845970187264L169.4978125,316.2032894746638L173.95828125000003,320.68677507275567L178.41875,314.76304994438095L182.87921875,319.78754568233876L187.3396875,313.27473433741875L191.80015625000001,318.85860840586827L196.260625,313.4374033196226L200.72109375000002,320.7225281559342L205.1815625,313.7656734409412L209.64203125,319.16480576140884L214.10250000000002,305.55813994955867L218.56296875,314.043294953822L223.02343750000003,309.22682621764875L227.48390625,318.0950459185977L231.944375,310.82748970049556L236.40484375,317.33135538895283L240.86531250000002,305.8055538476568L245.32578125,314.1976665132582L249.78625000000002,306.9113169615076L254.24671874999999,314.88766212161704L258.70718750000003,307.2491117096068L263.16765625,316.8609458652185L267.628125,305.5120201961192L272.08859375,314.0145006569453L276.54906250000005,302.06610125906076L281.00953125,311.8642472101387L285.47,304.52763239718246L289.93046875,313.4002426244751L294.39093750000006,307.9906984974115L298.85140625,317.3236958659208L303.311875,304.31656472229866L307.77234375,313.268536388035L312.2328125,300.3019353029245L316.69328125000004,310.7634076296258L321.15375,298.55320766951945L325.61421874999996,311.43470158606823L330.07468750000004,296.838543882448L334.53515625,308.60225138274996L338.995625,300.91517346077853L343.45609375000004,311.1460682395605L347.91656250000005,296.1018564885088L352.37703125,308.1425584488454L356.8375,300.4427977811438L361.29796875000005,312.61380581543995L365.7584375,300.44996193185415L370.21890625000003,310.8557762454791L374.679375,299.16742587213827L379.13984375,310.05547374421513L383.60031250000003,305.1614577658861L388.06078125,313.7957496459132L392.52125,301.1874948820731L396.98171875,313.07849680641374L401.44218750000005,301.2965076152649L405.90265625,311.3840207519253L410.363125,307.75297109869746L414.82359375000004,315.41285396558726L419.2840625,302.1038051735186L423.74453125,313.65027442827557L428.20500000000004,304.25066544929103L432.66546875,313.2274152403576L437.1259375,300.74009140897533L441.58640625,311.03681703920057L446.04687500000006,292.6942110284298L450.50734375,306.0161876817402L454.9678125,294.1067325154216L459.42828125,308.660101089623L463.88875,295.38548158496405L468.34921875000003,307.6955405090175L472.8096875,297.9375428856897L477.27015625000007,309.2880267606704L481.73062500000003,296.2411229047054L486.19109375,308.2294606925361L490.6515625,294.09636777113474L495.11203125000003,308.65363348918805L499.57250000000005,298.07157720430826L504.03296875,309.3716641754884L508.49343749999997,291.8406812495361L512.95390625,305.4835850997105L517.4143750000001,292.29017859718016L521.87484375,307.5265714446404L526.3353125,295.88408058145563L530.79578125,308.0066662828283L535.25625,293.6790539665319L539.71671875,306.6307296751159L544.1771875,295.04678522432727L548.63765625,307.4841939799802L553.0981250000001,291.5905312495547L557.5585937500001,307.08999149972215L562.0190625,291.7156017988501L566.47953125,305.4055355224825L570.94,296.60134425897417L575.40046875,308.4542388175999L579.8609375,290.6188665171431L584.32140625,304.7211727066973L588.7818750000001,288.0111431709948L593.24234375,304.85645333870076L597.7028125,292.0843739863728L602.1632812500001,305.6356493674966L606.62375,295.16796090632573L611.08421875,307.55980760554723L615.5446875,289.4113984509007L620.00515625,305.73021263336204L624.465625,290.03223118825713L628.9260937500001,304.35511226147247L633.3865625000001,288.9886429481353L637.84703125,303.7039131996364L642.3075,286.91255753758094L646.76796875,302.40843590345054L651.2284374999999,286.9390483027453L655.6889062500001,304.18746614091305L660.1493750000001,290.64653176890624L664.6098437500001,304.7384358237975L669.0703125,283.56928395404964L673.53078125,300.32223318732696L677.99125,287.2142321998214L682.4517187499999,302.5966808926886L686.9121875000001,287.33480326897495L691.3726562500001,304.43441723984034L695.8331250000001,285.791417666731L700.29359375,301.7088446240401L704.7540625,288.45052895245595L709.21453125,303.3681300663325L713.675,286.3319759654229L718.13546875,303.80865300242385L722.5959375000001,286.5140994735125L727.05640625,302.1597980714718L731.516875,287.43323960466114L735.97734375,302.7333415133086L740.4378125000001,289.6463951972496L744.89828125,304.1143506030838L749.35875,286.14827627128506L753.8192187500001,303.6940243932819L758.2796875,288.2050712214079L762.74015625,303.21496444215853L767.2006250000001,285.12324360585984L771.6610937500001,301.29190401005656L776.1215625,287.63377950429094L780.58203125,302.85847841067755L785.0425,288.240269033302L789.50296875,304.9994278767805L793.9634375,283.3610917789855L798.4239062500001,300.19232127008695L802.8843750000001,281.01079688462835L807.34484375,298.72573725600813L811.8053125,282.9713071507726L816.26578125,301.7115956620821L820.72625,280.1963241052333L825.1867187500001,298.2175062416656L829.6471875000001,282.190355296815L834.10765625,299.46178170521256L838.568125,283.3378360830448L843.02859375,300.17780971581993L847.4890625,282.9497689636795L851.94953125,301.698155833336L856.4100000000001,285.6609649410095L860.8704687500001,301.62744212318995L865.3309375,283.4832866889019L869.79140625,300.26857089387477L874.251875,280.316270855919L878.7123437500001,298.29235301409346L883.1728125,278.52653407474725L887.6332812500001,298.9380572626423L892.0937500000001,278.8366907218104L896.55421875,297.3690950104097L901.0146875,280.0839722965741L905.47515625,298.1473987130622L909.935625,275.74595118888806L914.39609375,297.2029735418662L918.8565625,277.9395240881088L923.3170312500001,296.8092630309799L927.7775,281.31161153334716L932.23796875,298.91344559680863L936.6984375000001,275.4818586503929L941.15890625,295.27567979784516L945.619375,274.7888671837769L950.07984375,296.60575312267684L954.5403125000001,281.55567424754247L959.00078125,299.06574073046653L963.4612500000001,280.6788652057327L967.9217187500001,298.5186118883772L972.3821875,273.9367964364885L976.84265625,294.31156097636887L981.303125,281.79383554421497" style="fill: none;" fill="none"></path></g><g><path stroke="rgb(0, 119, 187)" stroke-width="2px" d="M98.1303125,326.3980263378471L102.59078125,327.4614337652812L107.05125000000001,327.5459411689708L111.51171875000001,327.8025767518506L115.9721875,327.21928207798607L120.43265625000001,327.5811975996415L124.89312500000001,327.4082434399437L129.35359375000002,329.4880518483276L133.8140625,326.99171134633286L138.27453125000002,327.42167626874334L142.735,324.7958023887537L147.19546875000003,326.05195851861816L151.6559375,324.41602229306096L156.11640625,325.8124929407726L160.576875,323.1547450763568L165.03734375000002,326.7879806879063L169.4978125,321.7232403582808L173.95828125000003,324.1307973187602L178.41875,321.08683210754515L182.87921875,323.733395253753L187.3396875,318.70543977151954L191.80015625000001,322.2473048998009L196.260625,316.0157498597038L200.72109375000002,322.33140462184605L205.1815625,317.459759561593L209.64203125,321.4699089317412L214.10250000000002,314.6958874815842L218.56296875,319.7452430868281L223.02343750000003,316.2170801087765L227.48390625,322.45696246206313L231.944375,316.1466946499191L236.40484375,320.650538718998L240.86531250000002,315.66883033922716L245.32578125,320.35235064083093L249.78625000000002,311.77223481582155L254.24671874999999,317.92087478534273L258.70718750000003,313.13065218801444L263.16765625,320.53102708729523L267.628125,309.28636078682223L272.08859375,316.36968917643617L276.54906250000005,308.9160017172544L281.00953125,316.1385850896154L285.47,307.6586349332009L289.93046875,315.3539882058051L294.39093750000006,312.45654648916707L298.85140625,320.11038501214006L303.311875,311.528485199074L307.77234375,317.7687747651427L312.2328125,308.0265311535601L316.69328125000004,315.5835554402556L321.15375,309.44584934197985L325.61421874999996,318.23170998959193L330.07468750000004,311.3765870334097L334.53515625,317.6739903089025L338.995625,308.33843855068875L343.45609375000004,315.778185655655L347.91656250000005,306.69164074608597L352.37703125,314.7505838255683L356.8375,309.29712711118145L361.29796875000005,318.1389073173818L365.7584375,307.9792046145312L370.21890625000003,315.55402367946897L374.679375,306.6445264769954L379.13984375,314.72118452164574L383.60031250000003,304.6406249354594L388.06078125,313.47074995972696L392.52125,304.78798517083806L396.98171875,315.32520274660305L401.44218750000005,305.5741108128724L405.90265625,314.0532451472324L410.363125,308.39817207489654L414.82359375000004,315.81545937473544L419.2840625,310.42542599529963L423.74453125,318.84296582106697L428.20500000000004,310.2737999248654L432.66546875,316.985851153116L437.1259375,311.8050917740797L441.58640625,317.9413772670257L446.04687500000006,309.2473929661358L450.50734375,316.34537321086873L454.9678125,305.65411867753505L459.42828125,315.86567005478184L463.88875,305.91136241317605L468.34921875000003,314.26369014582184L472.8096875,305.1900170429301L477.27015625000007,313.8135706347884L481.73062500000003,304.5380895710687L486.19109375,313.4067678923469L490.6515625,301.965164473895L495.11203125000003,313.5637626317105L499.57250000000005,304.93878788218734L504.03296875,313.6568036384849L508.49343749999997,298.3178983673911L512.95390625,309.525368581252L517.4143750000001,298.89382999470126L521.87484375,311.64724991669357L526.3353125,304.7632789944893L530.79578125,313.54728609256136L535.25625,304.55745362478183L539.71671875,313.41885106186385L544.1771875,299.6536258666344L548.63765625,310.3588625407799L553.0981250000001,301.17643022544667L557.5585937500001,313.0715924606787L562.0190625,301.9415422934478L566.47953125,311.7865223911114L570.94,301.8817643639908L575.40046875,311.74922096313026L579.8609375,302.97164528300897L584.32140625,312.4293066565976L588.7818750000001,300.8914129617796L593.24234375,312.8937416881505L597.7028125,298.49108901945294L602.1632812500001,309.63343954813865L606.62375,297.8481075871091L611.08421875,309.23221913435606L615.5446875,295.00037913177545L620.00515625,309.2177365782279L624.465625,297.12489323287696L628.9260937500001,308.7809333773152L633.3865625000001,296.11022392240545L637.84703125,308.147779727581L642.3075,294.88026744698703L646.76796875,307.3802868869199L651.2284374999999,291.7112205123988L655.6889062500001,307.16530159973684L660.1493750000001,291.76259530125935L664.6098437500001,305.4348594679858L669.0703125,290.40451099895256L673.53078125,304.5874148633464L677.99125,290.52504687472816L682.4517187499999,304.6626292498304L686.9121875000001,291.3140864458471L691.3726562500001,306.9174899422086L695.8331250000001,289.3816451259538L700.29359375,303.9491465585952L704.7540625,286.6017674525634L709.21453125,302.21450289039956L713.675,286.446981205625L718.13546875,303.88041627231L722.5959375000001,294.5365111559371L727.05640625,307.1657829613048L731.516875,287.31026426886206L735.97734375,302.6566049037699L740.4378125000001,283.5689040780936L744.89828125,300.3219961447304L749.35875,290.3680313882647L753.8192187500001,306.3271515862772L758.2796875,290.49748389890755L762.74015625,304.64542995291833L767.2006250000001,289.35532679566023L771.6610937500001,303.932723920492L776.1215625,286.9625726233635L780.58203125,302.43964531697884L785.0425,287.236813069732L789.50296875,304.37327135551277L793.9634375,287.97958001676943L798.4239062500001,303.0742579304641L802.8843750000001,284.0150485365155L807.34484375,300.6003902867857L811.8053125,283.39898484802484L816.26578125,301.9784665451675L820.72625,286.48522181511396L825.1867187500001,302.1417784126311L829.6471875000001,284.268048234521L834.10765625,300.7582620983411L838.568125,284.146839848357L843.02859375,300.6826280653748L847.4890625,284.3779343047311L851.94953125,302.58933100615224L856.4100000000001,285.19666404279974L860.8704687500001,301.33771836270705L865.3309375,287.8478949492586L869.79140625,302.9920864483374L874.251875,286.5611404488017L878.7123437500001,302.1891516400523L883.1728125,289.9561620254083L887.6332812500001,306.07014510385477L892.0937500000001,288.9456647508524L896.55421875,303.6770948045319L901.0146875,287.26687575601227L905.47515625,302.62953047175165L909.935625,286.33490551941225L914.39609375,303.8104810441132L918.8565625,284.5672145634639L923.3170312500001,300.9449418876015L927.7775,286.11859084088684L932.23796875,301.9130006847134L936.6984375000001,282.3627926131513L941.15890625,299.56938259060644L945.619375,283.0339261385541L950.07984375,301.75066991045776L954.5403125000001,285.9720238180786L959.00078125,301.821542862481L963.4612500000001,285.5524328391333L967.9217187500001,301.5597180916192L972.3821875,284.1831326871547L976.84265625,300.7052747967845L981.303125,286.1545658651308" style="fill: none;" fill="none"></path></g><g><path stroke="rgb(255, 112, 67)" stroke-width="2px" d="M98.1303125,325.65789464861155L102.59078125,327.1770481901069L107.05125000000001,326.79012500623077L111.51171875000001,327.3817340168192L115.9721875,326.66584207584754L120.43265625000001,327.2489065029299L124.89312500000001,326.724117203518L129.35359375000002,329.0672090965223L133.8140625,325.60205097567496L138.27453125000002,326.5592471657006L142.735,322.3937846570063L147.19546875000003,324.5562580591122L151.6559375,322.27538157900403L156.11640625,324.4778268538708L160.576875,321.11539565402717L165.03734375000002,325.5158320285057L169.4978125,320.46560868026603L173.95828125000003,323.3461324607416L178.41875,319.5767130537507L182.87921875,322.7911264551994L187.3396875,318.5813210611296L191.80015625000001,322.16985628031057L196.260625,317.6371917651283L200.72109375000002,323.3431769658377L205.1815625,317.44175555002175L209.64203125,321.45867446053614L214.10250000000002,316.72967245912866L218.56296875,321.01432350462284L223.02343750000003,314.9681937233839L227.48390625,321.6776576942825L231.944375,316.49527673702994L236.40484375,320.86805390476206L240.86531250000002,315.3407440190828L245.32578125,320.1476247904716L249.78625000000002,314.3346174749227L254.24671874999999,319.5198015238391L258.70718750000003,313.9428560035676L263.16765625,321.03784226316697L267.628125,313.2203762958459L272.08859375,318.82451484457386L276.54906250000005,310.54057657530427L281.00953125,317.1523197995121L285.47,310.5175210960615L289.93046875,317.13793317038414L294.39093750000006,311.52893889289845L298.85140625,319.5315578722006L303.311875,310.0541392130361L307.77234375,316.8487828699369L312.2328125,309.40048265965106L316.69328125000004,316.4409011800267L321.15375,308.96043803707636L325.61421874999996,317.92881333533626L330.07468750000004,309.1467902686076L334.53515625,316.2825971276733L338.995625,309.78928771065637L343.45609375000004,316.68351553147295L347.91656250000005,310.0394607946486L352.37703125,316.8396235358697L356.8375,308.5598986378876L361.29796875000005,317.6788767500466L365.7584375,310.56780339101897L370.21890625000003,317.1693093159971L374.679375,310.89917546166964L379.13984375,317.37608548808237L383.60031250000003,310.93544014859447L388.06078125,317.39871465272313L392.52125,313.36140289682663L396.98171875,320.67501540761987L401.44218750000005,312.0663410163704L405.90265625,318.1043967942152L410.363125,313.2451700480785L414.82359375000004,318.839986110001L419.2840625,311.84891413667197L423.74453125,319.7312224212833L428.20500000000004,313.9820199868494L432.66546875,319.29978047179407L437.1259375,316.8667473133916L441.58640625,321.0998503235564L446.04687500000006,315.2070958544188L450.50734375,320.06422781315734L454.9678125,314.09705170692195L459.42828125,321.1340602651193L463.88875,313.65146930644227L468.34921875000003,319.09351684722L472.8096875,312.47093385812997L477.27015625000007,318.3568627274731L481.73062500000003,311.17639308942364L486.19109375,317.5490692878003L490.6515625,312.5275927870992L495.11203125000003,320.1547178991499L499.57250000000005,312.947596866046L504.03296875,318.6543004444127L508.49343749999997,311.7330462813449L512.95390625,317.89642087955923L517.4143750000001,314.0430244793489L521.87484375,321.1003472751137L526.3353125,311.7751695966474L530.79578125,317.922705828308L535.25625,309.60679488535243L539.71671875,316.56964000845994L544.1771875,305.9795867672947L548.63765625,314.30626214279187L553.0981250000001,308.1850026235747L557.5585937500001,317.4449416371106L562.0190625,306.4330121795413L566.47953125,314.5891996000338L570.94,309.75300269991715L575.40046875,316.6608736847483L579.8609375,308.91217443180255L584.32140625,316.1361968454448L588.7818750000001,306.915039728534L593.24234375,316.65248479060523L597.7028125,309.83457116387297L602.1632812500001,316.7117724062567L606.62375,313.3038038320081L611.08421875,318.87657359117304L615.5446875,308.8105612663567L620.00515625,317.83529023020657L624.465625,310.1088260571763L628.9260937500001,316.88290745967805L633.3865625000001,308.8651970588705L637.84703125,316.1068829647352L642.3075,307.63885282049864L646.76796875,315.3416441599912L651.2284374999999,307.7179231518031L655.6889062500001,317.15348404672517L660.1493750000001,305.50903684918785L664.6098437500001,314.01263899389323L669.0703125,306.70309747966974L673.53078125,314.75773282731393L677.99125,306.1476409852517L682.4517187499999,314.41112797479707L686.9121875000001,306.11688600576946L691.3726562500001,316.1544368676001L695.8331250000001,306.8336578579021L700.29359375,314.8392025033309L704.7540625,303.2300565681255L709.21453125,312.59055529851037L713.675,307.485453609294L718.13546875,317.0084230521994L722.5959375000001,306.0678617785254L727.05640625,314.36134574979985L731.516875,302.1897698408202L735.97734375,311.9414163806718L740.4378125000001,304.94683886801175L744.89828125,313.6618274536394L749.35875,303.51577042401607L753.8192187500001,314.53134074458603L758.2796875,308.139925222606L762.74015625,315.65431333890615L767.2006250000001,303.9242130184382L771.6610937500001,313.0237089235054L776.1215625,305.1583737137321L780.58203125,313.79382519736885L785.0425,307.8652419696307L789.50296875,317.24541098904956L793.9634375,304.17495215817473L798.4239062500001,313.1801701467011L802.8843750000001,303.4007418725493L807.34484375,312.69706292847076L811.8053125,304.02691437038925L816.26578125,314.8502945671229L820.72625,305.9271102583729L825.1867187500001,314.27351680122473L829.6471875000001,302.87706869001124L834.10765625,312.37029086256706L838.568125,301.3184028073124L843.02859375,311.39768335176296L847.4890625,301.0825486175471L851.94953125,313.0130103373494L856.4100000000001,304.7806448989943L860.8704687500001,313.5581224169724L865.3309375,299.7405311922222L869.79140625,310.4130914639466L874.251875,302.6017161765262L878.7123437500001,312.19847089415236L883.1728125,302.3243458379511L887.6332812500001,313.78789180288146L892.0937500000001,301.4608816809667L896.55421875,311.4865901689232L901.0146875,299.839342172463L905.47515625,310.4747495156169L909.935625,300.0428222027841L914.39609375,312.3642210545373L918.8565625,301.31461524710187L923.3170312500001,311.39531991419153L927.7775,298.669232523432L932.23796875,309.74460109462154L936.6984375000001,298.47405257800466L941.15890625,309.6228088086749L945.619375,300.90265830467587L950.07984375,312.90075878211775L954.5403125000001,301.37112637701796L959.00078125,311.4305828592592L963.4612500000001,300.73202501324835L967.9217187500001,311.03178360826695L972.3821875,300.0193585796213L976.84265625,310.5870797536837L981.303125,299.2780476733535" style="fill: none;" fill="none"></path></g></g></g></g><g opacity="0.2"><g><g><g><path stroke="rgb(187, 187, 187)" stroke-width="2px" d="M98.1303125,327.1381578873843L102.59078125,328.125L107.05125000000001,327.3848684504628L111.51171875000001,328.125L115.9721875,324.6710526756942L120.43265625000001,328.125L124.89312500000001,322.9440791532397L129.35359375000002,328.125L133.8140625,313.3223678916693L138.27453125000002,323.4375L142.735,301.7269738018513L147.19546875000003,300L151.6559375,304.6875L156.11640625,309.375L160.576875,302.4671047925949L165.03734375000002,314.0625L169.4978125,291.61184281110764L173.95828125000003,304.6875L178.41875,242.5164431333542L182.87921875,253.125L187.3396875,233.38816165924072L191.80015625000001,168.74999999999997L196.260625,223.7664431333542L200.72109375000002,187.5L205.1815625,195.6414431333542L209.64203125,225L214.10250000000002,196.875L218.56296875,168.74999999999997L223.02343750000003,166.03617668151858L227.48390625,196.875L231.944375,155.42762875556946L236.40484375,187.5L240.86531250000002,157.64803290367126L245.32578125,117.1875L249.78625000000002,141.3651287555695L254.24671874999999,182.81250000000003L258.70718750000003,134.70395207405093L263.16765625,159.37500000000003L267.628125,128.53617668151853L272.08859375,84.375L276.54906250000005,101.64474248886108L281.00953125,84.375L285.47,123.84867668151855L289.93046875,154.6875L294.39093750000006,102.63158082962036L298.85140625,131.25L303.311875,97.69737124443054L307.77234375,145.31249999999997L312.2328125,93.99670958518982L316.69328125000004,42.1875L321.15375,79.44079041481018L325.61421874999996,65.625L330.07468750000004,80.42762875556946L334.53515625,51.5625L338.995625,83.38816165924072L343.45609375000004,60.9375L347.91656250000005,76.48025751113892L352.37703125,42.1875L356.8375,62.664467096328735L361.29796875000005,-18.75L365.7584375,49.588823318481445L370.21890625000003,84.375L374.679375,46.38158082962036L379.13984375,79.6875L383.60031250000003,56.49670958518982L388.06078125,14.0625L392.52125,38.7335479259491L396.98171875,84.375L401.44218750000005,49.835532903671265L405.90265625,-9.374999999999943L410.363125,39.720386266708374L414.82359375000004,37.5L419.2840625,44.161176681518555L423.74453125,-28.125L428.20500000000004,29.111838340759277L432.66546875,98.4375L437.1259375,33.55262875556946L441.58640625,173.4375L446.04687500000006,34.292757511138916L450.50734375,37.5L454.9678125,40.9539520740509L459.42828125,0L463.88875,19.98356580734253L468.34921875000003,65.625L472.8096875,21.957242488861084L477.27015625000007,-28.125L481.73062500000003,17.763161659240723L486.19109375,46.875L490.6515625,30.838823318481445L495.11203125000003,28.125L499.57250000000005,27.63158082962036L504.03296875,60.9375L508.49343749999997,19.736838340759277L512.95390625,32.8125L517.4143750000001,14.309227466583252L521.87484375,46.875L526.3353125,11.101984977722168L530.79578125,4.6875L535.25625,12.335515022277832L539.71671875,-9.374999999999943L544.1771875,7.894742488861084L548.63765625,28.125L553.0981250000001,24.424338340759277L557.5585937500001,9.375L562.0190625,38.980257511138916L566.47953125,-23.4375L570.94,24.917757511138916L575.40046875,42.1875L579.8609375,-1.4802575111389729L584.32140625,9.375L588.7818750000001,9.128272533416748L593.24234375,79.6875L597.7028125,14.309227466583252L602.1632812500001,9.375L606.62375,21.217095851898193L611.08421875,42.1875L615.5446875,31.825661659240723L620.00515625,112.5L624.465625,9.868419170379639L628.9260937500001,37.5L633.3865625000001,8.881580829620361L637.84703125,4.6875L642.3075,19.24341917037964L646.76796875,89.0625L651.2284374999999,2.2204041481018066L655.6889062500001,-14.062500000000057L660.1493750000001,25.164484977722168L664.6098437500001,-14.062500000000057L669.0703125,1.2335658073425293L673.53078125,42.1875L677.99125,2.960515022277832L682.4517187499999,46.875L686.9121875000001,26.398015022277832L691.3726562500001,14.0625L695.8331250000001,13.569080829620361L700.29359375,60.9375L704.7540625,23.684227466583252L709.21453125,93.75L713.675,1.2335658073425293L718.13546875,-23.4375L722.5959375000001,17.269742488861084L727.05640625,46.875L731.516875,5.674338340759277L735.97734375,32.8125L740.4378125000001,28.61841917037964L744.89828125,-9.374999999999943L749.35875,25.411176681518555L753.8192187500001,70.3125L758.2796875,20.723676681518555L762.74015625,75L767.2006250000001,8.881580829620361L771.6610937500001,60.9375L776.1215625,13.815772533416748L780.58203125,-23.4375L785.0425,18.996727466583252L789.50296875,18.75L793.9634375,21.957242488861084L798.4239062500001,46.875L802.8843750000001,15.049338340759277L807.34484375,-70.3125L811.8053125,44.161176681518555L816.26578125,56.25L820.72625,29.605257511138916L825.1867187500001,14.0625L829.6471875000001,34.539467096328735L834.10765625,-9.374999999999943L838.568125,37.99341917037964L843.02859375,42.1875L847.4890625,28.37170958518982L851.94953125,70.3125L856.4100000000001,38.24012875556946L860.8704687500001,75L865.3309375,39.967113733291626L869.79140625,46.875L874.251875,36.75987124443054L878.7123437500001,75L883.1728125,34.0460479259491L887.6332812500001,131.25L892.0937500000001,40.213823318481445L896.55421875,46.875L901.0146875,28.865128755569458L905.47515625,4.6875L909.935625,55.75658082962036L914.39609375,117.1875L918.8565625,38.980257511138916L923.3170312500001,65.625L927.7775,53.536176681518555L932.23796875,121.87499999999997L936.6984375000001,21.957242488861084L941.15890625,93.75L945.619375,40.213823318481445L950.07984375,89.0625L954.5403125000001,49.095386266708374L959.00078125,79.6875L963.4612500000001,37.00658082962036L967.9217187500001,60.9375L972.3821875,30.838823318481445L976.84265625,145.31249999999997L981.303125,37.00658082962036" style="fill: none;" fill="none"></path></g><g><path stroke="rgb(0, 153, 136)" stroke-width="2px" d="M98.1303125,325.90460521169007L102.59078125,323.4375L107.05125000000001,326.1513157747686L111.51171875000001,323.4375L115.9721875,324.4243419729173L120.43265625000001,323.4375L124.89312500000001,323.93092112615705L129.35359375000002,323.4375L133.8140625,319.4901315495372L138.27453125000002,328.125L142.735,316.7763154953718L147.19546875000003,318.75L151.6559375,313.5690785944462L156.11640625,304.6875L160.576875,307.4013166129589L165.03734375000002,295.3125L169.4978125,308.14144760370255L173.95828125000003,304.6875L178.41875,303.20723578333855L182.87921875,309.375L187.3396875,297.5328952074051L191.80015625000001,281.25L196.260625,303.94736900925636L200.72109375000002,323.4375L205.1815625,306.6611833870411L209.64203125,304.6875L214.10250000000002,299.5065785944462L218.56296875,295.3125L223.02343750000003,292.3519738018513L227.48390625,285.9375L231.944375,297.0394738018513L236.40484375,309.375L240.86531250000002,308.63486900925636L245.32578125,276.5625L249.78625000000002,305.67434281110764L254.24671874999999,300L258.70718750000003,284.95065718889236L263.16765625,285.9375L267.628125,301.48026421666145L272.08859375,276.5625L276.54906250000005,289.39144760370255L281.00953125,314.0625L285.47,304.1940785944462L289.93046875,328.125L294.39093750000006,318.9967107027769L298.85140625,304.6875L303.311875,300.74013099074364L307.77234375,276.5625L312.2328125,299.25986900925636L316.69328125000004,300L321.15375,299.7532904148102L325.61421874999996,323.4375L330.07468750000004,290.8717095851898L334.53515625,309.375L338.995625,300.2467095851898L343.45609375000004,328.125L347.91656250000005,300.98684281110764L352.37703125,290.625L356.8375,281.74341917037964L361.29796875000005,309.375L365.7584375,299.25986900925636L370.21890625000003,285.9375L374.679375,292.3519738018513L379.13984375,285.9375L383.60031250000003,301.9736833870411L388.06078125,323.4375L392.52125,298.51973578333855L396.98171875,271.875L401.44218750000005,284.95065718889236L405.90265625,304.6875L410.363125,295.0657904148102L414.82359375000004,225L419.2840625,294.57236900925636L423.74453125,290.625L428.20500000000004,283.96381437778473L432.66546875,300L437.1259375,288.4046047925949L441.58640625,281.25L446.04687500000006,302.7138166129589L450.50734375,290.625L454.9678125,279.0296047925949L459.42828125,285.9375L463.88875,281.0032904148102L468.34921875000003,243.75L472.8096875,280.75658082962036L477.27015625000007,309.375L481.73062500000003,286.92434281110764L486.19109375,285.9375L490.6515625,263.2401332259178L495.11203125000003,257.8125L499.57250000000005,273.10855239629745L504.03296875,281.25L508.49343749999997,287.4177619814873L512.95390625,309.375L517.4143750000001,276.06908082962036L521.87484375,229.6875L526.3353125,284.95065718889236L530.79578125,309.375L535.25625,276.3157904148102L539.71671875,276.5625L544.1771875,276.8092095851898L548.63765625,285.9375L553.0981250000001,280.5098667740822L557.5585937500001,318.75L562.0190625,283.7171047925949L566.47953125,262.5L570.94,256.3322380185127L575.40046875,300L579.8609375,268.6677619814873L584.32140625,271.875L588.7818750000001,268.6677619814873L593.24234375,281.25L597.7028125,266.20065718889236L602.1632812500001,239.0625L606.62375,275.8223667740822L611.08421875,276.5625L615.5446875,286.1842095851898L620.00515625,295.3125L624.465625,266.69408082962036L628.9260937500001,234.375L633.3865625000001,277.05591917037964L637.84703125,309.375L642.3075,282.9769715666771L646.76796875,304.6875L651.2284374999999,234.86841917037964L655.6889062500001,243.75L660.1493750000001,278.0427619814873L664.6098437500001,285.9375L669.0703125,270.88815718889236L673.53078125,271.875L677.99125,269.4078952074051L682.4517187499999,300L686.9121875000001,275.32894760370255L691.3726562500001,300L695.8331250000001,267.9276332259178L700.29359375,309.375L704.7540625,261.7598667740822L709.21453125,257.8125L713.675,270.64144760370255L718.13546875,309.375L722.5959375000001,273.10855239629745L727.05640625,257.8125L731.516875,266.69408082962036L735.97734375,225L740.4378125000001,244.9835568666458L744.89828125,267.1875L749.35875,244.73683834075928L753.8192187500001,239.0625L758.2796875,262.99341917037964L762.74015625,271.875L767.2006250000001,281.4967095851898L771.6610937500001,234.375L776.1215625,262.5L780.58203125,253.125L785.0425,245.9703952074051L789.50296875,276.5625L793.9634375,286.43091917037964L798.4239062500001,276.5625L802.8843750000001,261.26644760370255L807.34484375,290.625L811.8053125,244.49012875556946L816.26578125,276.5625L820.72625,248.93091917037964L825.1867187500001,192.1875L829.6471875000001,262.99341917037964L834.10765625,290.625L838.568125,242.5164431333542L843.02859375,187.5L847.4890625,256.0855284333229L851.94953125,309.375L856.4100000000001,253.125L860.8704687500001,239.0625L865.3309375,246.46381437778473L869.79140625,187.5L874.251875,259.2927619814873L878.7123437500001,285.9375L883.1728125,244.9835568666458L887.6332812500001,271.875L892.0937500000001,253.37170958518982L896.55421875,304.6875L901.0146875,223.27302396297455L905.47515625,262.5L909.935625,236.10197603702545L914.39609375,243.75L918.8565625,230.67433834075928L923.3170312500001,225L927.7775,237.33552396297455L932.23796875,248.4375L936.6984375000001,229.6875L941.15890625,248.4375L945.619375,223.51973354816437L950.07984375,253.125L954.5403125000001,236.34868562221527L959.00078125,196.875L963.4612500000001,231.16776645183563L967.9217187500001,182.81250000000003L972.3821875,230.67433834075928L976.84265625,257.8125L981.303125,236.34868562221527" style="fill: none;" fill="none"></path></g><g><path stroke="rgb(238, 51, 119)" stroke-width="2px" d="M98.1303125,325.1644738018513L102.59078125,328.125L107.05125000000001,325.1644738018513L111.51171875000001,328.125L115.9721875,326.64473690092564L120.43265625000001,323.4375L124.89312500000001,322.4506577476859L129.35359375000002,323.4375L133.8140625,312.82894760370255L138.27453125000002,323.4375L142.735,308.38815718889236L147.19546875000003,318.75L151.6559375,310.85526309907436L156.11640625,314.0625L160.576875,308.8815785944462L165.03734375000002,290.625L169.4978125,313.5690785944462L173.95828125000003,314.0625L178.41875,306.9078952074051L182.87921875,304.6875L187.3396875,306.9078952074051L191.80015625000001,304.6875L196.260625,304.9342095851898L200.72109375000002,290.625L205.1815625,304.4407904148102L209.64203125,304.6875L214.10250000000002,282.9769715666771L218.56296875,290.625L223.02343750000003,311.1019738018513L227.48390625,290.625L231.944375,298.51973578333855L236.40484375,304.6875L240.86531250000002,298.76644760370255L245.32578125,295.3125L249.78625000000002,294.07894760370255L254.24671874999999,276.5625L258.70718750000003,293.3388166129589L263.16765625,248.4375L267.628125,276.8092095851898L272.08859375,248.4375L276.54906250000005,289.39144760370255L281.00953125,300L285.47,286.43091917037964L289.93046875,295.3125L294.39093750000006,282.7302619814873L298.85140625,248.4375L303.311875,288.4046047925949L307.77234375,248.4375L312.2328125,279.5230284333229L316.69328125000004,281.25L321.15375,279.5230284333229L325.61421874999996,281.25L330.07468750000004,281.74341917037964L334.53515625,276.5625L338.995625,283.4703952074051L343.45609375000004,295.3125L347.91656250000005,282.7302619814873L352.37703125,210.9375L356.8375,278.7828952074051L361.29796875000005,281.25L365.7584375,276.3157904148102L370.21890625000003,267.1875L374.679375,270.88815718889236L379.13984375,285.9375L383.60031250000003,289.1447380185127L388.06078125,271.875L392.52125,264.47368562221527L396.98171875,295.3125L401.44218750000005,279.27631437778473L405.90265625,253.125L410.363125,274.58881437778473L414.82359375000004,262.5L419.2840625,271.1348667740822L423.74453125,257.8125L428.20500000000004,262.99341917037964L432.66546875,295.3125L437.1259375,272.86184281110764L441.58640625,243.75L446.04687500000006,293.3388166129589L450.50734375,290.625L454.9678125,273.84868562221527L459.42828125,290.625L463.88875,270.64144760370255L468.34921875000003,271.875L472.8096875,268.17434281110764L477.27015625000007,243.75L481.73062500000003,274.3421047925949L486.19109375,314.0625L490.6515625,270.1480284333229L495.11203125000003,262.5L499.57250000000005,270.3947380185127L504.03296875,300L508.49343749999997,256.0855284333229L512.95390625,267.1875L517.4143750000001,275.8223667740822L521.87484375,281.25L526.3353125,268.42105239629745L530.79578125,300L535.25625,259.04605239629745L539.71671875,267.1875L544.1771875,273.10855239629745L548.63765625,281.25L553.0981250000001,265.21381437778473L557.5585937500001,271.875L562.0190625,270.88815718889236L566.47953125,285.9375L570.94,263.48684281110764L575.40046875,271.875L579.8609375,260.0328952074051L584.32140625,281.25L588.7818750000001,260.7730284333229L593.24234375,243.75L597.7028125,267.68091917037964L602.1632812500001,309.375L606.62375,260.2796047925949L611.08421875,276.5625L615.5446875,261.0197380185127L620.00515625,257.8125L624.465625,267.9276332259178L628.9260937500001,285.9375L633.3865625000001,256.82565718889236L637.84703125,300L642.3075,260.7730284333229L646.76796875,239.0625L651.2284374999999,259.5394715666771L655.6889062500001,229.6875L660.1493750000001,255.83881437778473L664.6098437500001,276.5625L669.0703125,256.57894760370255L673.53078125,239.0625L677.99125,264.47368562221527L682.4517187499999,271.875L686.9121875000001,254.8519715666771L691.3726562500001,215.625L695.8331250000001,258.30591917037964L700.29359375,239.0625L704.7540625,248.4375L709.21453125,253.125L713.675,249.6710568666458L718.13546875,276.5625L722.5959375000001,250.6578952074051L727.05640625,225L731.516875,252.87829041481018L735.97734375,248.4375L740.4378125000001,248.19079041481018L744.89828125,281.25L749.35875,248.19079041481018L753.8192187500001,243.75L758.2796875,262.7467095851898L762.74015625,281.25L767.2006250000001,237.33552396297455L771.6610937500001,281.25L776.1215625,256.0855284333229L780.58203125,253.125L785.0425,249.91776645183563L789.50296875,276.5625L793.9634375,253.61841917037964L798.4239062500001,281.25L802.8843750000001,241.5296047925949L807.34484375,262.5L811.8053125,246.46381437778473L816.26578125,239.0625L820.72625,240.78947603702545L825.1867187500001,243.75L829.6471875000001,247.2039431333542L834.10765625,220.3125L838.568125,252.13816165924072L843.02859375,220.3125L847.4890625,235.85526645183563L851.94953125,234.375L856.4100000000001,251.15131437778473L860.8704687500001,225L865.3309375,243.50329041481018L869.79140625,210.9375L874.251875,250.9046047925949L878.7123437500001,253.125L883.1728125,244.49012875556946L887.6332812500001,248.4375L892.0937500000001,259.78618562221527L896.55421875,300L901.0146875,241.2828952074051L905.47515625,262.5L909.935625,254.11184281110764L914.39609375,285.9375L918.8565625,238.56908082962036L923.3170312500001,248.4375L927.7775,246.71052396297455L932.23796875,243.75L936.6984375000001,246.71052396297455L941.15890625,215.625L945.619375,245.72368562221527L950.07984375,290.625L954.5403125000001,241.77631437778473L959.00078125,290.625L963.4612500000001,242.76316165924072L967.9217187500001,276.5625L972.3821875,246.71052396297455L976.84265625,262.5L981.303125,240.2960568666458" style="fill: none;" fill="none"></path></g><g><path stroke="rgb(51, 187, 238)" stroke-width="2px" d="M98.1303125,325.4111842252314L102.59078125,328.125L107.05125000000001,326.8914473243058L111.51171875000001,323.4375L115.9721875,324.1776315495372L120.43265625000001,323.4375L124.89312500000001,322.20394760370255L129.35359375000002,323.4375L133.8140625,321.21710535138845L138.27453125000002,323.4375L142.735,314.3092107027769L147.19546875000003,314.0625L151.6559375,314.0625L156.11640625,304.6875L160.576875,306.6611833870411L165.03734375000002,304.6875L169.4978125,306.9078952074051L173.95828125000003,328.125L178.41875,305.42763099074364L182.87921875,314.0625L187.3396875,301.48026421666145L191.80015625000001,281.25L196.260625,307.6480261981487L200.72109375000002,314.0625L205.1815625,301.48026421666145L209.64203125,290.625L214.10250000000002,311.1019738018513L218.56296875,300L223.02343750000003,300.74013099074364L227.48390625,300L231.944375,309.375L236.40484375,300L240.86531250000002,311.5953952074051L245.32578125,300L249.78625000000002,304.1940785944462L254.24671874999999,304.6875L258.70718750000003,304.9342095851898L263.16765625,314.0625L267.628125,296.29934281110764L272.08859375,328.125L276.54906250000005,299.25986900925636L281.00953125,285.9375L285.47,303.94736900925636L289.93046875,309.375L294.39093750000006,291.85855239629745L298.85140625,295.3125L303.311875,293.3388166129589L307.77234375,281.25L312.2328125,307.4013166129589L316.69328125000004,281.25L321.15375,300.4934214055538L325.61421874999996,309.375L330.07468750000004,291.61184281110764L334.53515625,295.3125L338.995625,290.8717095851898L343.45609375000004,300L347.91656250000005,289.63815718889236L352.37703125,304.6875L356.8375,288.1578952074051L361.29796875000005,304.6875L365.7584375,290.625L370.21890625000003,285.9375L374.679375,304.6875L379.13984375,314.0625L383.60031250000003,291.61184281110764L388.06078125,295.3125L392.52125,290.8717095851898L396.98171875,290.625L401.44218750000005,285.6907904148102L405.90265625,243.75L410.363125,281.0032904148102L414.82359375000004,300L419.2840625,281.74341917037964L423.74453125,300L428.20500000000004,286.6776332259178L432.66546875,295.3125L437.1259375,283.4703952074051L441.58640625,290.625L446.04687500000006,279.7697380185127L450.50734375,295.3125L454.9678125,277.3026332259178L459.42828125,262.5L463.88875,286.43091917037964L468.34921875000003,309.375L472.8096875,290.13158082962036L477.27015625000007,314.0625L481.73062500000003,281.74341917037964L486.19109375,300L490.6515625,276.06908082962036L495.11203125000003,267.1875L499.57250000000005,292.10526421666145L504.03296875,253.125L508.49343749999997,283.96381437778473L512.95390625,262.5L517.4143750000001,280.5098667740822L521.87484375,300L526.3353125,288.8980284333229L530.79578125,290.625L535.25625,284.2105284333229L539.71671875,257.8125L544.1771875,282.9769715666771L548.63765625,267.1875L553.0981250000001,286.1842095851898L557.5585937500001,285.9375L562.0190625,273.6019715666771L566.47953125,271.875L570.94,282.7302619814873L575.40046875,267.1875L579.8609375,274.0953952074051L584.32140625,267.1875L588.7818750000001,290.625L593.24234375,285.9375L597.7028125,280.26315718889236L602.1632812500001,262.5L606.62375,280.01644760370255L611.08421875,253.125L615.5446875,281.0032904148102L620.00515625,248.4375L624.465625,278.2894715666771L628.9260937500001,295.3125L633.3865625000001,269.6546047925949L637.84703125,267.1875L642.3075,264.2269715666771L646.76796875,267.1875L651.2284374999999,267.9276332259178L655.6889062500001,276.5625L660.1493750000001,273.84868562221527L664.6098437500001,276.5625L669.0703125,266.20065718889236L673.53078125,253.125L677.99125,270.64144760370255L682.4517187499999,285.9375L686.9121875000001,256.57894760370255L691.3726562500001,239.0625L695.8331250000001,266.69408082962036L700.29359375,243.75L704.7540625,264.47368562221527L709.21453125,271.875L713.675,270.64144760370255L718.13546875,290.625L722.5959375000001,270.3947380185127L727.05640625,253.125L731.516875,274.3421047925949L735.97734375,318.75L740.4378125000001,265.7072380185127L744.89828125,281.25L749.35875,275.57565718889236L753.8192187500001,323.4375L758.2796875,261.51315718889236L762.74015625,290.625L767.2006250000001,259.78618562221527L771.6610937500001,239.0625L776.1215625,270.64144760370255L780.58203125,285.9375L785.0425,268.42105239629745L789.50296875,300L793.9634375,264.2269715666771L798.4239062500001,262.5L802.8843750000001,272.86184281110764L807.34484375,239.0625L811.8053125,265.7072380185127L816.26578125,271.875L820.72625,274.3421047925949L825.1867187500001,248.4375L829.6471875000001,260.52631437778473L834.10765625,300L838.568125,259.04605239629745L843.02859375,257.8125L847.4890625,266.4473667740822L851.94953125,267.1875L856.4100000000001,259.04605239629745L860.8704687500001,234.375L865.3309375,260.0328952074051L869.79140625,253.125L874.251875,261.51315718889236L878.7123437500001,285.9375L883.1728125,262.5L887.6332812500001,276.5625L892.0937500000001,261.51315718889236L896.55421875,281.25L901.0146875,252.63158082962036L905.47515625,257.8125L909.935625,266.69408082962036L914.39609375,290.625L918.8565625,255.83881437778473L923.3170312500001,262.5L927.7775,257.0723667740822L932.23796875,271.875L936.6984375000001,254.8519715666771L941.15890625,257.8125L945.619375,259.78618562221527L950.07984375,257.8125L954.5403125000001,260.0328952074051L959.00078125,281.25L963.4612500000001,255.5921047925949L967.9217187500001,271.875L972.3821875,262.5L976.84265625,164.0625L981.303125,261.51315718889236" style="fill: none;" fill="none"></path></g><g><path stroke="rgb(204, 51, 17)" stroke-width="2px" d="M98.1303125,326.64473690092564L102.59078125,328.125L107.05125000000001,325.90460521169007L111.51171875000001,328.125L115.9721875,324.91776309907436L120.43265625000001,328.125L124.89312500000001,327.1381578873843L129.35359375000002,332.8125L133.8140625,320.23026309907436L138.27453125000002,328.125L142.735,318.2565785944462L147.19546875000003,328.125L151.6559375,314.3092107027769L156.11640625,328.125L160.576875,312.3355261981487L165.03734375000002,332.8125L169.4978125,302.4671047925949L173.95828125000003,328.125L178.41875,304.9342095851898L182.87921875,328.125L187.3396875,302.4671047925949L191.80015625000001,328.125L196.260625,304.4407904148102L200.72109375000002,332.8125L205.1815625,302.2203952074051L209.64203125,328.125L214.10250000000002,282.9769715666771L218.56296875,328.125L223.02343750000003,301.23355239629745L227.48390625,332.8125L231.944375,298.76644760370255L236.40484375,328.125L240.86531250000002,286.6776332259178L245.32578125,328.125L249.78625000000002,294.8190785944462L254.24671874999999,328.125L258.70718750000003,294.57236900925636L263.16765625,332.8125L267.628125,286.6776332259178L272.08859375,328.125L276.54906250000005,282.23684281110764L281.00953125,328.125L285.47,292.3519738018513L289.93046875,328.125L294.39093750000006,299.01315718889236L298.85140625,332.8125L303.311875,282.7302619814873L307.77234375,328.125L312.2328125,278.7828952074051L316.69328125000004,328.125L321.15375,278.2894715666771L325.61421874999996,332.8125L330.07468750000004,272.6151332259178L334.53515625,328.125L338.995625,288.1578952074051L343.45609375000004,328.125L347.91656250000005,271.1348667740822L352.37703125,328.125L356.8375,287.6644715666771L361.29796875000005,332.8125L365.7584375,280.26315718889236L370.21890625000003,328.125L374.679375,279.7697380185127L379.13984375,328.125L383.60031250000003,297.0394738018513L388.06078125,328.125L392.52125,280.26315718889236L396.98171875,332.8125L401.44218750000005,281.74341917037964L405.90265625,328.125L410.363125,301.7269738018513L414.82359375000004,328.125L419.2840625,280.01644760370255L423.74453125,332.8125L428.20500000000004,288.65131437778473L432.66546875,328.125L437.1259375,280.01644760370255L441.58640625,328.125L446.04687500000006,262.2532904148102L450.50734375,328.125L454.9678125,274.3421047925949L459.42828125,332.8125L463.88875,273.3552619814873L468.34921875000003,328.125L472.8096875,281.74341917037964L477.27015625000007,328.125L481.73062500000003,274.58881437778473L486.19109375,328.125L490.6515625,270.64144760370255L495.11203125000003,332.8125L499.57250000000005,280.5098667740822L504.03296875,328.125L508.49343749999997,262.7467095851898L512.95390625,328.125L517.4143750000001,270.3947380185127L521.87484375,332.8125L526.3353125,276.5625L530.79578125,328.125L535.25625,269.90131437778473L539.71671875,328.125L544.1771875,275.8223667740822L548.63765625,328.125L553.0981250000001,265.21381437778473L557.5585937500001,332.8125L562.0190625,266.20065718889236L566.47953125,328.125L570.94,281.9901332259178L575.40046875,328.125L579.8609375,261.0197380185127L584.32140625,328.125L588.7818750000001,260.2796047925949L593.24234375,332.8125L597.7028125,270.88815718889236L602.1632812500001,328.125L606.62375,277.79605239629745L611.08421875,328.125L615.5446875,259.2927619814873L620.00515625,332.8125L624.465625,263.9802619814873L628.9260937500001,328.125L633.3865625000001,263.48684281110764L637.84703125,328.125L642.3075,259.04605239629745L646.76796875,328.125L651.2284374999999,261.26644760370255L655.6889062500001,332.8125L660.1493750000001,268.17434281110764L664.6098437500001,328.125L669.0703125,248.4375L673.53078125,328.125L677.99125,265.4605284333229L682.4517187499999,328.125L686.9121875000001,262.00658082962036L691.3726562500001,332.8125L695.8331250000001,254.8519715666771L700.29359375,328.125L704.7540625,266.4473667740822L709.21453125,328.125L713.675,258.0592095851898L718.13546875,332.8125L722.5959375000001,257.8125L727.05640625,328.125L731.516875,262.99341917037964L735.97734375,328.125L740.4378125000001,267.9276332259178L744.89828125,328.125L749.35875,256.3322380185127L753.8192187500001,332.8125L758.2796875,262.5L762.74015625,328.125L767.2006250000001,255.09868562221527L771.6610937500001,328.125L776.1215625,264.9671047925949L780.58203125,328.125L785.0425,263.9802619814873L789.50296875,332.8125L793.9634375,247.45066165924072L798.4239062500001,328.125L802.8843750000001,249.17762875556946L807.34484375,328.125L811.8053125,256.82565718889236L816.26578125,332.8125L820.72625,244.49012875556946L825.1867187500001,328.125L829.6471875000001,255.5921047925949L834.10765625,328.125L838.568125,256.57894760370255L843.02859375,328.125L847.4890625,254.35855239629745L851.94953125,332.8125L856.4100000000001,259.04605239629745L860.8704687500001,328.125L865.3309375,253.37170958518982L869.79140625,328.125L874.251875,247.2039431333542L878.7123437500001,328.125L883.1728125,245.72368562221527L887.6332812500001,332.8125L892.0937500000001,245.47697603702545L896.55421875,328.125L901.0146875,251.39802396297455L905.47515625,328.125L909.935625,238.56908082962036L914.39609375,332.8125L918.8565625,245.9703952074051L923.3170312500001,328.125L927.7775,255.5921047925949L932.23796875,328.125L936.6984375000001,236.5953952074051L941.15890625,328.125L945.619375,240.78947603702545L950.07984375,332.8125L954.5403125000001,256.57894760370255L959.00078125,328.125L963.4612500000001,250.16447603702545L967.9217187500001,328.125L972.3821875,233.1414431333542L976.84265625,328.125L981.303125,261.0197380185127" style="fill: none;" fill="none"></path></g><g><path stroke="rgb(0, 119, 187)" stroke-width="2px" d="M98.1303125,326.3980263378471L102.59078125,328.125L107.05125000000001,327.63157894369215L111.51171875000001,328.125L115.9721875,326.3980263378471L120.43265625000001,328.125L124.89312500000001,327.1381578873843L129.35359375000002,332.8125L133.8140625,322.9440791532397L138.27453125000002,328.125L142.735,320.4769738018513L147.19546875000003,328.125L151.6559375,321.7105261981487L156.11640625,328.125L160.576875,318.75L165.03734375000002,332.8125L169.4978125,313.3223678916693L173.95828125000003,328.125L178.41875,316.0361845046282L182.87921875,328.125L187.3396875,310.36184169352055L191.80015625000001,328.125L196.260625,305.67434281110764L200.72109375000002,332.8125L205.1815625,309.375L209.64203125,328.125L214.10250000000002,303.45394760370255L218.56296875,328.125L223.02343750000003,310.36184169352055L227.48390625,332.8125L231.944375,305.67434281110764L236.40484375,328.125L240.86531250000002,307.4013166129589L245.32578125,328.125L249.78625000000002,297.5328952074051L254.24671874999999,328.125L258.70718750000003,305.1809214055538L263.16765625,332.8125L267.628125,290.625L272.08859375,328.125L276.54906250000005,296.54605239629745L281.00953125,328.125L285.47,293.5855261981487L289.93046875,328.125L294.39093750000006,307.6480261981487L298.85140625,332.8125L303.311875,297.2861833870411L307.77234375,328.125L312.2328125,291.85855239629745L316.69328125000004,328.125L321.15375,299.25986900925636L325.61421874999996,332.8125L330.07468750000004,300L334.53515625,328.125L338.995625,292.8453952074051L343.45609375000004,328.125L347.91656250000005,291.61184281110764L352.37703125,328.125L356.8375,300.2467095851898L361.29796875000005,332.8125L365.7584375,291.1184214055538L370.21890625000003,328.125L374.679375,291.85855239629745L379.13984375,328.125L383.60031250000003,287.91118562221527L388.06078125,328.125L392.52125,290.3782904148102L396.98171875,332.8125L401.44218750000005,289.39144760370255L405.90265625,328.125L410.363125,299.01315718889236L414.82359375000004,328.125L419.2840625,301.48026421666145L423.74453125,332.8125L428.20500000000004,296.05263099074364L432.66546875,328.125L437.1259375,303.20723578333855L441.58640625,328.125L446.04687500000006,294.8190785944462L450.50734375,328.125L454.9678125,287.91118562221527L459.42828125,332.8125L463.88875,289.39144760370255L468.34921875000003,328.125L472.8096875,290.13158082962036L477.27015625000007,328.125L481.73062500000003,289.1447380185127L486.19109375,328.125L490.6515625,282.9769715666771L495.11203125000003,332.8125L499.57250000000005,290.625L504.03296875,328.125L508.49343749999997,272.86184281110764L512.95390625,328.125L517.4143750000001,281.25L521.87484375,332.8125L526.3353125,293.3388166129589L530.79578125,328.125L535.25625,289.63815718889236L539.71671875,328.125L544.1771875,276.8092095851898L548.63765625,328.125L553.0981250000001,285.9375L557.5585937500001,332.8125L562.0190625,283.4703952074051L566.47953125,328.125L570.94,285.44408082962036L575.40046875,328.125L579.8609375,288.4046047925949L584.32140625,328.125L588.7818750000001,281.74341917037964L593.24234375,332.8125L597.7028125,274.58881437778473L602.1632812500001,328.125L606.62375,278.2894715666771L611.08421875,328.125L615.5446875,271.38158082962036L620.00515625,332.8125L624.465625,277.05591917037964L628.9260937500001,328.125L633.3865625000001,275.0822380185127L637.84703125,328.125L642.3075,272.86184281110764L646.76796875,328.125L651.2284374999999,265.7072380185127L655.6889062500001,332.8125L660.1493750000001,266.20065718889236L664.6098437500001,328.125L669.0703125,265.4605284333229L673.53078125,328.125L677.99125,267.1875L682.4517187499999,328.125L686.9121875000001,269.16118562221527L691.3726562500001,332.8125L695.8331250000001,260.2796047925949L700.29359375,328.125L704.7540625,257.8125L709.21453125,328.125L713.675,260.2796047925949L718.13546875,332.8125L722.5959375000001,279.0296047925949L727.05640625,328.125L731.516875,254.35855239629745L735.97734375,328.125L740.4378125000001,251.8914431333542L744.89828125,328.125L749.35875,273.84868562221527L753.8192187500001,332.8125L758.2796875,264.2269715666771L762.74015625,328.125L767.2006250000001,263.9802619814873L771.6610937500001,328.125L776.1215625,258.79934281110764L780.58203125,328.125L785.0425,262.00658082962036L789.50296875,332.8125L793.9634375,260.7730284333229L798.4239062500001,328.125L802.8843750000001,252.38487124443054L807.34484375,328.125L811.8053125,254.8519715666771L816.26578125,332.8125L820.72625,260.7730284333229L825.1867187500001,328.125L829.6471875000001,254.60526198148727L834.10765625,328.125L838.568125,256.57894760370255L843.02859375,328.125L847.4890625,257.31908082962036L851.94953125,332.8125L856.4100000000001,256.3322380185127L860.8704687500001,328.125L865.3309375,265.4605284333229L869.79140625,328.125L874.251875,259.2927619814873L878.7123437500001,328.125L883.1728125,269.6546047925949L887.6332812500001,332.8125L892.0937500000001,260.52631437778473L896.55421875,328.125L901.0146875,260.0328952074051L905.47515625,328.125L909.935625,259.2927619814873L914.39609375,332.8125L918.8565625,252.63158082962036L923.3170312500001,328.125L927.7775,261.51315718889236L932.23796875,328.125L936.6984375000001,249.91776645183563L941.15890625,328.125L945.619375,255.5921047925949L950.07984375,332.8125L954.5403125000001,259.78618562221527L959.00078125,328.125L963.4612500000001,258.5526332259178L967.9217187500001,328.125L972.3821875,255.3453952074051L976.84265625,328.125L981.303125,262.00658082962036" style="fill: none;" fill="none"></path></g><g><path stroke="rgb(255, 112, 67)" stroke-width="2px" d="M98.1303125,325.65789464861155L102.59078125,328.125L107.05125000000001,326.3980263378471L111.51171875000001,328.125L115.9721875,325.65789464861155L120.43265625000001,328.125L124.89312500000001,325.90460521169007L129.35359375000002,332.8125L133.8140625,319.98355239629745L138.27453125000002,328.125L142.735,315.54276309907436L147.19546875000003,328.125L151.6559375,318.5032892972231L156.11640625,328.125L160.576875,315.54276309907436L165.03734375000002,332.8125L169.4978125,312.0888154953718L173.95828125000003,328.125L178.41875,313.3223678916693L182.87921875,328.125L187.3396875,311.5953952074051L191.80015625000001,328.125L196.260625,310.1151321083307L200.72109375000002,332.8125L205.1815625,307.6480261981487L209.64203125,328.125L214.10250000000002,308.8815785944462L218.56296875,328.125L223.02343750000003,304.9342095851898L227.48390625,332.8125L231.944375,307.89473578333855L236.40484375,328.125L240.86531250000002,306.16776421666145L245.32578125,328.125L249.78625000000002,304.6875L254.24671874999999,328.125L258.70718750000003,304.6875L263.16765625,332.8125L267.628125,300.2467095851898L272.08859375,328.125L276.54906250000005,296.79276421666145L281.00953125,328.125L285.47,299.5065785944462L289.93046875,328.125L294.39093750000006,302.2203952074051L298.85140625,332.8125L303.311875,294.32565718889236L307.77234375,328.125L312.2328125,297.0394738018513L316.69328125000004,328.125L321.15375,296.54605239629745L325.61421874999996,332.8125L330.07468750000004,294.57236900925636L334.53515625,328.125L338.995625,299.01315718889236L343.45609375000004,328.125L347.91656250000005,299.01315718889236L352.37703125,328.125L356.8375,294.8190785944462L361.29796875000005,332.8125L365.7584375,298.76644760370255L370.21890625000003,328.125L374.679375,300.4934214055538L379.13984375,328.125L383.60031250000003,300.2467095851898L388.06078125,328.125L392.52125,306.6611833870411L396.98171875,332.8125L401.44218750000005,297.7796047925949L405.90265625,328.125L410.363125,305.1809214055538L414.82359375000004,328.125L419.2840625,300.2467095851898L423.74453125,332.8125L428.20500000000004,304.4407904148102L432.66546875,328.125L437.1259375,312.82894760370255L441.58640625,328.125L446.04687500000006,305.42763099074364L450.50734375,328.125L454.9678125,304.1940785944462L459.42828125,332.8125L463.88875,301.23355239629745L468.34921875000003,328.125L472.8096875,301.48026421666145L477.27015625000007,328.125L481.73062500000003,299.25986900925636L486.19109375,328.125L490.6515625,304.1940785944462L495.11203125000003,332.8125L499.57250000000005,300.98684281110764L504.03296875,328.125L508.49343749999997,300.2467095851898L512.95390625,328.125L517.4143750000001,307.6480261981487L521.87484375,332.8125L526.3353125,296.29934281110764L530.79578125,328.125L535.25625,295.8059214055538L539.71671875,328.125L544.1771875,288.4046047925949L548.63765625,328.125L553.0981250000001,298.0263166129589L557.5585937500001,332.8125L562.0190625,288.1578952074051L566.47953125,328.125L570.94,301.7269738018513L575.40046875,328.125L579.8609375,296.05263099074364L584.32140625,328.125L588.7818750000001,291.61184281110764L593.24234375,332.8125L597.7028125,298.51973578333855L602.1632812500001,328.125L606.62375,307.6480261981487L611.08421875,328.125L615.5446875,292.10526421666145L620.00515625,332.8125L624.465625,297.2861833870411L628.9260937500001,328.125L633.3865625000001,295.5592095851898L637.84703125,328.125L642.3075,293.5855261981487L646.76796875,328.125L651.2284374999999,295.0657904148102L655.6889062500001,332.8125L660.1493750000001,286.1842095851898L664.6098437500001,328.125L669.0703125,294.57236900925636L673.53078125,328.125L677.99125,291.85855239629745L682.4517187499999,328.125L686.9121875000001,292.3519738018513L691.3726562500001,332.8125L695.8331250000001,291.36513099074364L700.29359375,328.125L704.7540625,283.96381437778473L709.21453125,328.125L713.675,299.01315718889236L718.13546875,332.8125L722.5959375000001,287.91118562221527L727.05640625,328.125L731.516875,281.9901332259178L735.97734375,328.125L740.4378125000001,293.3388166129589L744.89828125,328.125L749.35875,286.6776332259178L753.8192187500001,332.8125L758.2796875,297.5328952074051L762.74015625,328.125L767.2006250000001,284.4572380185127L771.6610937500001,328.125L776.1215625,292.10526421666145L780.58203125,328.125L785.0425,298.0263166129589L789.50296875,332.8125L793.9634375,282.48355239629745L798.4239062500001,328.125L802.8843750000001,287.17105239629745L807.34484375,328.125L811.8053125,289.63815718889236L816.26578125,332.8125L820.72625,291.1184214055538L825.1867187500001,328.125L829.6471875000001,283.96381437778473L834.10765625,328.125L838.568125,282.9769715666771L843.02859375,328.125L847.4890625,283.96381437778473L851.94953125,332.8125L856.4100000000001,291.1184214055538L860.8704687500001,328.125L865.3309375,276.8092095851898L869.79140625,328.125L874.251875,289.63815718889236L878.7123437500001,328.125L883.1728125,285.9375L887.6332812500001,332.8125L892.0937500000001,281.0032904148102L896.55421875,328.125L901.0146875,280.5098667740822L905.47515625,328.125L909.935625,282.7302619814873L914.39609375,332.8125L918.8565625,282.9769715666771L923.3170312500001,328.125L927.7775,277.54934281110764L932.23796875,328.125L936.6984375000001,279.7697380185127L941.15890625,328.125L945.619375,286.43091917037964L950.07984375,332.8125L954.5403125000001,282.23684281110764L959.00078125,328.125L963.4612500000001,282.9769715666771L967.9217187500001,328.125L972.3821875,281.74341917037964L976.84265625,328.125L981.303125,280.5098667740822" style="fill: none;" fill="none"></path></g></g></g></g></g></g><g transform="translate(41, 375)" clip-path="url(#clip_1)"><clipPath id="clip_1"><rect width="1070" height="25"></rect></clipPath><g><g><line x1="0" y1="0" x2="0" y2="5" style="visibility: inherit;" fill="rgb(0, 0, 0)" stroke="rgb(204, 204, 204)" stroke-width="1px"></line><line x1="89.209375" y1="0" x2="89.209375" y2="5" style="visibility: inherit;" fill="rgb(0, 0, 0)" stroke="rgb(204, 204, 204)" stroke-width="1px"></line><line x1="178.41875" y1="0" x2="178.41875" y2="5" style="visibility: inherit;" fill="rgb(0, 0, 0)" stroke="rgb(204, 204, 204)" stroke-width="1px"></line><line x1="267.628125" y1="0" x2="267.628125" y2="5" style="visibility: inherit;" fill="rgb(0, 0, 0)" stroke="rgb(204, 204, 204)" stroke-width="1px"></line><line x1="356.8375" y1="0" x2="356.8375" y2="5" style="visibility: inherit;" fill="rgb(0, 0, 0)" stroke="rgb(204, 204, 204)" stroke-width="1px"></line><line x1="446.04687500000006" y1="0" x2="446.04687500000006" y2="5" style="visibility: inherit;" fill="rgb(0, 0, 0)" stroke="rgb(204, 204, 204)" stroke-width="1px"></line><line x1="535.25625" y1="0" x2="535.25625" y2="5" style="visibility: inherit;" fill="rgb(0, 0, 0)" stroke="rgb(204, 204, 204)" stroke-width="1px"></line><line x1="624.465625" y1="0" x2="624.465625" y2="5" style="visibility: inherit;" fill="rgb(0, 0, 0)" stroke="rgb(204, 204, 204)" stroke-width="1px"></line><line x1="713.675" y1="0" x2="713.675" y2="5" style="visibility: inherit;" fill="rgb(0, 0, 0)" stroke="rgb(204, 204, 204)" stroke-width="1px"></line><line x1="802.8843750000001" y1="0" x2="802.8843750000001" y2="5" style="visibility: inherit;" fill="rgb(0, 0, 0)" stroke="rgb(204, 204, 204)" stroke-width="1px"></line><line x1="892.0937500000001" y1="0" x2="892.0937500000001" y2="5" style="visibility: inherit;" fill="rgb(0, 0, 0)" stroke="rgb(204, 204, 204)" stroke-width="1px"></line><line x1="981.303125" y1="0" x2="981.303125" y2="5" style="visibility: inherit;" fill="rgb(0, 0, 0)" stroke="rgb(204, 204, 204)" stroke-width="1px"></line><line x1="1070.5125" y1="0" x2="1070.5125" y2="5" style="visibility: inherit;" fill="rgb(0, 0, 0)" stroke="rgb(204, 204, 204)" stroke-width="1px"></line></g><g transform="translate(0, 8)"><text x="0" y="0" dx="0em" dy="0.95em" style="text-anchor: middle; visibility: hidden; font-family: &quot;Helvetica Neue&quot;, sans-serif; font-size: 12px; font-weight: 200;" fill="rgb(33, 33, 33)" stroke="none" stroke-width="1px">-200k</text><text x="89.209375" y="0" dx="0em" dy="0.95em" style="text-anchor: middle; visibility: inherit; font-family: &quot;Helvetica Neue&quot;, sans-serif; font-size: 12px; font-weight: 200;" fill="rgb(33, 33, 33)" stroke="none" stroke-width="1px">0</text><text x="178.41875" y="0" dx="0em" dy="0.95em" style="text-anchor: middle; visibility: inherit; font-family: &quot;Helvetica Neue&quot;, sans-serif; font-size: 12px; font-weight: 200;" fill="rgb(33, 33, 33)" stroke="none" stroke-width="1px">200k</text><text x="267.628125" y="0" dx="0em" dy="0.95em" style="text-anchor: middle; visibility: inherit; font-family: &quot;Helvetica Neue&quot;, sans-serif; font-size: 12px; font-weight: 200;" fill="rgb(33, 33, 33)" stroke="none" stroke-width="1px">400k</text><text x="356.8375" y="0" dx="0em" dy="0.95em" style="text-anchor: middle; visibility: inherit; font-family: &quot;Helvetica Neue&quot;, sans-serif; font-size: 12px; font-weight: 200;" fill="rgb(33, 33, 33)" stroke="none" stroke-width="1px">600k</text><text x="446.04687500000006" y="0" dx="0em" dy="0.95em" style="text-anchor: middle; visibility: inherit; font-family: &quot;Helvetica Neue&quot;, sans-serif; font-size: 12px; font-weight: 200;" fill="rgb(33, 33, 33)" stroke="none" stroke-width="1px">800k</text><text x="535.25625" y="0" dx="0em" dy="0.95em" style="text-anchor: middle; visibility: inherit; font-family: &quot;Helvetica Neue&quot;, sans-serif; font-size: 12px; font-weight: 200;" fill="rgb(33, 33, 33)" stroke="none" stroke-width="1px">1M</text><text x="624.465625" y="0" dx="0em" dy="0.95em" style="text-anchor: middle; visibility: inherit; font-family: &quot;Helvetica Neue&quot;, sans-serif; font-size: 12px; font-weight: 200;" fill="rgb(33, 33, 33)" stroke="none" stroke-width="1px">1.2M</text><text x="713.675" y="0" dx="0em" dy="0.95em" style="text-anchor: middle; visibility: inherit; font-family: &quot;Helvetica Neue&quot;, sans-serif; font-size: 12px; font-weight: 200;" fill="rgb(33, 33, 33)" stroke="none" stroke-width="1px">1.4M</text><text x="802.8843750000001" y="0" dx="0em" dy="0.95em" style="text-anchor: middle; visibility: inherit; font-family: &quot;Helvetica Neue&quot;, sans-serif; font-size: 12px; font-weight: 200;" fill="rgb(33, 33, 33)" stroke="none" stroke-width="1px">1.6M</text><text x="892.0937500000001" y="0" dx="0em" dy="0.95em" style="text-anchor: middle; visibility: inherit; font-family: &quot;Helvetica Neue&quot;, sans-serif; font-size: 12px; font-weight: 200;" fill="rgb(33, 33, 33)" stroke="none" stroke-width="1px">1.8M</text><text x="981.303125" y="0" dx="0em" dy="0.95em" style="text-anchor: middle; visibility: inherit; font-family: &quot;Helvetica Neue&quot;, sans-serif; font-size: 12px; font-weight: 200;" fill="rgb(33, 33, 33)" stroke="none" stroke-width="1px">2M</text><text x="1070.5125" y="0" dx="0em" dy="0.95em" style="text-anchor: middle; visibility: hidden; font-family: &quot;Helvetica Neue&quot;, sans-serif; font-size: 12px; font-weight: 200;" fill="rgb(33, 33, 33)" stroke="none" stroke-width="1px">2.2M</text></g><line x1="0" y1="0" x2="1070.5125" y2="0" fill="rgb(0, 0, 0)" stroke="rgb(204, 204, 204)" stroke-width="1px"></line></g></g></g></g></svg>