<svg viewBox="0 0 1112.2000732421875 400" xmlns="http://www.w3.org/2000/svg"><g><g><g><g><g><line x1="73.375" y1="375" x2="68.375" y2="375" style="visibility: inherit;" fill="rgb(0, 0, 0)" stroke="rgb(204, 204, 204)" stroke-width="1px"></line><line x1="73.375" y1="346.15384615384613" x2="68.375" y2="346.15384615384613" style="visibility: inherit;" fill="rgb(0, 0, 0)" stroke="rgb(204, 204, 204)" stroke-width="1px"></line><line x1="73.375" y1="317.3076923076923" x2="68.375" y2="317.3076923076923" style="visibility: inherit;" fill="rgb(0, 0, 0)" stroke="rgb(204, 204, 204)" stroke-width="1px"></line><line x1="73.375" y1="288.46153846153845" x2="68.375" y2="288.46153846153845" style="visibility: inherit;" fill="rgb(0, 0, 0)" stroke="rgb(204, 204, 204)" stroke-width="1px"></line><line x1="73.375" y1="259.61538461538464" x2="68.375" y2="259.61538461538464" style="visibility: inherit;" fill="rgb(0, 0, 0)" stroke="rgb(204, 204, 204)" stroke-width="1px"></line><line x1="73.375" y1="230.76923076923077" x2="68.375" y2="230.76923076923077" style="visibility: inherit;" fill="rgb(0, 0, 0)" stroke="rgb(204, 204, 204)" stroke-width="1px"></line><line x1="73.375" y1="201.9230769230769" x2="68.375" y2="201.9230769230769" style="visibility: inherit;" fill="rgb(0, 0, 0)" stroke="rgb(204, 204, 204)" stroke-width="1px"></line><line x1="73.375" y1="173.0769230769231" x2="68.375" y2="173.0769230769231" style="visibility: inherit;" fill="rgb(0, 0, 0)" stroke="rgb(204, 204, 204)" stroke-width="1px"></line><line x1="73.375" y1="144.23076923076923" x2="68.375" y2="144.23076923076923" style="visibility: inherit;" fill="rgb(0, 0, 0)" stroke="rgb(204, 204, 204)" stroke-width="1px"></line><line x1="73.375" y1="115.38461538461542" x2="68.375" y2="115.38461538461542" style="visibility: inherit;" fill="rgb(0, 0, 0)" stroke="rgb(204, 204, 204)" stroke-width="1px"></line><line x1="73.375" y1="86.53846153846155" x2="68.375" y2="86.53846153846155" style="visibility: inherit;" fill="rgb(0, 0, 0)" stroke="rgb(204, 204, 204)" stroke-width="1px"></line><line x1="73.375" y1="57.69230769230768" x2="68.375" y2="57.69230769230768" style="visibility: inherit;" fill="rgb(0, 0, 0)" stroke="rgb(204, 204, 204)" stroke-width="1px"></line><line x1="73.375" y1="28.84615384615381" x2="68.375" y2="28.84615384615381" style="visibility: inherit;" fill="rgb(0, 0, 0)" stroke="rgb(204, 204, 204)" stroke-width="1px"></line><line x1="73.375" y1="0" x2="68.375" y2="0" style="visibility: inherit;" fill="rgb(0, 0, 0)" stroke="rgb(204, 204, 204)" stroke-width="1px"></line></g><g transform="translate(63.375, 0)"><text x="0" y="375" dx="0em" dy="0.3em" style="text-anchor: end; visibility: hidden; font-family: &quot;Helvetica Neue&quot;, sans-serif; font-size: 12px; font-weight: 200;" fill="rgb(33, 33, 33)" stroke="none" stroke-width="1px">-1e+3</text><text x="0" y="346.15384615384613" dx="0em" dy="0.3em" style="text-anchor: end; visibility: inherit; font-family: &quot;Helvetica Neue&quot;, sans-serif; font-size: 12px; font-weight: 200;" fill="rgb(33, 33, 33)" stroke="none" stroke-width="1px">0</text><text x="0" y="317.3076923076923" dx="0em" dy="0.3em" style="text-anchor: end; visibility: inherit; font-family: &quot;Helvetica Neue&quot;, sans-serif; font-size: 12px; font-weight: 200;" fill="rgb(33, 33, 33)" stroke="none" stroke-width="1px">1e+3</text><text x="0" y="288.46153846153845" dx="0em" dy="0.3em" style="text-anchor: end; visibility: inherit; font-family: &quot;Helvetica Neue&quot;, sans-serif; font-size: 12px; font-weight: 200;" fill="rgb(33, 33, 33)" stroke="none" stroke-width="1px">2e+3</text><text x="0" y="259.61538461538464" dx="0em" dy="0.3em" style="text-anchor: end; visibility: inherit; font-family: &quot;Helvetica Neue&quot;, sans-serif; font-size: 12px; font-weight: 200;" fill="rgb(33, 33, 33)" stroke="none" stroke-width="1px">3e+3</text><text x="0" y="230.76923076923077" dx="0em" dy="0.3em" style="text-anchor: end; visibility: inherit; font-family: &quot;Helvetica Neue&quot;, sans-serif; font-size: 12px; font-weight: 200;" fill="rgb(33, 33, 33)" stroke="none" stroke-width="1px">4e+3</text><text x="0" y="201.9230769230769" dx="0em" dy="0.3em" style="text-anchor: end; visibility: inherit; font-family: &quot;Helvetica Neue&quot;, sans-serif; font-size: 12px; font-weight: 200;" fill="rgb(33, 33, 33)" stroke="none" stroke-width="1px">5e+3</text><text x="0" y="173.0769230769231" dx="0em" dy="0.3em" style="text-anchor: end; visibility: inherit; font-family: &quot;Helvetica Neue&quot;, sans-serif; font-size: 12px; font-weight: 200;" fill="rgb(33, 33, 33)" stroke="none" stroke-width="1px">6e+3</text><text x="0" y="144.23076923076923" dx="0em" dy="0.3em" style="text-anchor: end; visibility: inherit; font-family: &quot;Helvetica Neue&quot;, sans-serif; font-size: 12px; font-weight: 200;" fill="rgb(33, 33, 33)" stroke="none" stroke-width="1px">7e+3</text><text x="0" y="115.38461538461542" dx="0em" dy="0.3em" style="text-anchor: end; visibility: inherit; font-family: &quot;Helvetica Neue&quot;, sans-serif; font-size: 12px; font-weight: 200;" fill="rgb(33, 33, 33)" stroke="none" stroke-width="1px">8e+3</text><text x="0" y="86.53846153846155" dx="0em" dy="0.3em" style="text-anchor: end; visibility: inherit; font-family: &quot;Helvetica Neue&quot;, sans-serif; font-size: 12px; font-weight: 200;" fill="rgb(33, 33, 33)" stroke="none" stroke-width="1px">9e+3</text><text x="0" y="57.69230769230768" dx="0em" dy="0.3em" style="text-anchor: end; visibility: inherit; font-family: &quot;Helvetica Neue&quot;, sans-serif; font-size: 12px; font-weight: 200;" fill="rgb(33, 33, 33)" stroke="none" stroke-width="1px">1e+4</text><text x="0" y="28.84615384615381" dx="0em" dy="0.3em" style="text-anchor: end; visibility: inherit; font-family: &quot;Helvetica Neue&quot;, sans-serif; font-size: 12px; font-weight: 200;" fill="rgb(33, 33, 33)" stroke="none" stroke-width="1px">1.1e+4</text><text x="0" y="0" dx="0em" dy="0.3em" style="text-anchor: end; visibility: hidden; font-family: &quot;Helvetica Neue&quot;, sans-serif; font-size: 12px; font-weight: 200;" fill="rgb(33, 33, 33)" stroke="none" stroke-width="1px">1.2e+4</text></g><line x1="73.375" y1="0" x2="73.375" y2="375" fill="rgb(0, 0, 0)" stroke="rgb(204, 204, 204)" stroke-width="1px"></line></g></g><g transform="translate(73, 0)" clip-path="url(#clip_0)"><clipPath id="clip_0"><rect width="1038" height="375"></rect></clipPath><g><g><g><line x1="0" y1="0" x2="0" y2="375" fill="rgb(0, 0, 0)" stroke="rgb(66, 66, 66)" stroke-width="1px" opacity="0.25"></line><line x1="86.56875" y1="0" x2="86.56875" y2="375" fill="rgb(0, 0, 0)" stroke="rgb(66, 66, 66)" stroke-width="1px" opacity="0.25"></line><line x1="173.1375" y1="0" x2="173.1375" y2="375" fill="rgb(0, 0, 0)" stroke="rgb(66, 66, 66)" stroke-width="1px" opacity="0.25"></line><line x1="259.70625" y1="0" x2="259.70625" y2="375" fill="rgb(0, 0, 0)" stroke="rgb(66, 66, 66)" stroke-width="1px" opacity="0.25"></line><line x1="346.275" y1="0" x2="346.275" y2="375" fill="rgb(0, 0, 0)" stroke="rgb(66, 66, 66)" stroke-width="1px" opacity="0.25"></line><line x1="432.84375000000006" y1="0" x2="432.84375000000006" y2="375" fill="rgb(0, 0, 0)" stroke="rgb(66, 66, 66)" stroke-width="1px" opacity="0.25"></line><line x1="519.4125" y1="0" x2="519.4125" y2="375" fill="rgb(0, 0, 0)" stroke="rgb(66, 66, 66)" stroke-width="1px" opacity="0.25"></line><line x1="605.98125" y1="0" x2="605.98125" y2="375" fill="rgb(0, 0, 0)" stroke="rgb(66, 66, 66)" stroke-width="1px" opacity="0.25"></line><line x1="692.55" y1="0" x2="692.55" y2="375" fill="rgb(0, 0, 0)" stroke="rgb(66, 66, 66)" stroke-width="1px" opacity="0.25"></line><line x1="779.1187500000001" y1="0" x2="779.1187500000001" y2="375" fill="rgb(0, 0, 0)" stroke="rgb(66, 66, 66)" stroke-width="1px" opacity="0.25"></line><line x1="865.6875000000001" y1="0" x2="865.6875000000001" y2="375" fill="rgb(0, 0, 0)" stroke="rgb(66, 66, 66)" stroke-width="1px" opacity="0.25"></line><line x1="952.25625" y1="0" x2="952.25625" y2="375" fill="rgb(0, 0, 0)" stroke="rgb(66, 66, 66)" stroke-width="1px" opacity="0.25"></line><line x1="1038.825" y1="0" x2="1038.825" y2="375" fill="rgb(0, 0, 0)" stroke="rgb(66, 66, 66)" stroke-width="1px" opacity="0.25"></line></g><g><line x1="0" y1="375" x2="1038.825" y2="375" fill="rgb(0, 0, 0)" stroke="rgb(66, 66, 66)" stroke-width="1px" opacity="0.25"></line><line x1="0" y1="346.15384615384613" x2="1038.825" y2="346.15384615384613" fill="rgb(0, 0, 0)" stroke="rgb(66, 66, 66)" stroke-width="1px" opacity="0.25"></line><line x1="0" y1="317.3076923076923" x2="1038.825" y2="317.3076923076923" fill="rgb(0, 0, 0)" stroke="rgb(66, 66, 66)" stroke-width="1px" opacity="0.25"></line><line x1="0" y1="288.46153846153845" x2="1038.825" y2="288.46153846153845" fill="rgb(0, 0, 0)" stroke="rgb(66, 66, 66)" stroke-width="1px" opacity="0.25"></line><line x1="0" y1="259.61538461538464" x2="1038.825" y2="259.61538461538464" fill="rgb(0, 0, 0)" stroke="rgb(66, 66, 66)" stroke-width="1px" opacity="0.25"></line><line x1="0" y1="230.76923076923077" x2="1038.825" y2="230.76923076923077" fill="rgb(0, 0, 0)" stroke="rgb(66, 66, 66)" stroke-width="1px" opacity="0.25"></line><line x1="0" y1="201.9230769230769" x2="1038.825" y2="201.9230769230769" fill="rgb(0, 0, 0)" stroke="rgb(66, 66, 66)" stroke-width="1px" opacity="0.25"></line><line x1="0" y1="173.0769230769231" x2="1038.825" y2="173.0769230769231" fill="rgb(0, 0, 0)" stroke="rgb(66, 66, 66)" stroke-width="1px" opacity="0.25"></line><line x1="0" y1="144.23076923076923" x2="1038.825" y2="144.23076923076923" fill="rgb(0, 0, 0)" stroke="rgb(66, 66, 66)" stroke-width="1px" opacity="0.25"></line><line x1="0" y1="115.38461538461542" x2="1038.825" y2="115.38461538461542" fill="rgb(0, 0, 0)" stroke="rgb(66, 66, 66)" stroke-width="1px" opacity="0.25"></line><line x1="0" y1="86.53846153846155" x2="1038.825" y2="86.53846153846155" fill="rgb(0, 0, 0)" stroke="rgb(66, 66, 66)" stroke-width="1px" opacity="0.25"></line><line x1="0" y1="57.69230769230768" x2="1038.825" y2="57.69230769230768" fill="rgb(0, 0, 0)" stroke="rgb(66, 66, 66)" stroke-width="1px" opacity="0.25"></line><line x1="0" y1="28.84615384615381" x2="1038.825" y2="28.84615384615381" fill="rgb(0, 0, 0)" stroke="rgb(66, 66, 66)" stroke-width="1px" opacity="0.25"></line><line x1="0" y1="0" x2="1038.825" y2="0" fill="rgb(0, 0, 0)" stroke="rgb(66, 66, 66)" stroke-width="1px" opacity="0.25"></line></g></g></g><g><g><line x1="0" y1="346.15384615384613" x2="1038.825" y2="346.15384615384613" fill="rgb(0, 0, 0)" stroke="rgb(153, 153, 153)" stroke-width="1.5px"></line></g></g><g><g><line x1="86.56875" y1="0" x2="86.56875" y2="375" fill="rgb(0, 0, 0)" stroke="rgb(153, 153, 153)" stroke-width="1.5px"></line></g></g><g><g><g><g><g><path stroke="rgb(0, 153, 136)" stroke-width="2px" d="M90.8971875,346.15384615384613L95.225625,346.15384615384613L99.55406250000001,346.15384615384613L103.88250000000001,346.15384615384613L108.21093750000001,346.15384615384613L112.539375,346.15384615384613L116.86781250000001,346.15384615384613L121.19625,346.15384615384613L125.52468750000001,346.15384615384613L129.853125,346.15384615384613L134.1815625,346.1372758683962L138.51,346.11053337004375L142.83843750000003,346.0830201106852L147.166875,345.9889966021797L151.4953125,345.91436846408897L155.82375,345.8627104651729L160.15218750000003,345.7537941493682L164.480625,345.59845554282794L168.8090625,345.26599869541883L173.1375,344.95581472883197L177.46593750000002,344.6209428716401L181.794375,344.13889911707355L186.1228125,343.6042247119931L190.45125,343.0369709551248L194.77968750000002,342.58143508233104L199.10812500000003,342.2280223446427L203.4365625,341.67405316955194L207.76500000000001,340.9519782350669L212.0934375,340.4006057565412L216.42187500000003,339.8559842719127L220.7503125,339.3320271585508L225.07875,338.57907272555997L229.4071875,337.95912862660765L233.73562500000003,337.49845058177414L238.0640625,337.0099687697289L242.3925,336.36140141714264L246.7209375,335.8225584281812L251.04937500000003,334.988952118462L255.3778125,334.0443248157675L259.70625,333.18484090311574L264.0346875,332.3670703628277L268.363125,331.30036078345825L272.69156250000003,330.35431755468613L277.02,329.50494756577064L281.3484375,328.75937985058914L285.67687500000005,328.10004651195754L290.0053125,327.61498648313085L294.33375,327.1278977868553L298.6621875,326.57910623002937L302.990625,325.82726483328236L307.31906250000003,325.13657212409305L311.6475,324.49472083711186L315.9759375,323.82815046739694L320.30437500000005,323.05835590854514L324.6328125,322.17520884584786L328.96125,321.40873312173204L333.2896875,320.5276404177356L337.618125,319.6195613416545L341.9465625,318.8046815474068L346.275,317.55292480092135L350.60343750000004,316.46486141330854L354.93187500000005,315.47812421483786L359.2603125,314.65851658129225L363.58875,313.7994871484352L367.9171875,312.872094083343L372.245625,312.0012973914354L376.5740625,311.1490482776062L380.9025,310.3412512684536L385.23093750000004,309.3026960736343L389.55937500000005,308.0883304080412L393.8878125,306.9025178687313L398.21625000000006,305.4925912530524L402.5446875,304.2846399471779L406.873125,302.8829902042262L411.2015625,301.7515997825699L415.53000000000003,300.3918460346415L419.85843750000004,299.1435142339046L424.186875,297.64543146463313L428.5153125,296.3389499612233L432.84375000000006,295.0301754106126L437.1721875,293.9013228099384L441.500625,292.4332361270442L445.8290625,291.11235104725574L450.1575,289.7726799136359L454.48593750000003,288.251029251156L458.814375,286.44088710646554L463.14281250000005,284.7983658496714L467.47125000000005,283.2266307686389L471.7996875,281.4898950227106L476.128125,279.38725463444246L480.4565625,277.46476350333523L484.785,275.3460539931799L489.11343750000003,273.58946222947066L493.441875,271.55146365850385L497.77031250000005,269.99869735076777L502.09875000000005,268.15280904474065L506.4271875,266.2298868756175L510.755625,264.39116536062267L515.0840625000001,262.6155544351485L519.4125,260.9889128107415L523.7409375,258.94343029907975L528.069375,256.66066604743804L532.3978125,255.02782728336416L536.72625,253.42361931917165L541.0546875000001,251.81515305087493L545.3831250000001,250.1600893538762L549.7115625,248.34979242543398L554.04,246.17963689595905L558.3684375,243.74826254629096L562.696875,241.06727067000025L567.0253124999999,238.56697227549938L571.3537500000001,236.11258083853411L575.6821875,233.89542311597572L580.010625,231.56134383186588L584.3390625000001,229.14939490884805L588.6675,226.72221583319234L592.9959375,224.66477756228454L597.324375,222.42956461874644L601.6528125000001,220.47996299900404L605.98125,218.3554624809989L610.3096875,216.41394473727678L614.6381250000001,214.60767410006665L618.9665625,212.6763041140951L623.295,210.8213630158556L627.6234375,208.98625543758385L631.951875,206.5149921158644L636.2803125,203.59499646587392L640.6087500000001,200.80387973545288L644.9371875,198.4222505947069L649.265625,196.32706542581587L653.5940625000001,194.1234390755031L657.9225,191.69882224927488L662.2509375,189.60450366460884L666.579375,187.35195699916213L670.9078125000001,185.45207292094287L675.23625,183.49572736883286L679.5646875,181.10328312592293L683.893125,178.49584571648475L688.2215625,176.09053426773482L692.55,173.27180994249707L696.8784375,171.10388977748264L701.2068750000001,169.04207700303098L705.5353125,166.79866104949156L709.8637500000001,164.31094811271223L714.1921875,161.74345284330732L718.520625,158.63200500231494L722.8490625,155.5959899425868L727.1775,152.24398508215356L731.5059375000001,149.16896907354536L735.834375,145.9686687796015L740.1628125000001,143.06998578226566L744.49125,140.25909042999166L748.8196875,137.9421510146264L753.148125,135.370460708823L757.4765625,132.94881037106916L761.805,130.23537131199947L766.1334375000001,127.3248294575123L770.4618750000001,124.57803097266162L774.7903125,122.35571944130828L779.1187500000001,119.88656533416989L783.4471875,117.28659644185109L787.775625,113.99019165904434L792.1040624999999,110.93860171387149L796.4325000000001,107.6428983070403L800.7609375000001,104.40490597513491L805.089375,101.48838679860847L809.4178125000001,98.5840229668002L813.74625,94.9728082933724L818.0746875,91.7813029489821L822.403125,88.64078037157378L826.7315625,85.5867680500042L831.0600000000001,82.49838249987567L835.3884375000001,79.28431126742305L839.7168750000001,75.9264982899195L844.0453125,72.42475724915244L848.37375,68.91085742953305L852.7021875,65.58176305657327L857.030625,62.03735171663425L861.3590625,58.573971674135066L865.6875000000001,55.545413466289574L870.0159375000001,52.33540420486406L874.344375,49.068028664349356L878.6728125000001,45.03977801246299L883.00125,41.17798797432994L887.3296875,37.23240051764873L891.658125,33.147019381962934L895.9865625000001,28.683860766665873L900.315,24.393502122258496L904.6434375,20.363972044447223L908.9718750000001,16.353019849358986L913.3003125,12.100788517522403L917.62875,7.52335924619257L921.9571875,3.0248872580086186L926.2856250000001,-1.2928255565233826" style="fill: none;" fill="none"></path></g><g><path stroke="rgb(238, 51, 119)" stroke-width="2px" d="M90.8971875,346.15384615384613L95.225625,346.15384615384613L99.55406250000001,346.15384615384613L103.88250000000001,346.15384615384613L108.21093750000001,346.15384615384613L112.539375,346.15384615384613L116.86781250000001,346.15384615384613L121.19625,346.15384615384613L125.52468750000001,346.15384615384613L129.853125,346.15384615384613L134.1815625,346.15384615384613L138.51,346.15384615384613L142.83843750000003,346.15384615384613L147.166875,346.15384615384613L151.4953125,346.1208502360483L155.82375,346.0674545670554L160.15218750000003,345.99044376960353L164.480625,345.9208030662368L168.8090625,345.85022412895523L173.1375,345.75708045992974L177.46593750000002,345.4906023235986L181.794375,345.1388178757877L186.1228125,344.8441350366332L190.45125,344.4309289116732L194.77968750000002,343.99930962875146L199.10812500000003,343.57827296788633L203.4365625,343.1253200837061L207.76500000000001,342.50973568840004L212.0934375,341.6725881293374L216.42187500000003,340.8741392946223L220.7503125,340.2864814415516L225.07875,339.7743511325594L229.4071875,339.2155540456323L233.73562500000003,338.5729182857187L238.0640625,337.99928062026544L242.3925,337.3034969895902L246.7209375,336.647504046767L251.04937500000003,335.84029537976403L255.3778125,334.977950525901L259.70625,333.9056302166983L264.0346875,332.57694567723337L268.363125,331.22145629486835L272.69156250000003,330.0362112529081L277.02,328.83545322626856L281.3484375,327.6745493927233L285.67687500000005,326.5163345353311L290.0053125,325.28834665409414L294.33375,324.1270731172294L298.6621875,322.8971919133348L302.990625,321.5369194866097L307.31906250000003,320.3267329698749L311.6475,319.0995457852576L315.9759375,317.73544576413894L320.30437500000005,316.27560631260917L324.6328125,314.84442723057697L328.96125,313.43098891726254L333.2896875,312.11645521670687L337.618125,310.69828770221727L341.9465625,309.3643410492103L346.275,308.06054634022996L350.60343750000004,306.4511993384482L354.93187500000005,304.5757827751146L359.2603125,302.9148374224112L363.58875,301.30971705678013L367.9171875,299.5193446658392L372.245625,298.09787819430824L376.5740625,296.63000487150754L380.9025,295.06746340007857L385.23093750000004,293.1825531138794L389.55937500000005,291.3728561467221L393.8878125,289.5987258394364L398.21625000000006,287.94552475614955L402.5446875,286.2847509779027L406.873125,284.45443393224485L411.2015625,282.5906071040596L415.53000000000003,280.34335502818215L419.85843750000004,278.15000791629086L424.186875,275.96804720787634L428.5153125,274.06239910629085L432.84375000000006,272.4047212006402L437.1721875,270.84558492319627L441.500625,269.2155612982277L445.8290625,267.6515622512953L450.1575,266.0734804950903L454.48593750000003,264.25588346492236L458.814375,262.2790360955562L463.14281250000005,260.2860406508416L467.47125000000005,258.51384762440944L471.7996875,256.45520148720175L476.128125,254.37310625903942L480.4565625,252.33144796665312L484.785,250.32581052212748L489.11343750000003,248.47984979012L493.441875,246.2491520200843L497.77031250000005,244.02209048504753L502.09875000000005,242.06104901024443L506.4271875,240.05036145272592L510.755625,237.84408720077582L515.0840625000001,235.78051401574177L519.4125,233.46457086805185L523.7409375,231.31662705963177L528.069375,229.15178061145053L532.3978125,227.09187046771865L536.72625,224.96503128105633L541.0546875000001,222.84621974758926L545.3831250000001,220.7543581006808L549.7115625,218.58576016432144L554.04,216.42461438786881L558.3684375,214.17466322916775L562.696875,211.6938953850087L567.0253124999999,209.20213662793574L571.3537500000001,206.83545911115377L575.6821875,204.34837995903496L580.010625,202.07252219464266L584.3390625000001,199.60868931540688L588.6675,197.3032594554676L592.9959375,194.683741641396L597.324375,192.06763030679335L601.6528125000001,189.61848335221276L605.98125,187.26169696425046L610.3096875,184.8137115747172L614.6381250000001,182.38620669551918L618.9665625,179.8889513676033L623.295,177.3375301273157L627.6234375,174.91194076419302L631.951875,172.47631825611242L636.2803125,169.7597256159182L640.6087500000001,166.88020284856105L644.9371875,164.1745859478747L649.265625,161.46671293250364L653.5940625000001,158.77942415137358L657.9225,156.2037904727772L662.2509375,153.65880495649523L666.579375,151.13279065268594L670.9078125000001,148.42069260632027L675.23625,145.6923221848507L679.5646875,142.92640320165333L683.893125,140.01634742797728L688.2215625,137.10499405791793L692.55,133.98402016800506L696.8784375,130.93661329168742L701.2068750000001,127.69295593524686L705.5353125,124.68500703161007L709.8637500000001,121.64711550641277L714.1921875,118.6016798830849L718.520625,115.3977090783988L722.8490625,112.2659559579904L727.1775,109.06900173799602L731.5059375000001,105.99654380658876L735.834375,103.14402407781688L740.1628125000001,100.28477109647633L744.49125,97.26748484718041L748.8196875,93.97103465886624L753.148125,90.9743685307613L757.4765625,87.93796585131048L761.805,84.70112009273038L766.1334375000001,81.61495968355399L770.4618750000001,78.62207350565836L774.7903125,75.67043850000255L779.1187500000001,72.27175143150151L783.4471875,68.88758432840717L787.775625,65.413491622361L792.1040624999999,61.98814362193377L796.4325000000001,58.46108397890009L800.7609375000001,55.002949444477565L805.089375,51.433614167670044L809.4178125000001,48.08119563132624L813.74625,44.874038941944775L818.0746875,41.43807818198695L822.403125,37.78355501003449L826.7315625,34.40038593582676L831.0600000000001,31.03131966350753L835.3884375000001,27.63801187171117L839.7168750000001,24.152765887050748L844.0453125,20.50070631485363L848.37375,17.108071824279023L852.7021875,13.903497420767167L857.030625,10.584534134224043L861.3590625,7.2881823983154845L865.6875000000001,4.401481058403476L870.0159375000001,1.257300428997894L874.344375,-2.013288726757935" style="fill: none;" fill="none"></path></g><g><path stroke="rgb(51, 187, 238)" stroke-width="2px" d="M90.8971875,346.15384615384613L95.225625,346.15384615384613L99.55406250000001,346.15384615384613L103.88250000000001,346.15384615384613L108.21093750000001,346.15384615384613L112.539375,346.15384615384613L116.86781250000001,346.15384615384613L121.19625,346.15384615384613L125.52468750000001,346.15384615384613L129.853125,346.15384615384613L134.1815625,346.15384615384613L138.51,346.14282088114606L142.83843750000003,346.1360177999116L147.166875,346.1318149223047L151.4953125,346.1237171671072L155.82375,346.10221516804273L160.15218750000003,346.072421275085L164.480625,346.03749562926856L168.8090625,346.015880489777L173.1375,345.9915110533746L177.46593750000002,345.85552806256845L181.794375,345.6614514142509L186.1228125,345.40393906746164L190.45125,345.0522078377049L194.77968750000002,344.7850313416774L199.10812500000003,344.58118361839746L203.4365625,344.3835646904605L207.76500000000001,344.18980125854915L212.0934375,343.93797713450397L216.42187500000003,343.62823267178703L220.7503125,343.35407304363054L225.07875,343.1239211643349L229.4071875,342.8605629347706L233.73562500000003,342.6535826702759L238.0640625,342.42654843051L242.3925,342.0442257740638L246.7209375,341.7691017102878L251.04937500000003,341.4394393392812L255.3778125,341.10898891007014L259.70625,340.6681468255904L264.0346875,340.1864482682688L268.363125,339.613517246268L272.69156250000003,338.9841133285916L277.02,338.48460845774935L281.3484375,337.9830832120579L285.67687500000005,337.24950927730265L290.0053125,336.5976000886986L294.33375,335.7654433009748L298.6621875,334.9151315186353L302.990625,334.2294279484704L307.31906250000003,333.66210243855124L311.6475,333.1240914094553L315.9759375,332.53828373629364L320.30437500000005,331.85694763276194L324.6328125,331.14945058467714L328.96125,330.39278875806735L333.2896875,329.56173239508877L337.618125,328.7395777371746L341.9465625,327.7855534270029L346.275,326.85980564823757L350.60343750000004,325.94057065779737L354.93187500000005,325.0253670833303L359.2603125,324.195086839966L363.58875,323.5272779847082L367.9171875,322.9545437263805L372.245625,322.12193948970645L376.5740625,321.3922449672052L380.9025,320.5284246347L385.23093750000004,319.74643619503314L389.55937500000005,318.751332466264L393.8878125,317.70673825815584L398.21625000000006,316.67547098179847L402.5446875,315.3831886531179L406.873125,314.1161745455107L411.2015625,312.89227742828655L415.53000000000003,311.6620985742632L419.85843750000004,310.5159544020843L424.186875,309.22400077489016L428.5153125,307.9516949411955L432.84375000000006,306.5157049378308L437.1721875,304.983889625748L441.500625,303.3927584475688L445.8290625,301.9462520944297L450.1575,300.4793646618366L454.48593750000003,299.2416498025999L458.814375,298.11282161242474L463.14281250000005,296.97995677039864L467.47125000000005,295.7236990101075L471.7996875,294.3580898795642L476.128125,292.99073455852715L480.4565625,291.49041373018986L484.785,289.94075840667983L489.11343750000003,288.61334387681177L493.441875,287.2146790905157L497.77031250000005,285.8873094339523L502.09875000000005,284.5381291550011L506.4271875,283.279856754638L510.755625,282.12181786958246L515.0840625000001,280.90492929973306L519.4125,279.60765123653476L523.7409375,278.15620342310734L528.069375,276.4994206881342L532.3978125,275.17713179057046L536.72625,273.89703880913237L541.0546875000001,272.6155891382375L545.3831250000001,271.10250159964596L549.7115625,269.5504388747962L554.04,267.97425050965273L558.3684375,266.44357548855197L562.696875,264.87513091972136L567.0253124999999,263.3327637316152L571.3537500000001,262.01535574986985L575.6821875,260.72729367070787L580.010625,259.32551208986047L584.3390625000001,257.79838621439285L588.6675,256.22664337440153L592.9959375,254.82510955644682L597.324375,253.3860601231329L601.6528125000001,252.02270198545003L605.98125,250.64025445207045L610.3096875,249.24049539044702L614.6381250000001,247.61021280053285L618.9665625,245.7493130696837L623.295,243.92150748244188L627.6234375,241.86140832393923L631.951875,239.9212886755953L636.2803125,237.86310461327042L640.6087500000001,235.8747136786913L644.9371875,233.93501988249454L649.265625,231.95952730726412L653.5940625000001,229.8739522108888L657.9225,227.80815911084787L662.2509375,225.79307741269173L666.579375,223.35878030307157L670.9078125000001,221.02217635375519L675.23625,218.74604447066676L679.5646875,216.4139265273427L683.893125,214.02517244350204L688.2215625,211.72225481945085L692.55,209.549402656317L696.8784375,207.51201293656788L701.2068750000001,205.6244167769663L705.5353125,203.63721110032674L709.8637500000001,201.63230867110224L714.1921875,199.72086060587384L718.520625,197.8562704073436L722.8490625,195.6689929206072L727.1775,193.62267392554818L731.5059375000001,191.7295505445297L735.834375,189.55758217167926L740.1628125000001,187.20751355657714L744.49125,184.75819127613664L748.8196875,182.26391655377472L753.148125,179.82973934678654L757.4765625,177.6910365402763L761.805,175.7242420030464L766.1334375000001,173.54513753065496L770.4618750000001,171.19065166993698L774.7903125,169.15622972984485L779.1187500000001,167.30893697200474L783.4471875,165.2642512164402L787.775625,163.4270907337457L792.1040624999999,161.20733551034243L796.4325000000001,159.15739837320965L800.7609375000001,157.003761323786L805.089375,154.61008787480816L809.4178125000001,152.13926939450621L813.74625,149.6097077551994L818.0746875,147.20314467739146L822.403125,144.87271770915146L826.7315625,142.4355536081186L831.0600000000001,139.87736729881001L835.3884375000001,137.45308555027108L839.7168750000001,134.979806109464L844.0453125,132.39376921252745L848.37375,129.9247719887083L852.7021875,127.52272713024121L857.030625,125.05222193977315L861.3590625,122.68770999610419L865.6875000000001,120.26791364143463L870.0159375000001,117.77542989020185L874.344375,115.19399110203489L878.6728125000001,112.519022799852L883.00125,110.0279481900314L887.3296875,107.68367492962949L891.658125,105.36432939682527L895.9865625000001,102.78015931971174L900.315,100.13097631120922L904.6434375,97.45254068279235L908.9718750000001,94.70104575957151L913.3003125,91.99225020979014L917.62875,89.47474134139856L921.9571875,86.73493700571032L926.2856250000001,84.24219523730392L930.6140625,81.54519769804494L934.9425000000001,78.83166968278215L939.2709375000001,76.21231795671906L943.599375,73.55234789213216L947.9278125000001,70.99911969138367L952.25625,68.34710893512039" style="fill: none;" fill="none"></path></g><g><path stroke="rgb(204, 51, 17)" stroke-width="2px" d="M90.8971875,346.15384615384613L95.225625,346.15384615384613L99.55406250000001,346.15384615384613L103.88250000000001,346.15384615384613L108.21093750000001,346.15384615384613L112.539375,346.15384615384613L116.86781250000001,346.15384615384613L121.19625,346.15384615384613L125.52468750000001,346.15384615384613L129.853125,346.15384615384613L134.1815625,346.15384615384613L138.51,346.15384615384613L142.83843750000003,346.1428341995938L147.166875,346.1360311210563L151.4953125,346.1318251072548L155.82375,346.1292235327794L160.15218750000003,346.08363971986864L164.480625,345.95650035518315L168.8090625,345.8008738798532L173.1375,345.5286935215521L177.46593750000002,345.2777939664484L181.794375,344.9631289343031L186.1228125,344.55404038501484L190.45125,344.0865040090677L194.77968750000002,343.53333101446947L199.10812500000003,342.7842732548223L203.4365625,342.1777329350244L207.76500000000001,341.49455414399756L212.0934375,340.49467137449824L216.42187500000003,339.5405375818375L220.7503125,338.7081405498516L225.07875,337.7862426475438L229.4071875,336.9408283166554L233.73562500000003,336.076814964252L238.0640625,335.13534649160266L242.3925,334.18989483296014L246.7209375,333.3079198843038L251.04937500000003,332.3003812423056L255.3778125,331.4678975211925L259.70625,330.337128560358L264.0346875,329.03271142125936L268.363125,327.67575798272554L272.69156250000003,326.4896066899984L277.02,325.14541269403713L281.3484375,323.86824603399214L285.67687500000005,322.7095019870456L290.0053125,321.6350519221149L294.33375,320.59079906276133L298.6621875,319.31795461977026L302.990625,317.76073698650106L307.31906250000003,316.0769490792195L311.6475,314.46867955693625L315.9759375,312.56645399188005L320.30437500000005,310.5701927132702L324.6328125,308.5541896741226L328.96125,306.9545914852015L333.2896875,305.27754116779903L337.618125,303.2997691367121L341.9465625,301.27323017254685L346.275,299.2604660152674L350.60343750000004,297.54197846345016L354.93187500000005,295.8517827457986L359.2603125,294.17909967349533L363.58875,292.6491415440474L367.9171875,290.8613330388422L372.245625,289.22164592027406L376.5740625,287.9319199784958L380.9025,286.46316615899656L385.23093750000004,284.98250754472656L389.55937500000005,283.34061447787803L393.8878125,281.63188843872956L398.21625000000006,280.2005139435736L402.5446875,278.9353248618413L406.873125,277.59715839717205L411.2015625,276.04346797092643L415.53000000000003,274.16953167400345L419.85843750000004,272.69633914466965L424.186875,271.24040893055053L428.5153125,269.6083275510877L432.84375000000006,267.4605643695079L437.1721875,265.0540412678023L441.500625,262.86101885246194L445.8290625,260.6078216312124L450.1575,258.658078128182L454.48593750000003,256.69834555365236L458.814375,254.9082758977108L463.14281250000005,253.09683816529835L467.47125000000005,251.18425051662737L471.7996875,249.29697414671543L476.128125,247.05169238143225L480.4565625,245.10684854564502L484.785,243.10618732667734L489.11343750000003,241.23583091675172L493.441875,239.2153351067001L497.77031250000005,236.99749435412429L502.09875000000005,234.51462208212598L506.4271875,232.24136837652833L510.755625,230.05390702507106L515.0840625000001,227.73271460236515L519.4125,225.47161764655633L523.7409375,223.23123420783375L528.069375,221.19050897464908L532.3978125,219.03158370915395L536.72625,216.78850223904323L541.0546875000001,214.48233769366007L545.3831250000001,212.25801895545248L549.7115625,209.87554546419432L554.04,207.52705879618244L558.3684375,205.46887439483692L562.696875,203.15077171194253L567.0253124999999,200.72123634353858L571.3537500000001,197.99192606588116L575.6821875,195.39028108093427L580.010625,192.889641681406L584.3390625000001,190.6438564700211L588.6675,188.40196061648152L592.9959375,186.0250924677559L597.324375,183.36684954523324L601.6528125000001,180.94107986849937L605.98125,178.38445151552415L610.3096875,175.83474471887868L614.6381250000001,173.11347621175514L618.9665625,170.61572254430723L623.295,167.8167091780031L627.6234375,165.04552855810698L631.951875,162.35751871592976L636.2803125,159.53965023900668L640.6087500000001,156.91615888256052L644.9371875,154.27560715599728L649.265625,151.38270659879305L653.5940625000001,148.3830588461914L657.9225,145.4272384257925L662.2509375,142.65241250864247L666.579375,139.84674718900354L670.9078125000001,137.02199227922395L675.23625,134.13046899007037L679.5646875,130.8569141510074L683.893125,127.81946832101204L688.2215625,125.18095281378336L692.55,122.6465001763473L696.8784375,119.75333264762051L701.2068750000001,116.67109175503094L705.5353125,113.83449714251793L709.8637500000001,110.97411142352632L714.1921875,108.02206631731667L718.520625,105.22210135811133L722.8490625,102.64815862528621L727.1775,99.88441211212916L731.5059375000001,96.99768186663869L735.834375,94.1007669985263L740.1628125000001,91.32943246439544L744.49125,88.38305331084536L748.8196875,85.57010999941326L753.148125,82.60896539732903L757.4765625,79.90777650402362L761.805,77.52136557906755L766.1334375000001,74.7253310626736L770.4618750000001,71.79663377394883L774.7903125,68.42863072915122L779.1187500000001,65.04147626749847L783.4471875,61.82380842496616L787.775625,58.16153356890021L792.1040624999999,54.99886908684152L796.4325000000001,51.73881919552417L800.7609375000001,48.759189658952494L805.089375,45.54649609119929L809.4178125000001,42.30493492660622L813.74625,38.84767779649229L818.0746875,35.91632794064412L822.403125,32.870899302951045L826.7315625,29.941692437757467L831.0600000000001,27.040465311279547L835.3884375000001,23.799370143066653L839.7168750000001,20.754540887789005L844.0453125,17.38608965569523L848.37375,13.850287573798482L852.7021875,10.447188585104357L857.030625,6.950386657256502L861.3590625,3.461524917764848L865.6875000000001,-0.3301526143651472" style="fill: none;" fill="none"></path></g><g><path stroke="rgb(0, 119, 187)" stroke-width="2px" d="M90.8971875,346.125L95.225625,346.125L99.55406250000001,346.125L103.88250000000001,346.125L108.21093750000001,346.125L112.539375,346.125L116.86781250000001,346.125L121.19625,346.125L125.52468750000001,346.125L129.853125,346.125L134.1815625,346.125L138.51,346.125L142.83843750000003,346.1029760914953L147.166875,346.0893699344203L151.4953125,346.0754585871843L155.82375,346.05036066728576L160.15218750000003,346.00734838408005L164.480625,345.95325055853516L168.8090625,345.8977867536867L173.1375,345.8304850256365L177.46593750000002,345.7613509659733L181.794375,345.62513807286024L186.1228125,345.49686223819856L190.45125,345.2526033565398L194.77968750000002,344.936551826437L199.10812500000003,344.68596500375554L203.4365625,344.442929067828L207.76500000000001,344.06169176330906L212.0934375,343.7267926659697L216.42187500000003,343.4315671862502L220.7503125,343.0400053363798L225.07875,342.489897799877L229.4071875,342.07244860543153L233.73562500000003,341.73711488980075L238.0640625,341.408649099973L242.3925,340.941559547314L246.7209375,340.3831666949892L251.04937500000003,339.8561801778003L255.3778125,339.22224475606356L259.70625,338.3572521922872L264.0346875,337.5031006430278L268.363125,336.67764045040906L272.69156250000003,335.89741616871163L277.02,335.1122217617424L281.3484375,334.2635037316982L285.67687500000005,333.51833957895695L290.0053125,332.87574162234716L294.33375,332.1097956026176L298.6621875,331.5147807856757L302.990625,330.5859569986053L307.31906250000003,329.7417506513474L311.6475,328.89497057624845L315.9759375,328.1674915943835L320.30437500000005,327.50286960461193L324.6328125,326.7837378237138L328.96125,325.9978933282618L333.2896875,325.09382097019284L337.618125,324.23745979593326L341.9465625,323.32820395983606L346.275,322.41917748190747L350.60343750000004,321.6092064382236L354.93187500000005,320.79460840064496L359.2603125,319.88372798461455L363.58875,318.9682006993994L367.9171875,318.0168258483128L372.245625,316.99929981549025L376.5740625,315.78146562424996L380.9025,314.5935060675646L385.23093750000004,313.5504283327455L389.55937500000005,312.48712859950797L393.8878125,311.2629412569416L398.21625000000006,310.2139240995853L402.5446875,309.24586132533557L406.873125,308.22899585269045L411.2015625,307.3193013174308L415.53000000000003,306.39901290010505L419.85843750000004,305.5490995620881L424.186875,304.70977724431714L428.5153125,303.92097230654L432.84375000000006,303.1084857039021L437.1721875,302.2813401507154L441.500625,301.2363033994467L445.8290625,300.21575257348826L450.1575,298.9465893045277L454.48593750000003,297.78730416411804L458.814375,296.6960335852814L463.14281250000005,295.54245536621227L467.47125000000005,294.24040487168537L471.7996875,293.00581061557324L476.128125,291.6261352325783L480.4565625,290.2885392474275L484.785,289.0099615633884L489.11343750000003,287.85034409235277L493.441875,286.4786129931664L497.77031250000005,284.7392902889238L502.09875000000005,283.19006299653614L506.4271875,281.42329803331745L510.755625,279.81861763646964L515.0840625000001,278.4791233554363L519.4125,277.2268465877843L523.7409375,275.8856824609154L528.069375,274.40157398176814L532.3978125,272.74655506394527L536.72625,271.0516848922744L541.0546875000001,269.68383910216403L545.3831250000001,268.23267140423957L549.7115625,266.71893706076276L554.04,265.2104355021506L558.3684375,263.9634470758312L562.696875,262.6365468168626L567.0253124999999,261.4415224796379L571.3537500000001,260.0423793379728L575.6821875,258.4784203102052L580.010625,256.7904594797093L584.3390625000001,254.88836172563236L588.6675,252.99658821585874L592.9959375,251.1661573363858L597.324375,249.29676485276127L601.6528125000001,247.2164185977054L605.98125,245.11539580428732L610.3096875,243.3312857720846L614.6381250000001,241.52353704676653L618.9665625,239.5747665473331L623.295,237.70355933895303L627.6234375,235.6605561154273L631.951875,233.40130731237258L636.2803125,231.09612557251248L640.6087500000001,228.90538634476985L644.9371875,226.4337947243356L649.265625,224.08509585744068L653.5940625000001,221.57617433575578L657.9225,219.22085383690975L662.2509375,216.85070852504714L666.579375,214.50435780777343L670.9078125000001,212.051841713781L675.23625,209.42370540544582L679.5646875,206.78577364597095L683.893125,203.9659323483945L688.2215625,201.21483039288697L692.55,198.2864703978124L696.8784375,195.73196459932282L701.2068750000001,193.34293224082697L705.5353125,191.01236640322574L709.8637500000001,188.4322413420583L714.1921875,185.560259313811L718.520625,182.69445436140285L722.8490625,179.7115787881699L727.1775,176.97495765449256L731.5059375000001,174.68201321120782L735.834375,172.33399310081458L740.1628125000001,169.88044365248115L744.49125,167.37256192857814L748.8196875,164.65520237225138L753.148125,162.0060029607313L757.4765625,159.36602352500037L761.805,156.63283779274448L766.1334375000001,154.04527947832423L770.4618750000001,151.18518184323653L774.7903125,148.1838583301942L779.1187500000001,145.2379909986979L783.4471875,142.1890712358863L787.775625,139.10933317193673L792.1040624999999,136.01051857958268L796.4325000000001,133.119703308454L800.7609375000001,130.15431750177916L805.089375,127.14277253360129L809.4178125000001,124.22904446752997L813.74625,121.15605737155491L818.0746875,118.1273639360694L822.403125,115.3678767379655L826.7315625,112.39036473926217L831.0600000000001,109.34383769668023L835.3884375000001,106.49088361116816L839.7168750000001,103.75775118608232L844.0453125,101.0932931764927L848.37375,98.22955616855666L852.7021875,95.4897491144904L857.030625,92.99151047110036L861.3590625,90.38452863545723L865.6875000000001,87.69924437919423L870.0159375000001,84.95999573225964L874.344375,82.14338158903797L878.6728125000001,79.42175320361451L883.00125,76.75892100226815L887.3296875,73.73133460040395L891.658125,70.70876342534234L895.9865625000001,67.76073417567153L900.315,64.89181753166372L904.6434375,62.04989082133062L908.9718750000001,59.015853572249796L913.3003125,55.901366245838005L917.62875,52.93490724463527L921.9571875,49.988640276736874L926.2856250000001,47.13180486976171L930.6140625,44.23690932976717L934.9425000000001,41.43934879820273L939.2709375000001,38.32287036762597L943.599375,35.21779906525279L947.9278125000001,32.33410127523763L952.25625,29.268712535525935" style="fill: none;" fill="none"></path></g><g><path stroke="rgb(255, 112, 67)" stroke-width="2px" d="M90.8971875,346.15384615384613L95.225625,346.15384615384613L99.55406250000001,346.15384615384613L103.88250000000001,346.15384615384613L108.21093750000001,346.15384615384613L112.539375,346.15384615384613L116.86781250000001,346.15384615384613L121.19625,346.15384615384613L125.52468750000001,346.15384615384613L129.853125,346.15384615384613L134.1815625,346.15384615384613L138.51,346.15384615384613L142.83843750000003,346.15384615384613L147.166875,346.15384615384613L151.4953125,346.15384615384613L155.82375,346.15384615384613L160.15218750000003,346.12636228881894L164.480625,346.08187379915324L168.8090625,346.0323571179899L173.1375,345.9467539867484L177.46593750000002,345.84431043123726L181.794375,345.7314425150169L186.1228125,345.595635719915L190.45125,345.4346392062194L194.77968750000002,345.3184976795496L199.10812500000003,345.16417831771923L203.4365625,345.0356837658127L207.76500000000001,344.8572322194709L212.0934375,344.65884771717396L216.42187500000003,344.3492111779052L220.7503125,344.0586327716545L225.07875,343.7468801568318L229.4071875,343.4714774341325L233.73562500000003,343.1636233524237L238.0640625,342.85216745459195L242.3925,342.5604627989957L246.7209375,342.22603223524976L251.04937500000003,341.8871351033513L255.3778125,341.5729491266133L259.70625,341.1751458921385L264.0346875,340.84098261396383L268.363125,340.3923470833978L272.69156250000003,339.7959205362729L277.02,339.0860305806989L281.3484375,338.4927433138172L285.67687500000005,338.0155946495895L290.0053125,337.5059271264749L294.33375,336.91018812199746L298.6621875,336.2666660628611L302.990625,335.48366244672707L307.31906250000003,334.81764186220056L311.6475,334.0921491588453L315.9759375,333.3573191754724L320.30437500000005,332.638690184998L324.6328125,331.8037001860493L328.96125,330.9626250305473L333.2896875,330.2276870092924L337.618125,329.60240941259764L341.9465625,328.8911462340899L346.275,328.1046772112091L350.60343750000004,327.40354038604596L354.93187500000005,326.76621457588544L359.2603125,326.12992143785766L363.58875,325.4173348315723L367.9171875,324.81138795305094L372.245625,324.2494702967847L376.5740625,323.68733076755586L380.9025,322.9931692835786L385.23093750000004,322.4590746711506L389.55937500000005,321.82623452913447L393.8878125,321.1982132119958L398.21625000000006,320.67208820899464L402.5446875,320.13759952444457L406.873125,319.5539721825543L411.2015625,318.9674039733088L415.53000000000003,318.422976905632L419.85843750000004,317.94310155074004L424.186875,317.5031837060619L428.5153125,317.0934947525139L432.84375000000006,316.61459440565227L437.1721875,316.2027560524833L441.500625,315.7554963811026L445.8290625,315.3247772599025L450.1575,314.9482582777258L454.48593750000003,314.41845264314304L458.814375,313.8047529553363L463.14281250000005,313.2655122716609L467.47125000000005,312.6844386346196L471.7996875,312.1598982840603L476.128125,311.51648665321795L480.4565625,311.0083110075727L484.785,310.5288945136875L489.11343750000003,309.9848520501264L493.441875,309.345854188259L497.77031250000005,308.67555489637846L502.09875000000005,308.06281271162754L506.4271875,307.54065029926664L510.755625,306.9756433044768L515.0840625000001,306.2577260900865L519.4125,305.4781286036097L523.7409375,304.6328750671729L528.069375,303.53816312811847L532.3978125,302.4978537455361L536.72625,301.42527723771764L541.0546875000001,300.5360494947626L545.3831250000001,299.55149732956573L549.7115625,298.4859585777704L554.04,297.6230679750245L558.3684375,296.8141790765402L562.696875,296.0606980022245L567.0253124999999,295.28656244799237L571.3537500000001,294.5545936937688L575.6821875,293.5519858041352L580.010625,292.60165998199045L584.3390625000001,291.67820156731364L588.6675,290.91424907785944L592.9959375,290.26002114073344L597.324375,289.4539050091909L601.6528125000001,288.6087220083815L605.98125,287.6184623847266L610.3096875,286.75820802383805L614.6381250000001,285.9784269206019L618.9665625,285.188011648468L623.295,284.41299459501704L627.6234375,283.449682115854L631.951875,282.391795537406L636.2803125,281.3742810530389L640.6087500000001,280.16194920260034L644.9371875,279.1642321333327L649.265625,278.2773808443791L653.5940625000001,277.2393477811322L657.9225,276.1297139688285L662.2509375,275.14061506208947L666.579375,274.2371176465103L670.9078125000001,273.3261604385745L675.23625,272.5094990807084L679.5646875,271.45996166172773L683.893125,270.3651874224556L688.2215625,269.209440437577L692.55,268.20278786162936L696.8784375,267.3104054940409L701.2068750000001,266.21399677004206L705.5353125,265.01327650065605L709.8637500000001,263.7699681539061L714.1921875,262.3739083641909L718.520625,261.18003581589574L722.8490625,260.05087005465487L727.1775,258.8078924099852L731.5059375000001,257.4944652094731L735.834375,256.3792181954331L740.1628125000001,255.3646639475885L744.49125,254.159659675865L748.8196875,252.8477572239758L753.148125,251.65652133702565L757.4765625,250.50151170761885L761.805,249.28100305470838L766.1334375000001,248.21228223701834L770.4618750000001,247.0616719354836L774.7903125,245.8933431972951L779.1187500000001,244.81296020835643L783.4471875,243.5672079458957L787.775625,242.30701518004793L792.1040624999999,241.07085489644967L796.4325000000001,239.92650341167158L800.7609375000001,238.75105849644007L805.089375,237.41349174775794L809.4178125000001,236.09097062263143L813.74625,234.74479158463961L818.0746875,233.4114442601227L822.403125,232.1080205354775L826.7315625,230.76267240376825L831.0600000000001,229.35840191024025L835.3884375000001,228.1374661670541L839.7168750000001,226.7222838650988L844.0453125,225.29127159711157L848.37375,223.99333558015053L852.7021875,222.89866799334393L857.030625,221.63308318018758L861.3590625,220.23971983468996L865.6875000000001,218.72330003921155L870.0159375000001,217.1471938781181L874.344375,215.5011707028628L878.6728125000001,214.02068620353361L883.00125,212.4888047599873L887.3296875,211.01852687720137L891.658125,209.56440082929535L895.9865625000001,208.13675834410304L900.315,206.6156053380767L904.6434375,205.00909335811565L908.9718750000001,203.30578263482744L913.3003125,201.6964188740351L917.62875,200.24412174456617L921.9571875,198.85058251373263L926.2856250000001,197.18568365292356L930.6140625,195.7100006811597L934.9425000000001,194.21955772933015L939.2709375000001,192.75844469599383L943.599375,191.45836188220477L947.9278125000001,189.85131254354633L952.25625,188.31802015676286" style="fill: none;" fill="none"></path></g></g></g></g><g opacity="0.2"><g><g><g><path stroke="rgb(0, 153, 136)" stroke-width="2px" d="M90.8971875,346.15384615384613L95.225625,346.15384615384613L99.55406250000001,346.15384615384613L103.88250000000001,346.15384615384613L108.21093750000001,346.15384615384613L112.539375,346.15384615384613L116.86781250000001,346.15384615384613L121.19625,346.15384615384613L125.52468750000001,346.15384615384613L129.853125,346.15384615384613L134.1815625,346.1105769230769L138.51,346.0673076923077L142.83843750000003,346.03846153846155L147.166875,345.83653846153845L151.4953125,345.7932692307692L155.82375,345.77884615384613L160.15218750000003,345.5769230769231L164.480625,345.34615384615387L168.8090625,344.72596153846155L173.1375,344.4519230769231L177.46593750000002,344.0769230769231L181.794375,343.3557692307692L186.1228125,342.7355769230769L190.45125,342.11538461538464L194.77968750000002,341.84134615384613L199.10812500000003,341.65384615384613L203.4365625,340.77403846153845L207.76500000000001,339.77884615384613L212.0934375,339.5048076923077L216.42187500000003,338.97115384615387L220.7503125,338.4807692307692L225.07875,337.3557692307692L229.4071875,336.9519230769231L233.73562500000003,336.75L238.0640625,336.21634615384613L242.3925,335.3076923076923L246.7209375,334.94711538461536L251.04937500000003,333.63461538461536L255.3778125,332.50961538461536L259.70625,331.78846153846155L264.0346875,331.03846153846155L268.363125,329.5673076923077L272.69156250000003,328.8173076923077L277.02,328.125L281.3484375,327.5480769230769L285.67687500000005,327.02884615384613L290.0053125,326.8269230769231L294.33375,326.33653846153845L298.6621875,325.6875L302.990625,324.6057692307692L307.31906250000003,324.0144230769231L311.6475,323.4519230769231L315.9759375,322.7451923076923L320.30437500000005,321.8076923076923L324.6328125,320.74038461538464L328.96125,320.16346153846155L333.2896875,319.09615384615387L337.618125,318.1442307692308L341.9465625,317.4807692307692L346.275,315.5192307692308L350.60343750000004,314.69711538461536L354.93187500000005,313.875L359.2603125,313.3269230769231L363.58875,312.40384615384613L367.9171875,311.36538461538464L372.245625,310.58653846153845L376.5740625,309.7644230769231L380.9025,309.02884615384613L385.23093750000004,307.61538461538464L389.55937500000005,306.11538461538464L393.8878125,304.97596153846155L398.21625000000006,303.2019230769231L402.5446875,302.32211538461536L406.873125,300.6057692307692L411.2015625,299.91346153846155L415.53000000000003,298.1826923076923L419.85843750000004,297.11538461538464L424.186875,295.21153846153845L428.5153125,294.2163461538462L432.84375000000006,292.9038461538462L437.1721875,292.0673076923077L441.500625,290.0480769230769L445.8290625,288.9663461538462L450.1575,287.59615384615387L454.48593750000003,285.77884615384613L458.814375,283.5L463.14281250000005,282.1298076923077L467.47125000000005,280.6730769230769L471.7996875,278.6682692307692L476.128125,275.9711538461538L480.4565625,274.34134615384613L484.785,271.90384615384613L489.11343750000003,270.7355769230769L493.441875,268.24038461538464L497.77031250000005,267.47596153846155L502.09875000000005,265.1538461538462L506.4271875,263.1057692307692L510.755625,261.4038461538462L515.0840625000001,259.7307692307692L519.4125,258.3461538461538L523.7409375,255.62019230769232L528.069375,252.9519230769231L532.3978125,252.375L536.72625,250.8173076923077L541.0546875000001,249.20192307692307L545.3831250000001,247.47115384615387L549.7115625,245.40865384615384L554.04,242.65384615384613L558.3684375,239.79807692307693L562.696875,236.71153846153845L567.0253124999999,234.50480769230768L571.3537500000001,232.125L575.6821875,230.29326923076923L580.010625,227.76923076923077L584.3390625000001,225.23076923076923L588.6675,222.77884615384616L592.9959375,221.3221153846154L597.324375,218.79807692307693L601.6528125000001,217.3125L605.98125,214.90384615384616L610.3096875,213.2596153846154L614.6381250000001,211.67307692307693L618.9665625,209.53846153846155L623.295,207.80769230769232L627.6234375,206.0048076923077L631.951875,202.5L636.2803125,198.85096153846155L640.6087500000001,196.26923076923077L644.9371875,194.5528846153846L649.265625,192.92307692307693L653.5940625000001,190.54326923076923L657.9225,187.7596153846154L662.2509375,186.20192307692307L666.579375,183.69230769230768L670.9078125000001,182.3653846153846L675.23625,180.31730769230768L679.5646875,177.21634615384616L683.893125,174.25961538461542L688.2215625,172.1826923076923L692.55,168.6923076923077L696.8784375,167.5817307692308L701.2068750000001,165.6923076923077L705.5353125,163.15384615384613L709.8637500000001,160.26923076923077L714.1921875,157.57211538461536L718.520625,153.57692307692307L722.8490625,150.66346153846155L727.1775,146.7980769230769L731.5059375000001,144.1730769230769L735.834375,140.76923076923077L740.1628125000001,138.3605769230769L744.49125,135.69230769230768L748.8196875,134.1778846153846L753.148125,131.19230769230768L757.4765625,129.01442307692307L761.805,125.8269230769231L766.1334375000001,122.59615384615384L770.4618750000001,120.11538461538461L774.7903125,118.74519230769232L779.1187500000001,115.875L783.4471875,113.0625L787.775625,108.63461538461536L792.1040624999999,105.98076923076923L796.4325000000001,102.28846153846155L800.7609375000001,99.14423076923077L805.089375,96.75L809.4178125000001,93.86538461538464L813.74625,89.10576923076923L818.0746875,86.59615384615381L822.403125,83.53846153846155L826.7315625,80.625L831.0600000000001,77.48076923076923L835.3884375000001,74.0625L839.7168750000001,70.47115384615387L844.0453125,66.73557692307696L848.37375,63.201923076923094L852.7021875,60.173076923076906L857.030625,56.27884615384619L861.3590625,52.947115384615415L865.6875000000001,50.625L870.0159375000001,47.12019230769232L874.344375,43.75961538461536L878.6728125000001,38.49519230769232L883.00125,34.90384615384613L887.3296875,30.82211538461536L891.658125,26.509615384615415L895.9865625000001,21.432692307692264L900.315,17.423076923076906L904.6434375,13.81730769230768L908.9718750000001,9.836538461538453L913.3003125,5.192307692307679L917.62875,0.0865384615384528L921.9571875,-4.283653846153868" style="fill: none;" fill="none"></path></g><g><path stroke="rgb(238, 51, 119)" stroke-width="2px" d="M90.8971875,346.15384615384613L95.225625,346.15384615384613L99.55406250000001,346.15384615384613L103.88250000000001,346.15384615384613L108.21093750000001,346.15384615384613L112.539375,346.15384615384613L116.86781250000001,346.15384615384613L121.19625,346.15384615384613L125.52468750000001,346.15384615384613L129.853125,346.15384615384613L134.1815625,346.15384615384613L138.51,346.15384615384613L142.83843750000003,346.15384615384613L147.166875,346.15384615384613L151.4953125,346.0673076923077L155.82375,345.9807692307692L160.15218750000003,345.86538461538464L164.480625,345.8076923076923L168.8090625,345.7355769230769L173.1375,345.6057692307692L177.46593750000002,345.0576923076923L181.794375,344.5673076923077L186.1228125,344.36538461538464L190.45125,343.75961538461536L194.77968750000002,343.2980769230769L199.10812500000003,342.8942307692308L203.4365625,342.3894230769231L207.76500000000001,341.50961538461536L212.0934375,340.3125L216.42187500000003,339.5769230769231L220.7503125,339.3317307692308L225.07875,338.9423076923077L229.4071875,338.3076923076923L233.73562500000003,337.52884615384613L238.0640625,337.0673076923077L242.3925,336.1730769230769L246.7209375,335.5817307692308L251.04937500000003,334.52884615384613L255.3778125,333.5769230769231L259.70625,332.16346153846155L264.0346875,330.4182692307692L268.363125,329.0192307692308L272.69156250000003,328.1105769230769L277.02,326.88461538461536L281.3484375,325.78846153846155L285.67687500000005,324.63461538461536L290.0053125,323.2932692307692L294.33375,322.24038461538464L298.6621875,320.89903846153845L302.990625,319.3269230769231L307.31906250000003,318.3605769230769L311.6475,317.1057692307692L315.9759375,315.5192307692308L320.30437500000005,313.90384615384613L324.6328125,312.5192307692308L328.96125,311.13461538461536L333.2896875,309.9807692307692L337.618125,308.3942307692308L341.9465625,307.19711538461536L346.275,305.9423076923077L350.60343750000004,303.83653846153845L354.93187500000005,301.5288461538462L359.2603125,300.21634615384613L363.58875,298.7019230769231L367.9171875,296.6105769230769L372.245625,295.78846153846155L376.5740625,294.2451923076923L380.9025,292.5288461538462L385.23093750000004,290.1201923076923L389.55937500000005,288.4326923076923L393.8878125,286.71634615384613L398.21625000000006,285.25961538461536L402.5446875,283.58653846153845L406.873125,281.4807692307692L411.2015625,279.5625L415.53000000000003,276.69230769230774L419.85843750000004,274.58653846153845L424.186875,272.4230769230769L428.5153125,270.96634615384613L432.84375000000006,269.71153846153845L437.1721875,268.3125L441.500625,266.5673076923077L445.8290625,265.1105769230769L450.1575,263.50961538461536L454.48593750000003,261.30288461538464L458.814375,259.0673076923077L463.14281250000005,257.0480769230769L467.47125000000005,255.6346153846154L471.7996875,253.1105769230769L476.128125,250.99038461538464L480.4565625,249.01442307692307L484.785,247.06730769230768L489.11343750000003,245.48076923076923L493.441875,242.625L497.77031250000005,240.40384615384616L502.09875000000005,238.875L506.4271875,236.78365384615384L510.755625,234.2596153846154L515.0840625000001,232.4278846153846L519.4125,229.70192307692307L523.7409375,227.82692307692307L528.069375,225.6346153846154L532.3978125,223.7451923076923L536.72625,221.5096153846154L541.0546875000001,219.40384615384613L545.3831250000001,217.35576923076923L549.7115625,215.0625L554.04,212.91346153846152L558.3684375,210.51923076923077L562.696875,207.66346153846155L567.0253124999999,205.15384615384616L571.3537500000001,202.9903846153846L575.6821875,200.3076923076923L580.010625,198.375L584.3390625000001,195.60576923076923L588.6675,193.5576923076923L592.9959375,190.4278846153846L597.324375,187.81730769230768L601.6528125000001,185.63942307692307L605.98125,183.43269230769232L610.3096875,180.83653846153845L614.6381250000001,178.44230769230768L618.9665625,175.83173076923075L623.295,173.19230769230768L627.6234375,170.97115384615384L631.951875,168.51923076923077L636.2803125,165.34615384615387L640.6087500000001,162.20192307692307L644.9371875,159.77884615384616L649.265625,157.0673076923077L653.5940625000001,154.41346153846155L657.9225,152.01923076923075L662.2509375,149.52403846153845L666.579375,147.02884615384616L670.9078125000001,144.0144230769231L675.23625,141.25961538461536L679.5646875,138.43269230769232L683.893125,135.28846153846152L688.2215625,132.375L692.55,128.91346153846152L696.8784375,125.9855769230769L701.2068750000001,122.42307692307693L705.5353125,119.79807692307693L709.8637500000001,116.71153846153845L714.1921875,113.65384615384613L718.520625,110.19230769230768L722.8490625,107.17788461538464L727.1775,103.875L731.5059375000001,101.00480769230768L735.834375,98.50961538461536L740.1628125000001,95.6394230769231L744.49125,92.36538461538464L748.8196875,88.61538461538464L753.148125,86.10576923076923L757.4765625,83.00480769230768L761.805,79.44230769230768L766.1334375000001,76.60096153846155L770.4618750000001,73.75961538461542L774.7903125,70.875L779.1187500000001,66.75L783.4471875,63.389423076923094L787.775625,59.769230769230774L792.1040624999999,56.423076923076906L796.4325000000001,52.730769230769226L800.7609375000001,49.38461538461536L805.089375,45.63461538461536L809.4178125000001,42.63461538461536L813.74625,39.66346153846155L818.0746875,35.855769230769226L822.403125,31.84615384615381L826.7315625,28.903846153846132L831.0600000000001,25.55769230769232L835.3884375000001,22.125L839.7168750000001,18.490384615384585L844.0453125,14.56730769230768L848.37375,11.596153846153868L852.7021875,8.697115384615415L857.030625,5.192307692307679L861.3590625,1.9326923076923208L865.6875000000001,-0.2884615384615472" style="fill: none;" fill="none"></path></g><g><path stroke="rgb(51, 187, 238)" stroke-width="2px" d="M90.8971875,346.15384615384613L95.225625,346.15384615384613L99.55406250000001,346.15384615384613L103.88250000000001,346.15384615384613L108.21093750000001,346.15384615384613L112.539375,346.15384615384613L116.86781250000001,346.15384615384613L121.19625,346.15384615384613L125.52468750000001,346.15384615384613L129.853125,346.15384615384613L134.1815625,346.15384615384613L138.51,346.125L142.83843750000003,346.125L147.166875,346.125L151.4953125,346.1105769230769L155.82375,346.0673076923077L160.15218750000003,346.02403846153845L164.480625,345.9807692307692L168.8090625,345.9807692307692L173.1375,345.9519230769231L177.46593750000002,345.63461538461536L181.794375,345.34615384615387L186.1228125,344.9855769230769L190.45125,344.4807692307692L194.77968750000002,344.35096153846155L199.10812500000003,344.25L203.4365625,344.0625L207.76500000000001,343.875L212.0934375,343.52884615384613L216.42187500000003,343.125L220.7503125,342.90865384615387L225.07875,342.75L229.4071875,342.4326923076923L233.73562500000003,342.3173076923077L238.0640625,342.0576923076923L242.3925,341.4230769230769L246.7209375,341.32211538461536L251.04937500000003,340.90384615384613L255.3778125,340.57211538461536L259.70625,339.9519230769231L264.0346875,339.40384615384613L268.363125,338.6826923076923L272.69156250000003,337.96153846153845L277.02,337.6730769230769L281.3484375,337.1682692307692L285.67687500000005,336.0576923076923L290.0053125,335.53846153846155L294.33375,334.41346153846155L298.6621875,333.53365384615387L302.990625,333.11538461538464L307.31906250000003,332.74038461538464L311.6475,332.25L315.9759375,331.58653846153845L320.30437500000005,330.75L324.6328125,330L328.96125,329.16346153846155L333.2896875,328.21153846153845L337.618125,327.40384615384613L341.9465625,326.2355769230769L346.275,325.3557692307692L350.60343750000004,324.44711538461536L354.93187500000005,323.53846153846155L359.2603125,322.84615384615387L363.58875,322.4423076923077L367.9171875,322.02403846153845L372.245625,320.7692307692308L376.5740625,320.2067307692308L380.9025,319.125L385.23093750000004,318.47596153846155L389.55937500000005,317.13461538461536L393.8878125,316.00961538461536L398.21625000000006,315L402.5446875,313.28365384615387L406.873125,312.0576923076923L411.2015625,310.90384615384613L415.53000000000003,309.66346153846155L419.85843750000004,308.65384615384613L424.186875,307.125L428.5153125,305.88461538461536L432.84375000000006,304.1826923076923L437.1721875,302.4951923076923L441.500625,300.8076923076923L445.8290625,299.59615384615387L450.1575,298.09615384615387L454.48593750000003,297.2307692307692L458.814375,296.27884615384613L463.14281250000005,295.1394230769231L467.47125000000005,293.6826923076923L471.7996875,292.1394230769231L476.128125,290.7692307692308L480.4565625,289.05288461538464L484.785,287.4230769230769L489.11343750000003,286.4567307692308L493.441875,284.9423076923077L497.77031250000005,283.7307692307692L502.09875000000005,282.3461538461538L506.4271875,281.2355769230769L510.755625,280.24038461538464L515.0840625000001,278.9278846153846L519.4125,277.5L523.7409375,275.7980769230769L528.069375,273.8076923076923L532.3978125,273.02884615384613L536.72625,271.8173076923077L541.0546875000001,270.53365384615387L545.3831250000001,268.6442307692308L549.7115625,267.02884615384613L554.04,265.41346153846155L558.3684375,263.9567307692308L562.696875,262.3269230769231L567.0253124999999,260.8269230769231L571.3537500000001,259.875L575.6821875,258.63461538461536L580.010625,257.0480769230769L584.3390625000001,255.31730769230768L588.6675,253.6730769230769L592.9959375,252.5480769230769L597.324375,251.0480769230769L601.6528125000001,249.80769230769232L605.98125,248.39423076923077L610.3096875,246.96634615384616L614.6381250000001,244.96153846153845L618.9665625,242.72596153846155L623.295,240.9519230769231L627.6234375,238.5144230769231L631.951875,236.76923076923077L636.2803125,234.51923076923077L640.6087500000001,232.64423076923077L644.9371875,230.78365384615384L649.265625,228.75L653.5940625000001,226.4855769230769L657.9225,224.45192307692307L662.2509375,222.51923076923077L666.579375,219.40384615384613L670.9078125000001,217.22596153846155L675.23625,215.04807692307693L679.5646875,212.625L683.893125,210.14423076923077L688.2215625,207.98076923076923L692.55,206.01923076923077L696.8784375,204.20192307692307L701.2068750000001,202.55769230769232L705.5353125,200.40865384615387L709.8637500000001,198.375L714.1921875,196.6153846153846L718.520625,194.8269230769231L722.8490625,192.1153846153846L727.1775,190.29807692307693L731.5059375000001,188.65384615384616L735.834375,186.02884615384616L740.1628125000001,183.38942307692307L744.49125,180.77884615384616L748.8196875,178.21153846153845L753.148125,175.875L757.4765625,174.21634615384616L761.805,172.52884615384613L766.1334375000001,170.00480769230768L770.4618750000001,167.3653846153846L774.7903125,165.85096153846152L779.1187500000001,164.3076923076923L783.4471875,161.9423076923077L787.775625,160.4423076923077L792.1040624999999,157.60096153846152L796.4325000000001,155.82692307692307L800.7609375000001,153.50480769230768L805.089375,150.72115384615384L809.4178125000001,148.125L813.74625,145.5L818.0746875,143.29326923076923L822.403125,141.08653846153848L826.7315625,138.47596153846155L831.0600000000001,135.72115384615384L835.3884375000001,133.51442307692307L839.7168750000001,130.96153846153845L844.0453125,128.19230769230768L848.37375,125.91346153846155L852.7021875,123.62019230769232L857.030625,121.03846153846155L861.3590625,118.84615384615387L865.6875000000001,116.33653846153845L870.0159375000001,113.72596153846155L874.344375,111L878.6728125000001,108.1730769230769L883.00125,105.98076923076923L887.3296875,103.875L891.658125,101.59615384615387L895.9865625000001,98.58173076923077L900.315,95.82692307692304L904.6434375,93.10096153846155L908.9718750000001,90.23076923076923L913.3003125,87.59134615384619L917.62875,85.38461538461536L921.9571875,82.28365384615387L926.2856250000001,80.19230769230768L930.6140625,77.16346153846155L934.9425000000001,74.4230769230769L939.2709375000001,71.95673076923077L943.599375,69.23076923076923L947.9278125000001,66.85096153846155L952.25625,64.03846153846155" style="fill: none;" fill="none"></path></g><g><path stroke="rgb(204, 51, 17)" stroke-width="2px" d="M90.8971875,346.15384615384613L95.225625,346.15384615384613L99.55406250000001,346.15384615384613L103.88250000000001,346.15384615384613L108.21093750000001,346.15384615384613L112.539375,346.15384615384613L116.86781250000001,346.15384615384613L121.19625,346.15384615384613L125.52468750000001,346.15384615384613L129.853125,346.15384615384613L134.1815625,346.15384615384613L138.51,346.15384615384613L142.83843750000003,346.125L147.166875,346.125L151.4953125,346.125L155.82375,346.125L160.15218750000003,346.00961538461536L164.480625,345.75L168.8090625,345.5480769230769L173.1375,345.08653846153845L177.46593750000002,344.8701923076923L181.794375,344.4519230769231L186.1228125,343.8894230769231L190.45125,343.3269230769231L194.77968750000002,342.63461538461536L199.10812500000003,341.5673076923077L203.4365625,341.1923076923077L207.76500000000001,340.38461538461536L212.0934375,338.8701923076923L216.42187500000003,337.99038461538464L220.7503125,337.3557692307692L225.07875,336.28846153846155L229.4071875,335.5673076923077L233.73562500000003,334.6730769230769L238.0640625,333.6057692307692L242.3925,332.65384615384613L246.7209375,331.875L251.04937500000003,330.66346153846155L255.3778125,330.11538461538464L259.70625,328.5L264.0346875,326.91346153846155L268.363125,325.47115384615387L272.69156250000003,324.5625L277.02,322.96153846153845L281.3484375,321.7932692307692L285.67687500000005,320.8269230769231L290.0053125,319.8894230769231L294.33375,318.8942307692308L298.6621875,317.25L302.990625,315.2307692307692L307.31906250000003,313.34134615384613L311.6475,311.8557692307692L315.9759375,309.47596153846155L320.30437500000005,307.3269230769231L324.6328125,305.2788461538462L328.96125,304.3557692307692L333.2896875,302.55288461538464L337.618125,300.08653846153845L341.9465625,297.9807692307692L346.275,295.99038461538464L350.60343750000004,294.75L354.93187500000005,293.1057692307692L359.2603125,291.46153846153845L363.58875,290.16346153846155L367.9171875,287.9567307692308L372.245625,286.5576923076923L376.5740625,285.83653846153845L380.9025,284.0769230769231L385.23093750000004,282.5769230769231L389.55937500000005,280.6730769230769L393.8878125,278.8557692307692L398.21625000000006,277.875L402.5446875,276.8798076923077L406.873125,275.4230769230769L411.2015625,273.5192307692308L415.53000000000003,271.125L419.85843750000004,270.30288461538464L424.186875,268.875L428.5153125,266.9567307692308L432.84375000000006,263.97115384615387L437.1721875,261.1442307692308L441.500625,259.2980769230769L445.8290625,256.94711538461536L450.1575,255.49038461538458L454.48593750000003,253.5144230769231L458.814375,252L463.14281250000005,250.15384615384613L467.47125000000005,248.07692307692307L471.7996875,246.23076923076923L476.128125,243.40384615384613L480.4565625,241.9471153846154L484.785,239.85576923076923L489.11343750000003,238.1971153846154L493.441875,235.93269230769232L497.77031250000005,233.39423076923077L502.09875000000005,230.48076923076923L506.4271875,228.5480769230769L510.755625,226.5L515.0840625000001,223.96153846153845L519.4125,221.79807692307693L523.7409375,219.59134615384613L528.069375,217.875L532.3978125,215.52403846153845L536.72625,213.14423076923077L541.0546875000001,210.73557692307693L545.3831250000001,208.64423076923077L549.7115625,206.0048076923077L554.04,203.71153846153845L558.3684375,202.125L562.696875,199.3846153846154L567.0253124999999,196.77403846153845L571.3537500000001,193.5576923076923L575.6821875,191.16346153846152L580.010625,188.82692307692307L584.3390625000001,186.9951923076923L588.6675,184.75961538461536L592.9959375,182.16346153846152L597.324375,179.04807692307693L601.6528125000001,177L605.98125,174.23076923076925L610.3096875,171.69230769230768L614.6381250000001,168.6923076923077L618.9665625,166.5576923076923L623.295,163.26923076923077L627.6234375,160.5432692307692L631.951875,157.9903846153846L636.2803125,154.96153846153845L640.6087500000001,152.65384615384616L644.9371875,149.98557692307693L649.265625,146.68269230769232L653.5940625000001,143.5096153846154L657.9225,140.625L662.2509375,138.14423076923077L666.579375,135.28846153846152L670.9078125000001,132.43269230769232L675.23625,129.4326923076923L679.5646875,125.53846153846155L683.893125,122.88461538461539L688.2215625,120.89423076923077L692.55,118.52884615384613L696.8784375,115.05288461538464L701.2068750000001,111.66346153846155L705.5353125,109.22596153846155L709.8637500000001,106.3269230769231L714.1921875,103.22596153846155L718.520625,100.6730769230769L722.8490625,98.46634615384613L727.1775,95.39423076923077L731.5059375000001,92.30769230769232L735.834375,89.39423076923077L740.1628125000001,86.8269230769231L744.49125,83.59615384615381L748.8196875,81L753.148125,77.7980769230769L757.4765625,75.51923076923077L761.805,73.64423076923077L766.1334375000001,70.18269230769232L770.4618750000001,67.03846153846155L774.7903125,62.956730769230774L779.1187500000001,59.53846153846155L783.4471875,56.59615384615387L787.775625,52.21153846153845L792.1040624999999,49.860576923076906L796.4325000000001,46.44230769230768L800.7609375000001,43.918269230769226L805.089375,40.326923076923094L809.4178125000001,37.03846153846155L813.74625,33.230769230769226L818.0746875,31.153846153846132L822.403125,27.923076923076906L826.7315625,25.18269230769232L831.0600000000001,22.326923076923094L835.3884375000001,18.53365384615381L839.7168750000001,15.80769230769232L844.0453125,11.913461538461547L848.37375,8.105769230769226L852.7021875,4.918269230769226L857.030625,1.2692307692307736L861.3590625,-2.2067307692308304" style="fill: none;" fill="none"></path></g><g><path stroke="rgb(0, 119, 187)" stroke-width="2px" d="M90.8971875,346.125L95.225625,346.125L99.55406250000001,346.125L103.88250000000001,346.125L108.21093750000001,346.125L112.539375,346.125L116.86781250000001,346.125L121.19625,346.125L125.52468750000001,346.125L129.853125,346.125L134.1815625,346.125L138.51,346.125L142.83843750000003,346.0673076923077L147.166875,346.0673076923077L151.4953125,346.05288461538464L155.82375,346.00961538461536L160.15218750000003,345.9375L164.480625,345.86538461538464L168.8090625,345.8076923076923L173.1375,345.72115384615387L177.46593750000002,345.64903846153845L181.794375,345.40384615384613L186.1228125,345.28846153846155L190.45125,344.8557692307692L194.77968750000002,344.4230769230769L199.10812500000003,344.27884615384613L203.4365625,344.0480769230769L207.76500000000001,343.4423076923077L212.0934375,343.1826923076923L216.42187500000003,342.9519230769231L220.7503125,342.40384615384613L225.07875,341.59615384615387L229.4071875,341.3942307692308L233.73562500000003,341.1923076923077L238.0640625,340.875L242.3925,340.1826923076923L246.7209375,339.47596153846155L251.04937500000003,339L255.3778125,338.1923076923077L259.70625,336.9519230769231L264.0346875,336.11538461538464L268.363125,335.33653846153845L272.69156250000003,334.6298076923077L277.02,333.83653846153845L281.3484375,332.88461538461536L285.67687500000005,332.3076923076923L290.0053125,331.8317307692308L294.33375,330.86538461538464L298.6621875,330.5480769230769L302.990625,329.0769230769231L307.31906250000003,328.3701923076923L311.6475,327.5192307692308L315.9759375,326.9855769230769L320.30437500000005,326.4230769230769L324.6328125,325.61538461538464L328.96125,324.72115384615387L333.2896875,323.625L337.618125,322.84615384615387L341.9465625,321.85096153846155L346.275,320.9423076923077L350.60343750000004,320.2932692307692L354.93187500000005,319.47115384615387L359.2603125,318.4038461538462L363.58875,317.4807692307692L367.9171875,316.4711538461538L372.245625,315.3461538461538L376.5740625,313.80288461538464L380.9025,312.66346153846155L385.23093750000004,311.8557692307692L389.55937500000005,310.75961538461536L393.8878125,309.27403846153845L398.21625000000006,308.50961538461536L402.5446875,307.6730769230769L406.873125,306.5769230769231L411.2015625,305.8413461538462L415.53000000000003,304.9038461538462L419.85843750000004,304.1682692307692L424.186875,303.3461538461538L428.5153125,302.6394230769231L432.84375000000006,301.78846153846155L437.1721875,300.9375L441.500625,299.53846153846155L445.8290625,298.5576923076923L450.1575,296.88461538461536L454.48593750000003,295.90384615384613L458.814375,294.9230769230769L463.14281250000005,293.6682692307692L467.47125000000005,292.125L471.7996875,291L476.128125,289.38461538461536L480.4565625,288.11538461538464L484.785,286.9326923076923L489.11343750000003,285.96634615384613L493.441875,284.25L497.77031250000005,281.91346153846155L502.09875000000005,280.6730769230769L506.4271875,278.5528846153846L510.755625,277.21153846153845L515.0840625000001,276.30288461538464L519.4125,275.19230769230774L523.7409375,273.7067307692308L528.069375,271.99038461538464L532.3978125,270.0576923076923L536.72625,268.2980769230769L541.0546875000001,267.46153846153845L545.3831250000001,265.875L549.7115625,264.25961538461536L554.04,262.75961538461536L558.3684375,261.9375L562.696875,260.4807692307692L567.0253124999999,259.5L571.3537500000001,257.7692307692308L575.6821875,255.9375L580.010625,254.0480769230769L584.3390625000001,251.7980769230769L588.6675,249.9230769230769L592.9959375,248.19230769230768L597.324375,246.2596153846154L601.6528125000001,243.83653846153845L605.98125,241.7019230769231L610.3096875,240.4326923076923L614.6381250000001,238.58653846153845L618.9665625,236.40865384615384L623.295,234.66346153846152L627.6234375,232.34134615384616L631.951875,229.73076923076923L636.2803125,227.35096153846155L640.6087500000001,225.34615384615387L644.9371875,222.41826923076923L649.265625,220.26923076923077L653.5940625000001,217.5L657.9225,215.39423076923077L662.2509375,213L666.579375,210.69230769230768L670.9078125000001,208.06730769230768L675.23625,205.15384615384616L679.5646875,202.5L683.893125,199.3846153846154L688.2215625,196.7451923076923L692.55,193.52884615384616L696.8784375,191.58173076923077L701.2068750000001,189.46153846153845L705.5353125,187.22596153846155L709.8637500000001,184.2403846153846L714.1921875,180.89423076923077L718.520625,178.03846153846152L722.8490625,174.8653846153846L727.1775,172.52884615384613L731.5059375000001,170.95673076923075L735.834375,168.51923076923077L740.1628125000001,165.89423076923077L744.49125,163.29807692307693L748.8196875,160.2403846153846L753.148125,157.70192307692307L757.4765625,155.07692307692307L761.805,152.1923076923077L766.1334375000001,149.84134615384613L770.4618750000001,146.53846153846155L774.7903125,143.30769230769232L779.1187500000001,140.45192307692307L783.4471875,137.2355769230769L787.775625,134.10576923076925L792.1040624999999,130.97596153846155L796.4325000000001,128.42307692307693L800.7609375000001,125.33653846153845L805.089375,122.24999999999997L809.4178125000001,119.49519230769232L813.74625,116.16346153846155L818.0746875,113.20673076923077L822.403125,110.88461538461542L826.7315625,107.55288461538464L831.0600000000001,104.39423076923077L835.3884375000001,101.85576923076923L839.7168750000001,99.31730769230768L844.0453125,96.7644230769231L848.37375,93.57692307692304L852.7021875,91.03846153846155L857.030625,88.93269230769232L861.3590625,86.14903846153845L865.6875000000001,83.33653846153845L870.0159375000001,80.50961538461542L874.344375,77.56730769230768L878.6728125000001,75L883.00125,72.43269230769232L887.3296875,68.8125L891.658125,65.7980769230769L895.9865625000001,62.97115384615387L900.315,60.230769230769226L904.6434375,57.43269230769232L908.9718750000001,54.08653846153845L913.3003125,50.84134615384613L917.62875,48.11538461538464L921.9571875,45.20192307692304L926.2856250000001,42.49038461538464L930.6140625,39.53365384615387L934.9425000000001,36.894230769230774L939.2709375000001,33.259615384615415L943.599375,30.173076923076906L947.9278125000001,27.649038461538453L952.25625,24.288461538461547" style="fill: none;" fill="none"></path></g><g><path stroke="rgb(255, 112, 67)" stroke-width="2px" d="M90.8971875,346.15384615384613L95.225625,346.15384615384613L99.55406250000001,346.15384615384613L103.88250000000001,346.15384615384613L108.21093750000001,346.15384615384613L112.539375,346.15384615384613L116.86781250000001,346.15384615384613L121.19625,346.15384615384613L125.52468750000001,346.15384615384613L129.853125,346.15384615384613L134.1815625,346.15384615384613L138.51,346.15384615384613L142.83843750000003,346.15384615384613L147.166875,346.15384615384613L151.4953125,346.15384615384613L155.82375,346.15384615384613L160.15218750000003,346.0817307692308L164.480625,346.00961538461536L168.8090625,345.9519230769231L173.1375,345.8076923076923L177.46593750000002,345.67788461538464L181.794375,345.5480769230769L186.1228125,345.375L190.45125,345.1730769230769L194.77968750000002,345.1298076923077L199.10812500000003,344.91346153846155L203.4365625,344.8269230769231L207.76500000000001,344.5673076923077L212.0934375,344.33653846153845L216.42187500000003,343.84615384615387L220.7503125,343.58653846153845L225.07875,343.24038461538464L229.4071875,343.02403846153845L233.73562500000003,342.66346153846155L238.0640625,342.34615384615387L242.3925,342.08653846153845L246.7209375,341.6826923076923L251.04937500000003,341.33653846153845L255.3778125,341.0625L259.70625,340.52884615384613L264.0346875,340.2980769230769L268.363125,339.66346153846155L272.69156250000003,338.8269230769231L277.02,337.9326923076923L281.3484375,337.52884615384613L285.67687500000005,337.24038461538464L290.0053125,336.67788461538464L294.33375,335.9423076923077L298.6621875,335.22115384615387L302.990625,334.21153846153845L307.31906250000003,333.7355769230769L311.6475,332.91346153846155L315.9759375,332.16346153846155L320.30437500000005,331.47115384615387L324.6328125,330.44711538461536L328.96125,329.59615384615387L333.2896875,329.03365384615387L337.618125,328.58653846153845L341.9465625,327.7355769230769L346.275,326.8269230769231L350.60343750000004,326.2644230769231L354.93187500000005,325.7307692307692L359.2603125,325.09615384615387L363.58875,324.25961538461536L367.9171875,323.8269230769231L372.245625,323.33653846153845L376.5740625,322.77403846153845L380.9025,321.86538461538464L385.23093750000004,321.59134615384613L389.55937500000005,320.7980769230769L393.8878125,320.17788461538464L398.21625000000006,319.8173076923077L402.5446875,319.2692307692308L406.873125,318.6057692307692L411.2015625,318.0144230769231L415.53000000000003,317.53846153846155L419.85843750000004,317.16346153846155L424.186875,316.78846153846155L428.5153125,316.42788461538464L432.84375000000006,315.83653846153845L437.1721875,315.5336538461538L441.500625,315.02884615384613L445.8290625,314.625L450.1575,314.33653846153845L454.48593750000003,313.5576923076923L458.814375,312.8076923076923L463.14281250000005,312.3894230769231L467.47125000000005,311.74038461538464L471.7996875,311.3076923076923L476.128125,310.47115384615387L480.4565625,310.1826923076923L484.785,309.75L489.11343750000003,309.10096153846155L493.441875,308.3076923076923L497.77031250000005,307.58653846153845L502.09875000000005,307.0673076923077L506.4271875,306.6923076923077L510.755625,306.0576923076923L515.0840625000001,305.0913461538462L519.4125,304.21153846153845L523.7409375,303.25961538461536L528.069375,301.75961538461536L532.3978125,300.8076923076923L536.72625,299.6826923076923L541.0546875000001,299.09134615384613L545.3831250000001,297.9519230769231L549.7115625,296.7548076923077L554.04,296.2211538461538L558.3684375,295.5L562.696875,294.83653846153845L567.0253124999999,294.0288461538462L571.3537500000001,293.36538461538464L575.6821875,291.9230769230769L580.010625,291.0576923076923L584.3390625000001,290.17788461538464L588.6675,289.6730769230769L592.9959375,289.19711538461536L597.324375,288.1442307692308L601.6528125000001,287.2355769230769L605.98125,286.00961538461536L610.3096875,285.3605769230769L614.6381250000001,284.71153846153845L618.9665625,283.90384615384613L623.295,283.1538461538462L627.6234375,281.88461538461536L631.951875,280.6730769230769L636.2803125,279.7211538461538L640.6087500000001,278.1923076923077L644.9371875,277.5432692307692L649.265625,276.83653846153845L653.5940625000001,275.55288461538464L657.9225,274.3269230769231L662.2509375,273.5336538461538L666.579375,272.7692307692308L670.9078125000001,271.84615384615387L675.23625,271.1826923076923L679.5646875,269.7548076923077L683.893125,268.58653846153845L688.2215625,267.3317307692308L692.55,266.5673076923077L696.8784375,265.8605769230769L701.2068750000001,264.43269230769226L705.5353125,263.0625L709.8637500000001,261.75L714.1921875,260.1057692307692L718.520625,259.24038461538464L722.8490625,258.2163461538462L727.1775,256.78846153846155L731.5059375000001,255.3605769230769L735.834375,254.56730769230768L740.1628125000001,253.71634615384616L744.49125,252.2019230769231L748.8196875,250.71634615384613L753.148125,249.72115384615384L757.4765625,248.625L761.805,247.29807692307693L766.1334375000001,246.47596153846155L770.4618750000001,245.1923076923077L774.7903125,243.9951923076923L779.1187500000001,243.0576923076923L783.4471875,241.54326923076923L787.775625,240.2596153846154L792.1040624999999,239.0625L796.4325000000001,238.06730769230768L800.7609375000001,236.84134615384616L805.089375,235.2403846153846L809.4178125000001,233.94230769230768L813.74625,232.55769230769232L818.0746875,231.24519230769232L822.403125,229.9903846153846L826.7315625,228.57692307692307L831.0600000000001,227.07692307692307L835.3884375000001,226.15384615384616L839.7168750000001,224.42307692307693L844.0453125,222.96634615384616L848.37375,221.8846153846154L852.7021875,221.1201923076923L857.030625,219.5769230769231L861.3590625,217.97596153846155L865.6875000000001,216.2596153846154L870.0159375000001,214.58653846153845L874.344375,212.8269230769231L878.6728125000001,211.6153846153846L883.00125,210L887.3296875,208.62980769230768L891.658125,207.20192307692307L895.9865625000001,205.8173076923077L900.315,204.14423076923077L904.6434375,202.39903846153845L908.9718750000001,200.53846153846155L913.3003125,199.08173076923077L917.62875,197.8846153846154L921.9571875,196.58653846153845L926.2856250000001,194.48076923076923L930.6140625,193.3125L934.9425000000001,191.79807692307693L939.2709375000001,190.3846153846154L943.599375,189.34615384615384L947.9278125000001,187.24038461538464L952.25625,185.82692307692307" style="fill: none;" fill="none"></path></g></g></g></g></g></g><g transform="translate(73, 375)" clip-path="url(#clip_1)"><clipPath id="clip_1"><rect width="1038" height="25"></rect></clipPath><g><g><line x1="0" y1="0" x2="0" y2="5" style="visibility: inherit;" fill="rgb(0, 0, 0)" stroke="rgb(204, 204, 204)" stroke-width="1px"></line><line x1="86.56875" y1="0" x2="86.56875" y2="5" style="visibility: inherit;" fill="rgb(0, 0, 0)" stroke="rgb(204, 204, 204)" stroke-width="1px"></line><line x1="173.1375" y1="0" x2="173.1375" y2="5" style="visibility: inherit;" fill="rgb(0, 0, 0)" stroke="rgb(204, 204, 204)" stroke-width="1px"></line><line x1="259.70625" y1="0" x2="259.70625" y2="5" style="visibility: inherit;" fill="rgb(0, 0, 0)" stroke="rgb(204, 204, 204)" stroke-width="1px"></line><line x1="346.275" y1="0" x2="346.275" y2="5" style="visibility: inherit;" fill="rgb(0, 0, 0)" stroke="rgb(204, 204, 204)" stroke-width="1px"></line><line x1="432.84375000000006" y1="0" x2="432.84375000000006" y2="5" style="visibility: inherit;" fill="rgb(0, 0, 0)" stroke="rgb(204, 204, 204)" stroke-width="1px"></line><line x1="519.4125" y1="0" x2="519.4125" y2="5" style="visibility: inherit;" fill="rgb(0, 0, 0)" stroke="rgb(204, 204, 204)" stroke-width="1px"></line><line x1="605.98125" y1="0" x2="605.98125" y2="5" style="visibility: inherit;" fill="rgb(0, 0, 0)" stroke="rgb(204, 204, 204)" stroke-width="1px"></line><line x1="692.55" y1="0" x2="692.55" y2="5" style="visibility: inherit;" fill="rgb(0, 0, 0)" stroke="rgb(204, 204, 204)" stroke-width="1px"></line><line x1="779.1187500000001" y1="0" x2="779.1187500000001" y2="5" style="visibility: inherit;" fill="rgb(0, 0, 0)" stroke="rgb(204, 204, 204)" stroke-width="1px"></line><line x1="865.6875000000001" y1="0" x2="865.6875000000001" y2="5" style="visibility: inherit;" fill="rgb(0, 0, 0)" stroke="rgb(204, 204, 204)" stroke-width="1px"></line><line x1="952.25625" y1="0" x2="952.25625" y2="5" style="visibility: inherit;" fill="rgb(0, 0, 0)" stroke="rgb(204, 204, 204)" stroke-width="1px"></line><line x1="1038.825" y1="0" x2="1038.825" y2="5" style="visibility: inherit;" fill="rgb(0, 0, 0)" stroke="rgb(204, 204, 204)" stroke-width="1px"></line></g><g transform="translate(0, 8)"><text x="0" y="0" dx="0em" dy="0.95em" style="text-anchor: middle; visibility: hidden; font-family: &quot;Helvetica Neue&quot;, sans-serif; font-size: 12px; font-weight: 200;" fill="rgb(33, 33, 33)" stroke="none" stroke-width="1px">-200k</text><text x="86.56875" y="0" dx="0em" dy="0.95em" style="text-anchor: middle; visibility: inherit; font-family: &quot;Helvetica Neue&quot;, sans-serif; font-size: 12px; font-weight: 200;" fill="rgb(33, 33, 33)" stroke="none" stroke-width="1px">0</text><text x="173.1375" y="0" dx="0em" dy="0.95em" style="text-anchor: middle; visibility: inherit; font-family: &quot;Helvetica Neue&quot;, sans-serif; font-size: 12px; font-weight: 200;" fill="rgb(33, 33, 33)" stroke="none" stroke-width="1px">200k</text><text x="259.70625" y="0" dx="0em" dy="0.95em" style="text-anchor: middle; visibility: inherit; font-family: &quot;Helvetica Neue&quot;, sans-serif; font-size: 12px; font-weight: 200;" fill="rgb(33, 33, 33)" stroke="none" stroke-width="1px">400k</text><text x="346.275" y="0" dx="0em" dy="0.95em" style="text-anchor: middle; visibility: inherit; font-family: &quot;Helvetica Neue&quot;, sans-serif; font-size: 12px; font-weight: 200;" fill="rgb(33, 33, 33)" stroke="none" stroke-width="1px">600k</text><text x="432.84375000000006" y="0" dx="0em" dy="0.95em" style="text-anchor: middle; visibility: inherit; font-family: &quot;Helvetica Neue&quot;, sans-serif; font-size: 12px; font-weight: 200;" fill="rgb(33, 33, 33)" stroke="none" stroke-width="1px">800k</text><text x="519.4125" y="0" dx="0em" dy="0.95em" style="text-anchor: middle; visibility: inherit; font-family: &quot;Helvetica Neue&quot;, sans-serif; font-size: 12px; font-weight: 200;" fill="rgb(33, 33, 33)" stroke="none" stroke-width="1px">1M</text><text x="605.98125" y="0" dx="0em" dy="0.95em" style="text-anchor: middle; visibility: inherit; font-family: &quot;Helvetica Neue&quot;, sans-serif; font-size: 12px; font-weight: 200;" fill="rgb(33, 33, 33)" stroke="none" stroke-width="1px">1.2M</text><text x="692.55" y="0" dx="0em" dy="0.95em" style="text-anchor: middle; visibility: inherit; font-family: &quot;Helvetica Neue&quot;, sans-serif; font-size: 12px; font-weight: 200;" fill="rgb(33, 33, 33)" stroke="none" stroke-width="1px">1.4M</text><text x="779.1187500000001" y="0" dx="0em" dy="0.95em" style="text-anchor: middle; visibility: inherit; font-family: &quot;Helvetica Neue&quot;, sans-serif; font-size: 12px; font-weight: 200;" fill="rgb(33, 33, 33)" stroke="none" stroke-width="1px">1.6M</text><text x="865.6875000000001" y="0" dx="0em" dy="0.95em" style="text-anchor: middle; visibility: inherit; font-family: &quot;Helvetica Neue&quot;, sans-serif; font-size: 12px; font-weight: 200;" fill="rgb(33, 33, 33)" stroke="none" stroke-width="1px">1.8M</text><text x="952.25625" y="0" dx="0em" dy="0.95em" style="text-anchor: middle; visibility: inherit; font-family: &quot;Helvetica Neue&quot;, sans-serif; font-size: 12px; font-weight: 200;" fill="rgb(33, 33, 33)" stroke="none" stroke-width="1px">2M</text><text x="1038.825" y="0" dx="0em" dy="0.95em" style="text-anchor: middle; visibility: hidden; font-family: &quot;Helvetica Neue&quot;, sans-serif; font-size: 12px; font-weight: 200;" fill="rgb(33, 33, 33)" stroke="none" stroke-width="1px">2.2M</text></g><line x1="0" y1="0" x2="1038.825" y2="0" fill="rgb(0, 0, 0)" stroke="rgb(204, 204, 204)" stroke-width="1px"></line></g></g></g></g></svg>