<svg viewBox="0 0 1112.2000732421875 400" xmlns="http://www.w3.org/2000/svg"><g><g><g><g><g><line x1="73.375" y1="375" x2="68.375" y2="375" style="visibility: inherit;" fill="rgb(0, 0, 0)" stroke="rgb(204, 204, 204)" stroke-width="1px"></line><line x1="73.375" y1="337.5" x2="68.375" y2="337.5" style="visibility: inherit;" fill="rgb(0, 0, 0)" stroke="rgb(204, 204, 204)" stroke-width="1px"></line><line x1="73.375" y1="300" x2="68.375" y2="300" style="visibility: inherit;" fill="rgb(0, 0, 0)" stroke="rgb(204, 204, 204)" stroke-width="1px"></line><line x1="73.375" y1="262.5" x2="68.375" y2="262.5" style="visibility: inherit;" fill="rgb(0, 0, 0)" stroke="rgb(204, 204, 204)" stroke-width="1px"></line><line x1="73.375" y1="225" x2="68.375" y2="225" style="visibility: inherit;" fill="rgb(0, 0, 0)" stroke="rgb(204, 204, 204)" stroke-width="1px"></line><line x1="73.375" y1="187.5" x2="68.375" y2="187.5" style="visibility: inherit;" fill="rgb(0, 0, 0)" stroke="rgb(204, 204, 204)" stroke-width="1px"></line><line x1="73.375" y1="150" x2="68.375" y2="150" style="visibility: inherit;" fill="rgb(0, 0, 0)" stroke="rgb(204, 204, 204)" stroke-width="1px"></line><line x1="73.375" y1="112.5" x2="68.375" y2="112.5" style="visibility: inherit;" fill="rgb(0, 0, 0)" stroke="rgb(204, 204, 204)" stroke-width="1px"></line><line x1="73.375" y1="75" x2="68.375" y2="75" style="visibility: inherit;" fill="rgb(0, 0, 0)" stroke="rgb(204, 204, 204)" stroke-width="1px"></line><line x1="73.375" y1="37.5" x2="68.375" y2="37.5" style="visibility: inherit;" fill="rgb(0, 0, 0)" stroke="rgb(204, 204, 204)" stroke-width="1px"></line><line x1="73.375" y1="0" x2="68.375" y2="0" style="visibility: inherit;" fill="rgb(0, 0, 0)" stroke="rgb(204, 204, 204)" stroke-width="1px"></line></g><g transform="translate(63.375, 0)"><text x="0" y="375" dx="0em" dy="0.3em" style="text-anchor: end; visibility: hidden; font-family: &quot;Helvetica Neue&quot;, sans-serif; font-size: 12px; font-weight: 200;" fill="rgb(33, 33, 33)" stroke="none" stroke-width="1px">-5e+3</text><text x="0" y="337.5" dx="0em" dy="0.3em" style="text-anchor: end; visibility: inherit; font-family: &quot;Helvetica Neue&quot;, sans-serif; font-size: 12px; font-weight: 200;" fill="rgb(33, 33, 33)" stroke="none" stroke-width="1px">0</text><text x="0" y="300" dx="0em" dy="0.3em" style="text-anchor: end; visibility: inherit; font-family: &quot;Helvetica Neue&quot;, sans-serif; font-size: 12px; font-weight: 200;" fill="rgb(33, 33, 33)" stroke="none" stroke-width="1px">5e+3</text><text x="0" y="262.5" dx="0em" dy="0.3em" style="text-anchor: end; visibility: inherit; font-family: &quot;Helvetica Neue&quot;, sans-serif; font-size: 12px; font-weight: 200;" fill="rgb(33, 33, 33)" stroke="none" stroke-width="1px">1e+4</text><text x="0" y="225" dx="0em" dy="0.3em" style="text-anchor: end; visibility: inherit; font-family: &quot;Helvetica Neue&quot;, sans-serif; font-size: 12px; font-weight: 200;" fill="rgb(33, 33, 33)" stroke="none" stroke-width="1px">1.5e+4</text><text x="0" y="187.5" dx="0em" dy="0.3em" style="text-anchor: end; visibility: inherit; font-family: &quot;Helvetica Neue&quot;, sans-serif; font-size: 12px; font-weight: 200;" fill="rgb(33, 33, 33)" stroke="none" stroke-width="1px">2e+4</text><text x="0" y="150" dx="0em" dy="0.3em" style="text-anchor: end; visibility: inherit; font-family: &quot;Helvetica Neue&quot;, sans-serif; font-size: 12px; font-weight: 200;" fill="rgb(33, 33, 33)" stroke="none" stroke-width="1px">2.5e+4</text><text x="0" y="112.5" dx="0em" dy="0.3em" style="text-anchor: end; visibility: inherit; font-family: &quot;Helvetica Neue&quot;, sans-serif; font-size: 12px; font-weight: 200;" fill="rgb(33, 33, 33)" stroke="none" stroke-width="1px">3e+4</text><text x="0" y="75" dx="0em" dy="0.3em" style="text-anchor: end; visibility: inherit; font-family: &quot;Helvetica Neue&quot;, sans-serif; font-size: 12px; font-weight: 200;" fill="rgb(33, 33, 33)" stroke="none" stroke-width="1px">3.5e+4</text><text x="0" y="37.5" dx="0em" dy="0.3em" style="text-anchor: end; visibility: inherit; font-family: &quot;Helvetica Neue&quot;, sans-serif; font-size: 12px; font-weight: 200;" fill="rgb(33, 33, 33)" stroke="none" stroke-width="1px">4e+4</text><text x="0" y="0" dx="0em" dy="0.3em" style="text-anchor: end; visibility: hidden; font-family: &quot;Helvetica Neue&quot;, sans-serif; font-size: 12px; font-weight: 200;" fill="rgb(33, 33, 33)" stroke="none" stroke-width="1px">4.5e+4</text></g><line x1="73.375" y1="0" x2="73.375" y2="375" fill="rgb(0, 0, 0)" stroke="rgb(204, 204, 204)" stroke-width="1px"></line></g></g><g transform="translate(73, 0)" clip-path="url(#clip_0)"><clipPath id="clip_0"><rect width="1038" height="375"></rect></clipPath><g><g><g><line x1="0" y1="0" x2="0" y2="375" fill="rgb(0, 0, 0)" stroke="rgb(66, 66, 66)" stroke-width="1px" opacity="0.25"></line><line x1="86.56875" y1="0" x2="86.56875" y2="375" fill="rgb(0, 0, 0)" stroke="rgb(66, 66, 66)" stroke-width="1px" opacity="0.25"></line><line x1="173.1375" y1="0" x2="173.1375" y2="375" fill="rgb(0, 0, 0)" stroke="rgb(66, 66, 66)" stroke-width="1px" opacity="0.25"></line><line x1="259.70625" y1="0" x2="259.70625" y2="375" fill="rgb(0, 0, 0)" stroke="rgb(66, 66, 66)" stroke-width="1px" opacity="0.25"></line><line x1="346.275" y1="0" x2="346.275" y2="375" fill="rgb(0, 0, 0)" stroke="rgb(66, 66, 66)" stroke-width="1px" opacity="0.25"></line><line x1="432.84375000000006" y1="0" x2="432.84375000000006" y2="375" fill="rgb(0, 0, 0)" stroke="rgb(66, 66, 66)" stroke-width="1px" opacity="0.25"></line><line x1="519.4125" y1="0" x2="519.4125" y2="375" fill="rgb(0, 0, 0)" stroke="rgb(66, 66, 66)" stroke-width="1px" opacity="0.25"></line><line x1="605.98125" y1="0" x2="605.98125" y2="375" fill="rgb(0, 0, 0)" stroke="rgb(66, 66, 66)" stroke-width="1px" opacity="0.25"></line><line x1="692.55" y1="0" x2="692.55" y2="375" fill="rgb(0, 0, 0)" stroke="rgb(66, 66, 66)" stroke-width="1px" opacity="0.25"></line><line x1="779.1187500000001" y1="0" x2="779.1187500000001" y2="375" fill="rgb(0, 0, 0)" stroke="rgb(66, 66, 66)" stroke-width="1px" opacity="0.25"></line><line x1="865.6875000000001" y1="0" x2="865.6875000000001" y2="375" fill="rgb(0, 0, 0)" stroke="rgb(66, 66, 66)" stroke-width="1px" opacity="0.25"></line><line x1="952.25625" y1="0" x2="952.25625" y2="375" fill="rgb(0, 0, 0)" stroke="rgb(66, 66, 66)" stroke-width="1px" opacity="0.25"></line><line x1="1038.825" y1="0" x2="1038.825" y2="375" fill="rgb(0, 0, 0)" stroke="rgb(66, 66, 66)" stroke-width="1px" opacity="0.25"></line></g><g><line x1="0" y1="375" x2="1038.825" y2="375" fill="rgb(0, 0, 0)" stroke="rgb(66, 66, 66)" stroke-width="1px" opacity="0.25"></line><line x1="0" y1="337.5" x2="1038.825" y2="337.5" fill="rgb(0, 0, 0)" stroke="rgb(66, 66, 66)" stroke-width="1px" opacity="0.25"></line><line x1="0" y1="300" x2="1038.825" y2="300" fill="rgb(0, 0, 0)" stroke="rgb(66, 66, 66)" stroke-width="1px" opacity="0.25"></line><line x1="0" y1="262.5" x2="1038.825" y2="262.5" fill="rgb(0, 0, 0)" stroke="rgb(66, 66, 66)" stroke-width="1px" opacity="0.25"></line><line x1="0" y1="225" x2="1038.825" y2="225" fill="rgb(0, 0, 0)" stroke="rgb(66, 66, 66)" stroke-width="1px" opacity="0.25"></line><line x1="0" y1="187.5" x2="1038.825" y2="187.5" fill="rgb(0, 0, 0)" stroke="rgb(66, 66, 66)" stroke-width="1px" opacity="0.25"></line><line x1="0" y1="150" x2="1038.825" y2="150" fill="rgb(0, 0, 0)" stroke="rgb(66, 66, 66)" stroke-width="1px" opacity="0.25"></line><line x1="0" y1="112.5" x2="1038.825" y2="112.5" fill="rgb(0, 0, 0)" stroke="rgb(66, 66, 66)" stroke-width="1px" opacity="0.25"></line><line x1="0" y1="75" x2="1038.825" y2="75" fill="rgb(0, 0, 0)" stroke="rgb(66, 66, 66)" stroke-width="1px" opacity="0.25"></line><line x1="0" y1="37.5" x2="1038.825" y2="37.5" fill="rgb(0, 0, 0)" stroke="rgb(66, 66, 66)" stroke-width="1px" opacity="0.25"></line><line x1="0" y1="0" x2="1038.825" y2="0" fill="rgb(0, 0, 0)" stroke="rgb(66, 66, 66)" stroke-width="1px" opacity="0.25"></line></g></g></g><g><g><line x1="0" y1="337.5" x2="1038.825" y2="337.5" fill="rgb(0, 0, 0)" stroke="rgb(153, 153, 153)" stroke-width="1.5px"></line></g></g><g><g><line x1="86.56875" y1="0" x2="86.56875" y2="375" fill="rgb(0, 0, 0)" stroke="rgb(153, 153, 153)" stroke-width="1.5px"></line></g></g><g><g><g><g><g><path stroke="rgb(187, 187, 187)" stroke-width="2px" d="M90.8971875,337.4925L95.225625,337.48323502161827L99.55406250000001,337.48037060581044L103.88250000000001,337.475739501712L108.21093750000001,337.4670478848325L112.539375,337.4470449184951L116.86781250000001,337.41761866890977L121.19625,337.3825270969926L125.52468750000001,337.3279726663642L129.853125,337.23270833032814L134.1815625,337.08518983097525L138.51,336.8854128362739L142.83843750000003,336.6275755074511L147.166875,336.3710131663425L151.4953125,336.12946336306567L155.82375,335.89429106794L160.15218750000003,335.63874143307686L164.480625,335.33055608860786L168.8090625,334.93406053099983L173.1375,334.37431029120796L177.46593750000002,333.6306391735186L181.794375,332.8131292841756L186.1228125,331.83417994091735L190.45125,330.80959212396164L194.77968750000002,329.681028029656L199.10812500000003,328.37665884589495L203.4365625,327.05204867977636L207.76500000000001,325.67204610408044L212.0934375,324.1777451786513L216.42187500000003,322.6126933840327L220.7503125,320.92097911487224L225.07875,319.07370817341956L229.4071875,317.2930251214557L233.73562500000003,315.44783239759187L238.0640625,313.6112856600992L242.3925,311.72008326367734L246.7209375,309.71075275080636L251.04937500000003,307.59401092705036L255.3778125,305.5207952482637L259.70625,303.37736724870433L264.0346875,301.18047657062203L268.363125,298.9304899932047L272.69156250000003,296.61763330324186L277.02,294.3115800131318L281.3484375,291.9440155271277L285.67687500000005,289.47836811064684L290.0053125,287.05630611009803L294.33375,284.54120848189854L298.6621875,281.97280805013577L302.990625,279.38284318293455L307.31906250000003,276.8109624301753L311.6475,274.1045432442387L315.9759375,271.39342601815906L320.30437500000005,268.68225820522514L324.6328125,265.93819782902483L328.96125,263.1909219561604L333.2896875,260.38021944085955L337.618125,257.5159683338897L341.9465625,254.60571189867625L346.275,251.6298306652796L350.60343750000004,248.5747514318075L354.93187500000005,245.50493863628847L359.2603125,242.40314576586232L363.58875,239.21011972906862L367.9171875,236.1592166122934L372.245625,233.13628008300955L376.5740625,229.95920487138287L380.9025,226.74386781538598L385.23093750000004,223.6191466777239L389.55937500000005,220.4847942935111L393.8878125,217.44449266768336L398.21625000000006,214.35096596129597L402.5446875,211.1730579300422L406.873125,207.97149285869614L411.2015625,204.74814032953293L415.53000000000003,201.55987886398086L419.85843750000004,198.35476251680416L424.186875,195.15350049790177L428.5153125,191.9917718082012L432.84375000000006,188.78021924927657L437.1721875,185.6149782153022L441.500625,182.50983651527207L445.8290625,179.4261800529534L450.1575,176.28724295277814L454.48593750000003,172.9640683877697L458.814375,169.60686083202947L463.14281250000005,166.1928681050262L467.47125000000005,162.82373535701126L471.7996875,159.41236218598993L476.128125,156.0862846931278L480.4565625,152.7387102250461L484.785,149.43497912930354L489.11343750000003,145.9783645810389L493.441875,142.47569267566308L497.77031250000005,139.05738251623544L502.09875000000005,135.63414227754976L506.4271875,132.1621303198033L510.755625,128.6713586679582L515.0840625000001,125.24184101546612L519.4125,121.79023208857353L523.7409375,118.37924116282699L528.069375,114.93338527978995L532.3978125,111.39022423819L536.72625,107.93827880343957L541.0546875000001,104.61566207932913L545.3831250000001,101.4559673271047L549.7115625,98.16566377547787L554.04,94.89738337702079L558.3684375,91.49986031037582L562.696875,88.01376353212265L567.0253124999999,84.43712087638391L571.3537500000001,80.92158782248168L575.6821875,77.34672661211607L580.010625,73.84658377289986L584.3390625000001,70.391262855425L588.6675,66.89224920750803L592.9959375,63.45477225944745L597.324375,60.14396902859795L601.6528125000001,56.74584182870211L605.98125,53.325093591966606L610.3096875,49.83176418342737L614.6381250000001,46.27064702954152L618.9665625,42.73472051128624L623.295,39.24010449648614L627.6234375,35.79534843332499L631.951875,32.238580680228154L636.2803125,28.79964394106122L640.6087500000001,25.376494599516946L644.9371875,21.88025015710099L649.265625,18.418769847245585L653.5940625000001,14.811644785444969L657.9225,11.202948122190492L662.2509375,7.699006137635877L666.579375,4.259907299196584L670.9078125000001,0.7995101182026474L675.23625,-2.6369232368325584" style="fill: none;" fill="none"></path></g><g><path stroke="rgb(0, 153, 136)" stroke-width="2px" d="M90.8971875,337.47L95.225625,337.4607350216183L99.55406250000001,337.4335219145713L103.88250000000001,337.4062719309317L108.21093750000001,337.37640292411925L112.539375,337.335465570597L116.86781250000001,337.2864320689639L121.19625,337.2352533514343L125.52468750000001,337.1651654730349L129.853125,337.0805839023551L134.1815625,336.9525481573436L138.51,336.797734922442L142.83843750000003,336.622041277518L147.166875,336.4162265076502L151.4953125,336.1974725299583L155.82375,335.922082558354L160.15218750000003,335.6516538368893L164.480625,335.3585540518696L168.8090625,335.0228354669673L173.1375,334.6635906519425L177.46593750000002,334.2954945730584L181.794375,333.87333760836793L186.1228125,333.42343120166265L190.45125,332.99349460876147L194.77968750000002,332.58877690429836L199.10812500000003,332.2196714876171L203.4365625,331.82260320783274L207.76500000000001,331.3739357260756L212.0934375,330.9404770700049L216.42187500000003,330.470712541727L220.7503125,329.9684733882151L225.07875,329.44613241457114L229.4071875,328.9942159042456L233.73562500000003,328.5916071114341L238.0640625,328.1895160313952L242.3925,327.7763154103411L246.7209375,327.3319492302856L251.04937500000003,326.7682790667034L255.3778125,326.2479172383788L259.70625,325.7829382683935L264.0346875,325.25222878660736L268.363125,324.67797461788643L272.69156250000003,324.162491287903L277.02,323.7062471069003L281.3484375,323.31381820900543L285.67687500000005,323.006610971294L290.0053125,322.7050071911821L294.33375,322.3468644513058L298.6621875,321.94943784533365L302.990625,321.49054702624386L307.31906250000003,321.07361985923507L311.6475,320.65123569286027L315.9759375,320.2068998938765L320.30437500000005,319.69468353430665L324.6328125,319.1961703577341L328.96125,318.71756945143636L333.2896875,318.2484367404385L337.618125,317.765162342331L341.9465625,317.25598923990265L346.275,316.6307723394995L350.60343750000004,316.0580255781501L354.93187500000005,315.52633033287486L359.2603125,315.0100447260495L363.58875,314.46900768542463L367.9171875,313.9497970072778L372.245625,313.47552934750496L376.5740625,313.00193516610557L380.9025,312.52875786781937L385.23093750000004,312.0229773701802L389.55937500000005,311.4312929921415L393.8878125,310.8421553621356L398.21625000000006,310.22601916916193L402.5446875,309.64746336571125L406.873125,309.06645232337524L411.2015625,308.4824927381693L415.53000000000003,307.8395580049268L419.85843750000004,307.2186964050497L424.186875,306.52291557472574L428.5153125,305.94506599075527L432.84375000000006,305.4030683482775L437.1721875,304.84611555758374L441.500625,304.1741780301444L445.8290625,303.54965120065935L450.1575,302.8601740932081L454.48593750000003,302.14763776369585L458.814375,301.3293877757277L463.14281250000005,300.59143353317546L467.47125000000005,299.8403173570356L471.7996875,299.12534519400504L476.128125,298.20986117508915L480.4565625,297.35028281738016L484.785,296.50530756395835L489.11343750000003,295.6979466320902L493.441875,294.89100896526384L497.77031250000005,294.1886320494983L502.09875000000005,293.3566682386395L506.4271875,292.5630763897178L510.755625,291.7818067852353L515.0840625000001,291.0867459000607L519.4125,290.3393207121376L523.7409375,289.46947077081313L528.069375,288.5924199071334L532.3978125,287.87521792251556L536.72625,287.1740948940371L541.0546875000001,286.43720473940897L545.3831250000001,285.65817223369413L549.7115625,284.8659123626567L554.04,283.9597372524845L558.3684375,282.9773336092879L562.696875,281.98774950414924L567.0253124999999,281.0422981930684L571.3537500000001,280.0555850815093L575.6821875,279.15048716545425L580.010625,278.1701790554162L584.3390625000001,277.18903583530266L588.6675,276.2016606820523L592.9959375,275.3490167121904L597.324375,274.51404884484583L601.6528125000001,273.7357424849596L605.98125,272.84391959819L610.3096875,272.0375637312796L614.6381250000001,271.19552944966205L618.9665625,270.4042764793408L623.295,269.661602140712L627.6234375,268.84041297510066L631.951875,267.80203063158734L636.2803125,266.63349196095254L640.6087500000001,265.58441152382966L644.9371875,264.62356323325054L649.265625,263.67446814138214L653.5940625000001,262.75122202951553L657.9225,261.8096864362701L662.2509375,260.9211234040512L666.579375,259.9967703871077L670.9078125000001,259.1802796196197L675.23625,258.3476880845446L679.5646875,257.37797142433305L683.893125,256.3405193116622L688.2215625,255.35257895391888L692.55,254.32099137247582L696.8784375,253.48098490956252L701.2068750000001,252.6452671590192L705.5353125,251.7107628714329L709.8637500000001,250.73796971741695L714.1921875,249.7171870050811L718.520625,248.5181087561452L722.8490625,247.3643993200539L727.1775,246.10447067911338L731.5059375000001,244.88880610037117L735.834375,243.70054097612976L740.1628125000001,242.61496111422431L744.49125,241.61866092970484L748.8196875,240.7104861154873L753.148125,239.66255090548663L757.4765625,238.69098151049624L761.805,237.62095005499717L766.1334375000001,236.49711433404323L770.4618750000001,235.51142377277276L774.7903125,234.62410381534633L779.1187500000001,233.63765526169936L783.4471875,232.6012761069919L787.775625,231.37682741022797L792.1040624999999,230.24456116693113L796.4325000000001,229.04076836233037L800.7609375000001,227.8212756162825L805.089375,226.68064710647886L809.4178125000001,225.53168555891043L813.74625,224.24897836096557L818.0746875,223.02064260543767L822.403125,221.7916727727659L826.7315625,220.6408916963421L831.0600000000001,219.42706696003577L835.3884375000001,218.20136444826213L839.7168750000001,216.91401709347426L844.0453125,215.6470903308606L848.37375,214.4128064148027L852.7021875,213.21873092076288L857.030625,211.9695344399522L861.3590625,210.74479681833043L865.6875000000001,209.59806423054656L870.0159375000001,208.3838880087083L874.344375,207.12224917739044L878.6728125000001,205.63834974080467L883.00125,204.17117598955812L887.3296875,202.67577918753648L891.658125,201.16576981708508L895.9865625000001,199.57956401677566L900.315,198.03477512638415L904.6434375,196.58706080323176L908.9718750000001,195.16514563720048L913.3003125,193.61489639942707L917.62875,192.02521337124537L921.9571875,190.4168358268009L926.2856250000001,188.88546887678976L930.6140625,187.33747773473286L934.9425000000001,185.80491371779962L939.2709375000001,184.19617409131797L943.599375,182.5574267625258L947.9278125000001,180.98440091600347L952.25625,179.42062416700614" style="fill: none;" fill="none"></path></g><g><path stroke="rgb(238, 51, 119)" stroke-width="2px" d="M90.8971875,337.44L95.225625,337.4261025324274L99.55406250000001,337.41056805122065L103.88250000000001,337.3835207450776L108.21093750000001,337.3521854372657L112.539375,337.3179970969033L116.86781250000001,337.2847409588544L121.19625,337.2283798537865L125.52468750000001,337.1334328615857L129.853125,336.986128412636L134.1815625,336.787994361473L138.51,336.547013456074L142.83843750000003,336.3052665581975L147.166875,336.03146552545024L151.4953125,335.75352105858985L155.82375,335.4558137296208L160.15218750000003,335.1658603172209L164.480625,334.9121223697904L168.8090625,334.6479183855939L173.1375,334.36294204401594L177.46593750000002,334.01509643969814L181.794375,333.6626254849434L186.1228125,333.3258634775448L190.45125,332.9416731456018L194.77968750000002,332.57955968267254L199.10812500000003,332.19396346416056L203.4365625,331.8009749510023L207.76500000000001,331.26339270438655L212.0934375,330.72060334009126L216.42187500000003,330.2460282002008L220.7503125,329.84368131563946L225.07875,329.40603363992574L229.4071875,328.97225226516287L233.73562500000003,328.5151466143352L238.0640625,328.0507469805016L242.3925,327.5246823642617L246.7209375,327.0104533733922L251.04937500000003,326.4321131311083L255.3778125,325.8640942738873L259.70625,325.18530685237863L264.0346875,324.44795493949914L268.363125,323.73721660628314L272.69156250000003,323.1058170785926L277.02,322.45494827120433L281.3484375,321.8106017296031L285.67687500000005,321.1360024704478L290.0053125,320.4083867790893L294.33375,319.7165339161869L298.6621875,319.0139569940761L302.990625,318.281881879305L307.31906250000003,317.55440738327246L311.6475,316.8012056702346L315.9759375,316.02350630986814L320.30437500000005,315.2277854058039L324.6328125,314.46805791618993L328.96125,313.7134653501199L333.2896875,313.01348630172333L337.618125,312.29016302076616L341.9465625,311.54381715985386L346.275,310.7917928219493L350.60343750000004,309.9762460067865L354.93187500000005,309.12709377820073L359.2603125,308.31428979870617L363.58875,307.5125553853991L367.9171875,306.661951783562L372.245625,305.93254565402486L376.5740625,305.1610032598414L380.9025,304.3433760178418L385.23093750000004,303.43292850504406L389.55937500000005,302.5507502446223L393.8878125,301.7017869014212L398.21625000000006,300.83909359197975L402.5446875,299.9936189334354L406.873125,299.10736761979655L411.2015625,298.21587805665405L415.53000000000003,297.22684851706885L419.85843750000004,296.25602298206564L424.186875,295.2964657258986L428.5153125,294.43818103433125L432.84375000000006,293.66258656025104L437.1721875,292.9224610807954L441.500625,292.13856840901235L445.8290625,291.3833050951786L450.1575,290.59432835391556L454.48593750000003,289.69590050107377L458.814375,288.7497249101647L463.14281250000005,287.84543096939194L467.47125000000005,286.9927792700536L471.7996875,286.0863691181632L476.128125,285.149539984143L480.4565625,284.2167415001845L484.785,283.2635779886142L489.11343750000003,282.3721035249522L493.441875,281.37593958194543L497.77031250000005,280.3578353512242L502.09875000000005,279.4204475824078L506.4271875,278.4815883035104L510.755625,277.50467065987294L515.0840625000001,276.5570586384614L519.4125,275.5447192972076L523.7409375,274.5608937449715L528.069375,273.62329322813736L532.3978125,272.705733508217L536.72625,271.7462865415863L541.0546875000001,270.78091386924194L545.3831250000001,269.82616068506076L549.7115625,268.8708372140526L554.04,267.91516073549855L558.3684375,266.90354449527365L562.696875,265.8687315425743L567.0253124999999,264.82956107485353L571.3537500000001,263.77626330533434L575.6821875,262.71707823600195L580.010625,261.7456889280852L584.3390625000001,260.7157739464848L588.6675,259.7096390728741L592.9959375,258.632499086109L597.324375,257.5228369343015L601.6528125000001,256.49162731233264L605.98125,255.4946923063339L610.3096875,254.4703957876207L614.6381250000001,253.43773499253723L618.9665625,252.36703546038052L623.295,251.32422494997553L627.6234375,250.2701027440349L631.951875,249.22040859855758L636.2803125,248.07487167250713L640.6087500000001,246.8985830652819L644.9371875,245.77898291740954L649.265625,244.6401804258765L653.5940625000001,243.50092168361752L657.9225,242.40138552215927L662.2509375,241.32358013821658L666.579375,240.2106486055561L670.9078125000001,239.07168773683924L675.23625,237.9309022091035L679.5646875,236.78041471743506L683.893125,235.5667717100923L688.2215625,234.36261293854713L692.55,233.0957449089607L696.8784375,231.88292859864666L701.2068750000001,230.5978428025623L705.5353125,229.37803594478606L709.8637500000001,228.1729192498226L714.1921875,226.9483207656402L718.520625,225.6573705539313L722.8490625,224.43536237288345L727.1775,223.17887680881486L731.5059375000001,221.9510559946564L735.834375,220.8067011606923L740.1628125000001,219.63828801846853L744.49125,218.41212028343202L748.8196875,217.1244849554444L753.148125,215.93596118742008L757.4765625,214.71306122501304L761.805,213.47173989828306L766.1334375000001,212.23330324703724L770.4618750000001,211.03379970991605L774.7903125,209.82982077043803L779.1187500000001,208.50877155690117L783.4471875,207.20240959372182L787.775625,205.8565615385138L792.1040624999999,204.53484909234007L796.4325000000001,203.16806908815852L800.7609375000001,201.86054601557012L805.089375,200.50969298363788L809.4178125000001,199.21774370687186L813.74625,197.94796835455367L818.0746875,196.63905491146872L822.403125,195.25447999019912L826.7315625,193.90593811393325L831.0600000000001,192.58255819252471L835.3884375000001,191.26332352117277L839.7168750000001,189.92093725960595L844.0453125,188.53707391369608L848.37375,187.21611875257787L852.7021875,185.9569637578457L857.030625,184.71320306610647L861.3590625,183.43325144791993L865.6875000000001,182.29663264626242L870.0159375000001,181.07442935803644L874.344375,179.81067927262455L878.6728125000001,178.5369279697546L883.00125,177.3284234132781L887.3296875,176.03171909281915L891.658125,174.74614161845506L895.9865625000001,173.3874416618237L900.315,172.0206263886689L904.6434375,170.69736523458604L908.9718750000001,169.42392408020874L913.3003125,168.10845525564923L917.62875,166.8212638032469L921.9571875,165.4829960442098L926.2856250000001,164.15311705136588L930.6140625,162.82557320479546L934.9425000000001,161.55090981376838L939.2709375000001,160.20039442472265L943.599375,158.90579664890333L947.9278125000001,157.56008687567115L952.25625,156.20845627604044" style="fill: none;" fill="none"></path></g><g><path stroke="rgb(51, 187, 238)" stroke-width="2px" d="M90.8971875,337.4625L95.225625,337.4532350216183L99.55406250000001,337.42414893832216L103.88250000000001,337.40778296592185L108.21093750000001,337.36942286052073L112.539375,337.32221995668397L116.86781250000001,337.2754545086276L121.19625,337.20518680001743L125.52468750000001,337.1293323408904L129.853125,337.0412291095672L134.1815625,336.9153397631565L138.51,336.7460822192464L142.83843750000003,336.57292822878156L147.166875,336.3629604951606L151.4953125,336.13163017948915L155.82375,335.849890693625L160.15218750000003,335.56267099406875L164.480625,335.2606095769503L168.8090625,334.9593541343123L173.1375,334.6528743058382L177.46593750000002,334.2745732239791L181.794375,333.8803905243477L186.1228125,333.48923415702495L190.45125,333.1085221310292L194.77968750000002,332.7514192357087L199.10812500000003,332.36606702842613L203.4365625,331.9718008042482L207.76500000000001,331.60344915632675L212.0934375,331.2468522032724L216.42187500000003,330.84609628809034L220.7503125,330.48229972548427L225.07875,330.152810958963L229.4071875,329.81598368859954L233.73562500000003,329.5060463776127L238.0640625,329.1998951920708L242.3925,328.84465261263574L246.7209375,328.5075999606107L251.04937500000003,328.13608687110764L255.3778125,327.783247770564L259.70625,327.3791028680991L264.0346875,326.9274834240529L268.363125,326.46647973866703L272.69156250000003,326.00823970772933L277.02,325.57171287878634L281.3484375,325.1557702717929L285.67687500000005,324.6268392981014L290.0053125,324.14083977544607L294.33375,323.581402320945L298.6621875,323.0636605366328L302.990625,322.6174483721586L307.31906250000003,322.20265429235627L311.6475,321.758730506962L315.9759375,321.30534793380536L320.30437500000005,320.8061053710227L324.6328125,320.2984779746613L328.96125,319.7570853663142L333.2896875,319.1776470917477L337.618125,318.6146635497914L341.9465625,317.9889992373205L346.275,317.3788280279012L350.60343750000004,316.76681704927074L354.93187500000005,316.1365222534985L359.2603125,315.56634727491553L363.58875,315.09053646317267L367.9171875,314.62027332070386L372.245625,314.0791491855157L376.5740625,313.5398820958342L380.9025,312.9531870173214L385.23093750000004,312.38142526372195L389.55937500000005,311.7303247382439L393.8878125,311.07440476297296L398.21625000000006,310.42693154828027L402.5446875,309.7103918783855L406.873125,308.9796750727206L411.2015625,308.26304262001406L415.53000000000003,307.5694158817887L419.85843750000004,306.8943159308272L424.186875,306.18496406118203L428.5153125,305.4887002538717L432.84375000000006,304.7462454571466L437.1721875,304.00234468797373L441.500625,303.22325886185575L445.8290625,302.4752572354887L450.1575,301.7207792287675L454.48593750000003,301.0380160926071L458.814375,300.3796419613238L463.14281250000005,299.73636462405943L467.47125000000005,299.0681422022928L471.7996875,298.3559037732192L476.128125,297.6249919356227L480.4565625,296.84966000815047L484.785,296.0868370450451L489.11343750000003,295.41748213088295L493.441875,294.70597143901654L497.77031250000005,293.99408382075126L502.09875000000005,293.259102885045L506.4271875,292.55840468584285L510.755625,291.8960725005367L515.0840625000001,291.2332001278322L519.4125,290.55856337912815L523.7409375,289.8352107316803L528.069375,289.0531279429101L532.3978125,288.3689936966614L536.72625,287.7026270982334L541.0546875000001,287.0129686738065L545.3831250000001,286.2203101090862L549.7115625,285.41675820752437L554.04,284.62646583045756L558.3684375,283.8586685990532L562.696875,283.03907336281395L567.0253124999999,282.23456391158186L571.3537500000001,281.51940256126915L575.6821875,280.8266864354256L580.010625,280.08785640352846L584.3390625000001,279.3247681137841L588.6675,278.52951896243235L592.9959375,277.77579848774565L597.324375,276.99634926391457L601.6528125000001,276.2352639443631L605.98125,275.4884033815608L610.3096875,274.7117716931861L614.6381250000001,273.8595616780822L618.9665625,272.9548536787329L623.295,272.0576544271357L627.6234375,271.092236840397L631.951875,270.1331696042057L636.2803125,269.15945948500337L640.6087500000001,268.2081179212171L644.9371875,267.2777662432334L649.265625,266.34326230456145L653.5940625000001,265.37618436652355L657.9225,264.42894812287807L662.2509375,263.4811351380615L666.579375,262.41580765046007L670.9078125000001,261.3748936856348L675.23625,260.35480669140793L679.5646875,259.3161790919815L683.893125,258.27464735793654L688.2215625,257.2598929645627L692.55,256.32172124506434L696.8784375,255.39237795069482L701.2068750000001,254.47707195148007L705.5353125,253.52902128796617L709.8637500000001,252.59213417725107L714.1921875,251.72216480571842L718.520625,250.8536125147397L722.8490625,249.9016411466239L727.1775,249.02090586976018L731.5059375000001,248.16569198338155L735.834375,247.21483333771317L740.1628125000001,246.23048808604443L744.49125,245.20255462526154L748.8196875,244.1604988130369L753.148125,243.12970376526982L757.4765625,242.18017413070203L761.805,241.27237528690455L766.1334375000001,240.29896780259392L770.4618750000001,239.2678035698056L774.7903125,238.3151879097097L779.1187500000001,237.3997638161103L783.4471875,236.44306755217227L787.775625,235.52940381479462L792.1040624999999,234.53379221135788L796.4325000000001,233.6246148788305L800.7609375000001,232.68035785999606L805.089375,231.68581151533758L809.4178125000001,230.64727732799395L813.74625,229.57008466602827L818.0746875,228.5203974082715L822.403125,227.50773849572005L826.7315625,226.46799387885073L831.0600000000001,225.3714782110086L835.3884375000001,224.32126001261432L839.7168750000001,223.23969244780827L844.0453125,222.14157712519332L848.37375,221.06465124049467L852.7021875,220.0194153678662L857.030625,218.94807561270915L861.3590625,217.90344005426698L865.6875000000001,216.85818939359126L870.0159375000001,215.806842984633L874.344375,214.7202908074878L878.6728125000001,213.58480000983496L883.00125,212.5047412060878L887.3296875,211.45756605656837L891.658125,210.4021708890158L895.9865625000001,209.30168253030075L900.315,208.17899648625618L904.6434375,207.03542632499259L908.9718750000001,205.87892889517042L913.3003125,204.73728948611048L917.62875,203.6534246919024L921.9571875,202.51531113428757L926.2856250000001,201.437915092124L930.6140625,200.31094944202476L934.9425000000001,199.15615770461332L939.2709375000001,198.03129036915564L943.599375,196.90494373850734L947.9278125000001,195.81054267413606L952.25625,194.70448341529024" style="fill: none;" fill="none"></path></g><g><path stroke="rgb(204, 51, 17)" stroke-width="2px" d="M90.8971875,337.4775L95.225625,337.4775L99.55406250000001,337.4606432137575L103.88250000000001,337.438027949126L108.21093750000001,337.4121377289625L112.539375,337.38099647235805L116.86781250000001,337.3406351670462L121.19625,337.3004750628705L125.52468750000001,337.2587802786319L129.853125,337.19009777103975L134.1815625,337.08905523333493L138.51,336.9680648305665L142.83843750000003,336.82755691059504L147.166875,336.66922825976576L151.4953125,336.4826922946395L155.82375,336.26725394436653L160.15218750000003,336.01390983782494L164.480625,335.7170923546807L168.8090625,335.38621746010926L173.1375,335.03711479743777L177.46593750000002,334.6910131976956L181.794375,334.3467656730493L186.1228125,333.96365800427105L190.45125,333.59364309958767L194.77968750000002,333.19315509633634L199.10812500000003,332.7680888737843L203.4365625,332.34781101474954L207.76500000000001,331.810481728218L212.0934375,331.2735639511859L216.42187500000003,330.8083383237347L220.7503125,330.3217675027409L225.07875,329.84770148188153L229.4071875,329.3528009011683L233.73562500000003,328.8021412122861L238.0640625,328.27411663337625L242.3925,327.8001081810406L246.7209375,327.23094820290095L251.04937500000003,326.6686119307685L255.3778125,326.16479203135947L259.70625,325.60289626479766L264.0346875,324.9964790361636L268.363125,324.3282130221941L272.69156250000003,323.69167136003585L277.02,323.0747670714409L281.3484375,322.4985933169783L285.67687500000005,321.98477926307515L290.0053125,321.4452721137561L294.33375,320.91272093836164L298.6621875,320.2630317608055L302.990625,319.5779816599123L307.31906250000003,318.875329397469L311.6475,318.1303488970224L315.9759375,317.3448797172497L320.30437500000005,316.52577554497293L324.6328125,315.75157381233555L328.96125,315.07374668983425L333.2896875,314.35413420100645L337.618125,313.58293907042236L341.9465625,312.795530534591L346.275,311.98951340091156L350.60343750000004,311.3148525451642L354.93187500000005,310.6186312254565L359.2603125,309.91477897855754L363.58875,309.2376356877271L367.9171875,308.50273024070304L372.245625,307.8520850189952L376.5740625,307.283600626758L380.9025,306.6545312879632L385.23093750000004,306.02939361724924L389.55937500000005,305.38382964907726L393.8878125,304.6999043027788L398.21625000000006,304.0951032634201L402.5446875,303.52642142005703L406.873125,302.8743698590153L411.2015625,302.2235761927305L415.53000000000003,301.53641366330015L419.85843750000004,300.9396100575828L424.186875,300.30444112564373L428.5153125,299.5955178067735L432.84375000000006,298.7552155223928L437.1721875,297.8378759083611L441.500625,296.9585751872755L445.8290625,296.12710929092356L450.1575,295.2823906510817L454.48593750000003,294.49947731301955L458.814375,293.7919689567591L463.14281250000005,293.0225512842339L467.47125000000005,292.19195174494075L471.7996875,291.39491813011836L476.128125,290.5043618225433L480.4565625,289.67735871815427L484.785,288.8696925465375L489.11343750000003,288.0897121863067L493.441875,287.26686184332385L497.77031250000005,286.34746623101745L502.09875000000005,285.3883115969998L506.4271875,284.51884612854286L510.755625,283.724900753568L515.0840625000001,282.8676885664586L519.4125,281.9770292226379L523.7409375,281.12424483881284L528.069375,280.27776005522514L532.3978125,279.4737509741844L536.72625,278.62459685302014L541.0546875000001,277.71177920201944L545.3831250000001,276.84813632605005L549.7115625,275.91920638582496L554.04,275.01844375282565L558.3684375,274.2265566829991L562.696875,273.28775108677644L567.0253124999999,272.3422991727146L571.3537500000001,271.34129818791035L575.6821875,270.3916373283165L580.010625,269.4108910062279L584.3390625000001,268.53663278285507L588.6675,267.6797131925873L592.9959375,266.82209621621155L597.324375,265.82403005783493L601.6528125000001,264.8819008557998L605.98125,263.8886716297401L610.3096875,262.94239273880913L614.6381250000001,261.93659360532286L618.9665625,261.02825394169486L623.295,260.05736918990914L627.6234375,259.0577702785538L631.951875,258.06611480242475L636.2803125,257.02794131270093L640.6087500000001,256.05812817256185L644.9371875,255.0977688388158L649.265625,254.031818911227L653.5940625000001,252.92622590604952L657.9225,251.84467133584465L662.2509375,250.81514405688782L666.579375,249.80067667121358L670.9078125000001,248.76981385948122L675.23625,247.71451477901886L679.5646875,246.58979714821265L683.893125,245.55926943474364L688.2215625,244.5856165301063L692.55,243.57573163213578L696.8784375,242.49912788029204L701.2068750000001,241.41551515790078L705.5353125,240.39757263274058L709.8637500000001,239.35741495966644L714.1921875,238.3220798600335L718.520625,237.37831243336075L722.8490625,236.42693164625032L727.1775,235.43654818902894L731.5059375000001,234.39058957900892L735.834375,233.32165994940652L740.1628125000001,232.29709000868263L744.49125,231.23139871537458L748.8196875,230.18740205481683L753.148125,229.12825937193162L757.4765625,228.12832130122567L761.805,227.1821758854587L766.1334375000001,226.16788687309892L770.4618750000001,225.07426947444824L774.7903125,223.91868905468345L779.1187500000001,222.73332602484905L783.4471875,221.55667380938158L787.775625,220.35969608800718L792.1040624999999,219.21871687847647L796.4325000000001,218.03239074777693L800.7609375000001,216.88514612287392L805.089375,215.76495045005896L809.4178125000001,214.61292057858648L813.74625,213.44404283814504L818.0746875,212.35474751681178L822.403125,211.2604212129065L826.7315625,210.16869573078912L831.0600000000001,209.15573265735847L835.3884375000001,207.9957847649049L839.7168750000001,206.8905857694761L844.0453125,205.73640884130572L848.37375,204.56620207276825L852.7021875,203.36035533304354L857.030625,202.14101995115396L861.3590625,200.8890463497643L865.6875000000001,199.6511596905041L870.0159375000001,198.41342034842205L874.344375,197.16719969567322L878.6728125000001,195.9600203616217L883.00125,194.68842510384385L887.3296875,193.41410388927935L891.658125,192.1838153074639L895.9865625000001,190.87362667532017L900.315,189.6425674120232L904.6434375,188.45763172804234L908.9718750000001,187.19266153965822L913.3003125,185.8881512430484L917.62875,184.56773811944697L921.9571875,183.2160498959377L926.2856250000001,181.9564448855854L930.6140625,180.79670188417737L934.9425000000001,179.63876596630578L939.2709375000001,178.45051613314325L943.599375,177.12348698641568L947.9278125000001,175.8005646945913L952.25625,174.57162454595203" style="fill: none;" fill="none"></path></g><g><path stroke="rgb(0, 119, 187)" stroke-width="2px" d="M90.8971875,337.4625L95.225625,337.45786751080914L99.55406250000001,337.4489433979086L103.88250000000001,337.44160042404195L108.21093750000001,337.4330718638304L112.539375,337.4207297030068L116.86781250000001,337.3987306696307L121.19625,337.365153057118L125.52468750000001,337.32309992606395L129.853125,337.258520518668L134.1815625,337.18584643575946L138.51,337.09952579294946L142.83843750000003,336.9975892979893L147.166875,336.8888384188585L151.4953125,336.78013815002373L155.82375,336.63714408423044L160.15218750000003,336.4815011801709L164.480625,336.3037325868652L168.8090625,336.1194101617099L173.1375,335.93388473643097L177.46593750000002,335.73046606380314L181.794375,335.49310979059106L186.1228125,335.25189105829776L190.45125,334.9654176965535L194.77968750000002,334.668076711185L199.10812500000003,334.35257827375335L203.4365625,334.04870022976974L207.76500000000001,333.70915244306826L212.0934375,333.38610131829125L216.42187500000003,333.09326405107475L220.7503125,332.77198033559444L225.07875,332.40451324842456L229.4071875,332.0941836593162L233.73562500000003,331.784932159543L238.0640625,331.4506304896447L242.3925,331.0865352615535L246.7209375,330.67256531878223L251.04937500000003,330.27915792754993L255.3778125,329.8499012539275L259.70625,329.34987637385507L264.0346875,328.86033847400665L268.363125,328.3887220145695L272.69156250000003,327.90962517648995L277.02,327.40018048389936L281.3484375,326.9076692193255L285.67687500000005,326.47993224665055L290.0053125,326.08086056061205L294.33375,325.6366676869743L298.6621875,325.20740729821046L302.990625,324.6902351175724L307.31906250000003,324.19436928776554L311.6475,323.73169458912L315.9759375,323.27242020066114L320.30437500000005,322.80953560420664L324.6328125,322.3544175390023L328.96125,321.8726744566414L333.2896875,321.35159048866035L337.618125,320.8232995124803L341.9465625,320.29340489822505L346.275,319.79395013200116L350.60343750000004,319.3204813817086L354.93187500000005,318.81166297527756L359.2603125,318.28667813169676L363.58875,317.76597376352026L367.9171875,317.212200259619L372.245625,316.6522444607042L376.5740625,316.03988432117586L380.9025,315.43509089480784L385.23093750000004,314.86355626388604L389.55937500000005,314.3040363273455L393.8878125,313.71909223662686L398.21625000000006,313.209850594472L402.5446875,312.6960337679782L406.873125,312.2022449023785L411.2015625,311.7422845945723L415.53000000000003,311.28611916404026L419.85843750000004,310.8265877625409L424.186875,310.37640282501286L428.5153125,309.9491483486829L432.84375000000006,309.49894032783476L437.1721875,309.0216653129297L441.500625,308.47905832870345L445.8290625,307.9431596054675L450.1575,307.3799807957844L454.48593750000003,306.7999156125905L458.814375,306.22654276419354L463.14281250000005,305.6415962210358L467.47125000000005,305.0351980608212L471.7996875,304.4212363496483L476.128125,303.7654453004323L480.4565625,303.1151943909676L484.785,302.48266032800893L489.11343750000003,301.8896679930375L493.441875,301.23542698769023L497.77031250000005,300.49326680538024L502.09875000000005,299.8024121525304L506.4271875,299.0347306224163L510.755625,298.3395082552757L515.0840625000001,297.73342936001563L519.4125,297.1510977738497L523.7409375,296.54631827201297L528.069375,295.87049351037604L532.3978125,295.13640423292276L536.72625,294.4119692201792L541.0546875000001,293.7706626972909L545.3831250000001,293.1122327096231L549.7115625,292.4332020472567L554.04,291.7442770672519L558.3684375,291.1163787546289L562.696875,290.4605334491153L567.0253124999999,289.84596770500235L571.3537500000001,289.18265900939645L575.6821875,288.4948934268164L580.010625,287.76055653119937L584.3390625000001,286.9845332428124L588.6675,286.22842607730087L592.9959375,285.46750199184925L597.324375,284.6664487329547L601.6528125000001,283.80483676569895L605.98125,282.94574395796764L610.3096875,282.182508009982L614.6381250000001,281.38716745817885L618.9665625,280.5848129066127L623.295,279.7838316891932L627.6234375,278.93369431561064L631.951875,278.044556781363L636.2803125,277.1241343976637L640.6087500000001,276.26149919215385L644.9371875,275.31604799994324L649.265625,274.4250612119649L653.5940625000001,273.44348664020623L657.9225,272.50299323028764L662.2509375,271.5622115595481L666.579375,270.64125395536024L670.9078125000001,269.702563698368L675.23625,268.7271794292898L679.5646875,267.71622281673035L683.893125,266.6603869235561L688.2215625,265.63392075568123L692.55,264.56848444776665L696.8784375,263.56750812316756L701.2068750000001,262.6550100282407L705.5353125,261.764418707481L709.8637500000001,260.8130926799307L714.1921875,259.7670218688771L718.520625,258.70802403683496L722.8490625,257.6153068788008L727.1775,256.5731549579777L731.5059375000001,255.6594579189882L735.834375,254.7395494518537L740.1628125000001,253.78293486069745L744.49125,252.82360167877172L748.8196875,251.81400818915972L753.148125,250.80473606908984L757.4765625,249.79566287676658L761.805,248.76956782071852L766.1334375000001,247.79294373102476L770.4618750000001,246.74692966950434L774.7903125,245.68796696542321L779.1187500000001,244.64099155159695L783.4471875,243.54571502043854L787.775625,242.44340009765142L792.1040624999999,241.31243966044624L796.4325000000001,240.2551876498162L800.7609375000001,239.1792674052362L805.089375,238.07750402384121L809.4178125000001,236.9783174907577L813.74625,235.86643852677904L818.0746875,234.7724204480762L822.403125,233.72374825735915L826.7315625,232.61027642130534L831.0600000000001,231.48526860478802L835.3884375000001,230.43313001636378L839.7168750000001,229.41752498012917L844.0453125,228.38452921269996L848.37375,227.33791108266126L852.7021875,226.32143696016735L857.030625,225.3893444783436L861.3590625,224.4094717320947L865.6875000000001,223.38002050216662L870.0159375000001,222.36131394084111L874.344375,221.32639832938068L878.6728125000001,220.31859681588665L883.00125,219.33329392903383L887.3296875,218.26190519207194L891.658125,217.13722931389253L895.9865625000001,216.05814994529945L900.315,215.00443731614038L904.6434375,213.9507104486909L908.9718750000001,212.82553726773966L913.3003125,211.68757131873087L917.62875,210.5731191462944L921.9571875,209.48179450155624L926.2856250000001,208.3990707964633L930.6140625,207.33595857301077L934.9425000000001,206.28784335669366L939.2709375000001,205.15900003779336L943.599375,204.02304852339412L947.9278125000001,202.95699203598096L952.25625,201.8913380702722" style="fill: none;" fill="none"></path></g><g><path stroke="rgb(255, 112, 67)" stroke-width="2px" d="M90.8971875,337.4775L95.225625,337.4728675108091L99.55406250000001,337.4470866116661L103.88250000000001,337.42717598698346L108.21093750000001,337.40111895507056L112.539375,337.37442608539493L116.86781250000001,337.33221752524713L121.19625,337.2778125096758L125.52468750000001,337.2173555866859L129.853125,337.1213678840108L134.1815625,337.03084898086354L138.51,336.8977067072242L142.83843750000003,336.7368165586084L147.166875,336.5730483866589L151.4953125,336.42032482992704L155.82375,336.2458124966752L160.15218750000003,336.0520897269114L164.480625,335.826463378388L168.8090625,335.6182378879041L173.1375,335.4150603949949L177.46593750000002,335.184998921633L181.794375,334.9411529599908L186.1228125,334.6873445764995L190.45125,334.4159385751938L194.77968750000002,334.1479268168521L199.10812500000003,333.8734431465223L203.4365625,333.57209309201744L207.76500000000001,333.25411265650513L212.0934375,332.955841712958L216.42187500000003,332.6154783286032L220.7503125,332.28192096910516L225.07875,331.9554340094122L229.4071875,331.64618236051155L233.73562500000003,331.3247393545748L238.0640625,330.99860739378755L242.3925,330.6610004660572L246.7209375,330.32200553184055L251.04937500000003,329.97643642001384L255.3778125,329.60679539121065L259.70625,329.20225134527755L264.0346875,328.80181983157377L268.363125,328.37250147497895L272.69156250000003,327.9138721625059L277.02,327.4370993682656L281.3484375,327.00910325877544L285.67687500000005,326.6027274170757L290.0053125,326.16115702109835L294.33375,325.68922869601255L298.6621875,325.21422506280226L302.990625,324.7173153138555L307.31906250000003,324.24970817926544L311.6475,323.7830943629584L315.9759375,323.31852416066704L320.30437500000005,322.8609339554503L324.6328125,322.35051436842195L328.96125,321.8502558940521L333.2896875,321.38629089841766L337.618125,320.95050656612017L341.9465625,320.48073106442814L346.275,319.9842000288809L350.60343750000004,319.5082548178772L354.93187500000005,319.0364797322659L359.2603125,318.56157095427255L363.58875,318.07043492069465L367.9171875,317.64640671591L372.245625,317.2124832571483L376.5740625,316.7938658861748L380.9025,316.37043548354217L385.23093750000004,316.02403581431264L389.55937500000005,315.6138756690595L393.8878125,315.2113965391478L398.21625000000006,314.8308169577325L402.5446875,314.43950444683645L406.873125,314.01011575259173L411.2015625,313.5985916508543L415.53000000000003,313.1838382318788L419.85843750000004,312.82566461553296L424.186875,312.5053713970149L428.5153125,312.2056686447522L432.84375000000006,311.8844213911016L437.1721875,311.58269934109194L441.500625,311.2301983921359L445.8290625,310.8776978047321L450.1575,310.5166249411292L454.48593750000003,310.121670838559L458.814375,309.697171749068L463.14281250000005,309.31010556267313L467.47125000000005,308.88620284329465L471.7996875,308.4723595599994L476.128125,308.0333105676396L480.4565625,307.6558117413689L484.785,307.2621199679074L489.11343750000003,306.86411976013466L493.441875,306.43487763152336L497.77031250000005,306.02201550391294L502.09875000000005,305.6364375969221L506.4271875,305.2863223724948L510.755625,304.8952935485743L515.0840625000001,304.4432204565675L519.4125,303.9705059626153L523.7409375,303.49787319085885L528.069375,302.9395660051416L532.3978125,302.40823635718266L536.72625,301.8736033050961L541.0546875000001,301.3783591958545L545.3831250000001,300.8332018422339L549.7115625,300.2814369403428L554.04,299.7855894660722L558.3684375,299.31435362949867L562.696875,298.8469223966597L567.0253124999999,298.37327371353234L571.3537500000001,297.89863392867653L575.6821875,297.3548006518508L580.010625,296.8652916034956L584.3390625000001,296.3851205025638L588.6675,295.947877091087L592.9959375,295.55435091938284L597.324375,295.082158219098L601.6528125000001,294.58698843762164L605.98125,294.0575933428878L610.3096875,293.59559527924756L614.6381250000001,293.15531347785424L618.9665625,292.6856115427918L623.295,292.2119860449881L627.6234375,291.67163811184764L631.951875,291.1185639912337L636.2803125,290.5976173605737L640.6087500000001,289.9936876461951L644.9371875,289.4484051529948L649.265625,288.92513778970374L653.5940625000001,288.3754927918266L657.9225,287.8095200381407L662.2509375,287.27344540360906L666.579375,286.744447704834L670.9078125000001,286.20125687929226L675.23625,285.6864280082819L679.5646875,285.09342893712653L683.893125,284.48633251208133L688.2215625,283.8562223249783L692.55,283.26901661916156L696.8784375,282.749802537261L701.2068750000001,282.17837777056457L705.5353125,281.6003520899795L709.8637500000001,280.9725204436973L714.1921875,280.3210026546486L718.520625,279.7319756432275L722.8490625,279.1544841731578L727.1775,278.5384132031847L731.5059375000001,277.91703527277133L735.834375,277.3552373338455L740.1628125000001,276.82174690965036L744.49125,276.23434133707354L748.8196875,275.6249922876485L753.148125,275.04492272605444L757.4765625,274.4686896674277L761.805,273.8891164041378L766.1334375000001,273.37605555416127L770.4618750000001,272.7927233880258L774.7903125,272.207327027188L779.1187500000001,271.62351042982937L783.4471875,271.0006667060644L787.775625,270.38795519105383L792.1040624999999,269.77437176326237L796.4325000000001,269.2202561214594L800.7609375000001,268.6186547891834L805.089375,267.9676573145045L809.4178125000001,267.3232311276783L813.74625,266.66001256803287L818.0746875,265.9965915296124L822.403125,265.34161765683007L826.7315625,264.6775850795778L831.0600000000001,264.0108026642587L835.3884375000001,263.38946684917613L839.7168750000001,262.71053747964004L844.0453125,262.0288189498972L848.37375,261.36823392998633L852.7021875,260.75359180266156L857.030625,260.0988083258475L861.3590625,259.4306073536996L865.6875000000001,258.73981345194005L870.0159375000001,258.0207470267509L874.344375,257.2984674095588L878.6728125000001,256.6142038265169L883.00125,255.90775216861397L887.3296875,255.22185609237204L891.658125,254.5286814211783L895.9865625000001,253.82957254970935L900.315,253.11250290827007L904.6434375,252.36859930021916L908.9718750000001,251.61380046683567L913.3003125,250.8765462389713L917.62875,250.1815846219232L921.9571875,249.50851588097044L926.2856250000001,248.76898883032072L930.6140625,248.1054815859685L934.9425000000001,247.42330810171453L939.2709375000001,246.7495827149613L943.599375,246.08965920056104L947.9278125000001,245.3582690451473L952.25625,244.6255035389462" style="fill: none;" fill="none"></path></g></g></g></g><g opacity="0.2"><g><g><g><path stroke="rgb(187, 187, 187)" stroke-width="2px" d="M90.8971875,337.4925L95.225625,337.4775L99.55406250000001,337.4775L103.88250000000001,337.47L108.21093750000001,337.455L112.539375,337.4175L116.86781250000001,337.3725L121.19625,337.3275L125.52468750000001,337.24125L129.853125,337.08L134.1815625,336.8475L138.51,336.5625L142.83843750000003,336.21L147.166875,335.955L151.4953125,335.7375L155.82375,335.5125L160.15218750000003,335.22375L164.480625,334.83L168.8090625,334.29L173.1375,333.46500000000003L177.46593750000002,332.4225L181.794375,331.485L186.1228125,330.24375L190.45125,329.145L194.77968750000002,327.8475L199.10812500000003,326.2575L203.4365625,324.9L207.76500000000001,323.43L212.0934375,321.75L216.42187500000003,320.07L220.7503125,318.1725L225.07875,316.0725L229.4071875,314.4L233.73562500000003,312.45L238.0640625,310.6275L242.3925,308.64750000000004L246.7209375,306.44625L251.04937500000003,304.155L255.3778125,302.15250000000003L259.70625,299.895L264.0346875,297.61125L268.363125,295.275L272.69156250000003,292.86L277.02,290.565L281.3484375,288.09749999999997L285.67687500000005,285.47249999999997L290.0053125,283.12125000000003L294.33375,280.455L298.6621875,277.8L302.990625,275.175L307.31906250000003,272.6325L311.6475,269.7075L315.9759375,266.98875L320.30437500000005,264.2775L324.6328125,261.48L328.96125,258.72749999999996L333.2896875,255.81375L337.618125,252.8625L341.9465625,249.8775L346.275,246.795L350.60343750000004,243.61124999999998L354.93187500000005,240.5175L359.2603125,237.36374999999998L363.58875,234.0225L367.9171875,231.2025L372.245625,228.225L376.5740625,224.79749999999999L380.9025,221.52L385.23093750000004,218.54250000000002L389.55937500000005,215.3925L393.8878125,212.505L398.21625000000006,209.325L402.5446875,206.01000000000002L406.873125,202.76999999999998L411.2015625,199.51125L415.53000000000003,196.38L419.85843750000004,193.1475L424.186875,189.9525L428.5153125,186.855L432.84375000000006,183.56250000000003L437.1721875,180.4725L441.500625,177.465L445.8290625,174.41625000000002L450.1575,171.1875L454.48593750000003,167.565L458.814375,164.1525L463.14281250000005,160.64625L467.47125000000005,157.35L471.7996875,153.87L476.128125,150.68249999999998L480.4565625,147.3L484.785,144.0675L489.11343750000003,140.36249999999998L493.441875,136.785L497.77031250000005,133.50375000000003L502.09875000000005,130.0725L506.4271875,126.52124999999998L510.755625,122.99999999999997L515.0840625000001,119.66999999999999L519.4125,116.1825L523.7409375,112.83749999999998L528.069375,109.33500000000004L532.3978125,105.63375000000002L536.72625,102.32999999999998L541.0546875000001,99.21750000000003L545.3831250000001,96.32249999999999L549.7115625,92.82L554.04,89.58749999999998L558.3684375,85.98000000000002L562.696875,82.35000000000002L567.0253124999999,78.62625000000003L571.3537500000001,75.20999999999998L575.6821875,71.53875L580.010625,68.16000000000003L584.3390625000001,64.77749999999997L588.6675,61.20750000000004L592.9959375,57.870000000000005L597.324375,54.764999999999986L601.6528125000001,51.22500000000002L605.98125,47.76750000000004L610.3096875,44.15625L614.6381250000001,40.48499999999996L618.9665625,36.99000000000001L623.295,33.5625L627.6234375,30.198750000000018L631.951875,26.45999999999998L636.2803125,23.212499999999977L640.6087500000001,19.814999999999998L644.9371875,16.19999999999999L649.265625,12.795000000000016L653.5940625000001,8.951249999999959L657.9225,5.340000000000032L662.2509375,2.006249999999966L666.579375,-1.3275000000000432" style="fill: none;" fill="none"></path></g><g><path stroke="rgb(0, 153, 136)" stroke-width="2px" d="M90.8971875,337.47L95.225625,337.455L99.55406250000001,337.40625L103.88250000000001,337.3725L108.21093750000001,337.335L112.539375,337.275L116.86781250000001,337.21125L121.19625,337.155L125.52468750000001,337.05375L129.853125,336.945L134.1815625,336.74625L138.51,336.5475L142.83843750000003,336.3375L147.166875,336.0825L151.4953125,335.8425L155.82375,335.475L160.15218750000003,335.2125L164.480625,334.8825L168.8090625,334.4775L173.1375,334.08L177.46593750000002,333.6975L181.794375,333.1875L186.1228125,332.6925L190.45125,332.295L194.77968750000002,331.93125L199.10812500000003,331.62L203.4365625,331.1775L207.76500000000001,330.645L212.0934375,330.23625L216.42187500000003,329.7075L220.7503125,329.15250000000003L225.07875,328.59749999999997L229.4071875,328.26L233.73562500000003,327.9375L238.0640625,327.53625L242.3925,327.105L246.7209375,326.61L251.04937500000003,325.8525L255.3778125,325.40250000000003L259.70625,325.02750000000003L264.0346875,324.39L268.363125,323.745L272.69156250000003,323.325L277.02,322.96500000000003L281.3484375,322.67625L285.67687500000005,322.5075L290.0053125,322.21500000000003L294.33375,321.765L298.6621875,321.30375L302.990625,320.745L307.31906250000003,320.39625L311.6475,319.965L315.9759375,319.485L320.30437500000005,318.8625L324.6328125,318.38625L328.96125,317.94L333.2896875,317.48625L337.618125,316.98L341.9465625,316.42875L346.275,315.615L350.60343750000004,315.1275L354.93187500000005,314.6625L359.2603125,314.17125L363.58875,313.59000000000003L367.9171875,313.10625L372.245625,312.705L376.5740625,312.2325L380.9025,311.76L385.23093750000004,311.20125L389.55937500000005,310.47L393.8878125,309.885L398.21625000000006,309.225L402.5446875,308.7075L406.873125,308.1225L411.2015625,307.53375L415.53000000000003,306.795L419.85843750000004,306.21000000000004L424.186875,305.3925L428.5153125,305.00625L432.84375000000006,304.52250000000004L437.1721875,303.94124999999997L441.500625,303.0825L445.8290625,302.53499999999997L450.1575,301.74L454.48593750000003,300.99L458.814375,300L463.14281250000005,299.3925L467.47125000000005,298.62L471.7996875,297.96375L476.128125,296.72249999999997L480.4565625,295.95375L484.785,295.1325L489.11343750000003,294.38625L493.441875,293.58L497.77031250000005,293.0475L502.09875000000005,292.005L506.4271875,291.27375L510.755625,290.5125L515.0840625000001,289.9575L519.4125,289.125L523.7409375,288.05625L528.069375,287.1675L532.3978125,286.71L536.72625,286.03499999999997L541.0546875000001,285.24L545.3831250000001,284.3925L549.7115625,283.57875L554.04,282.4875L558.3684375,281.38125L562.696875,280.38L567.0253124999999,279.50625L571.3537500000001,278.4525L575.6821875,277.68L580.010625,276.5775L584.3390625000001,275.595L588.6675,274.5975L592.9959375,273.96375L597.324375,273.1575L601.6528125000001,272.47125L605.98125,271.395L610.3096875,270.7275L614.6381250000001,269.8275L618.9665625,269.11875L623.295,268.45500000000004L627.6234375,267.50625L631.951875,266.115L636.2803125,264.735L640.6087500000001,263.88L644.9371875,263.0625L649.265625,262.1325L653.5940625000001,261.25125L657.9225,260.28L662.2509375,259.4775L666.579375,258.495L670.9078125000001,257.85375L675.23625,256.995L679.5646875,255.8025L683.893125,254.655L688.2215625,253.7475L692.55,252.64499999999998L696.8784375,252.11625L701.2068750000001,251.2875L705.5353125,250.1925L709.8637500000001,249.1575L714.1921875,248.05875L718.520625,246.57L722.8490625,245.49L727.1775,244.0575L731.5059375000001,242.91375L735.834375,241.77L740.1628125000001,240.85125L744.49125,240L748.8196875,239.235L753.148125,237.96L757.4765625,237.11249999999998L761.805,235.88250000000002L766.1334375000001,234.67125000000001L770.4618750000001,233.91L774.7903125,233.1825L779.1187500000001,232.035L783.4471875,230.9175L787.775625,229.38750000000002L792.1040624999999,228.405L796.4325000000001,227.085L800.7609375000001,225.84L805.089375,224.82750000000001L809.4178125000001,223.66500000000002L813.74625,222.16500000000002L818.0746875,221.025L822.403125,219.795L826.7315625,218.77125L831.0600000000001,217.455L835.3884375000001,216.21L839.7168750000001,214.8225L844.0453125,213.58875L848.37375,212.4075L852.7021875,211.27875L857.030625,209.94L861.3590625,208.755L865.6875000000001,207.735L870.0159375000001,206.41125L874.344375,205.0725L878.6728125000001,203.2275L883.00125,201.78750000000002L887.3296875,200.24625L891.658125,198.7125L895.9865625000001,197.0025L900.315,195.52499999999998L904.6434375,194.23499999999999L908.9718750000001,192.85500000000002L913.3003125,191.09625L917.62875,189.4425L921.9571875,187.80374999999998L926.2856250000001,186.39749999999998L930.6140625,184.8225L934.9425000000001,183.31500000000003L939.2709375000001,181.58249999999998L943.599375,179.895L947.9278125000001,178.42874999999998L952.25625,176.88" style="fill: none;" fill="none"></path></g><g><path stroke="rgb(238, 51, 119)" stroke-width="2px" d="M90.8971875,337.44L95.225625,337.4175L99.55406250000001,337.395L103.88250000000001,337.35L108.21093750000001,337.30875L112.539375,337.2675L116.86781250000001,337.23375L121.19625,337.14L125.52468750000001,336.9825L129.853125,336.75L134.1815625,336.46875L138.51,336.1575L142.83843750000003,335.91375L147.166875,335.5875L151.4953125,335.3025L155.82375,334.97249999999997L160.15218750000003,334.695L164.480625,334.5L168.8090625,334.21875L173.1375,333.9L177.46593750000002,333.45L181.794375,333.09000000000003L186.1228125,332.77875L190.45125,332.3175L194.77968750000002,331.99125L199.10812500000003,331.5675L203.4365625,331.1625L207.76500000000001,330.39L212.0934375,329.83875L216.42187500000003,329.475L220.7503125,329.19L225.07875,328.695L229.4071875,328.2675L233.73562500000003,327.7725L238.0640625,327.29625L242.3925,326.67L246.7209375,326.175L251.04937500000003,325.4925L255.3778125,324.94125L259.70625,324.0825L264.0346875,323.25L268.363125,322.5825L272.69156250000003,322.08L277.02,321.3975L281.3484375,320.76375L285.67687500000005,320.04L290.0053125,319.22625L294.33375,318.5925L298.6621875,317.8725L302.990625,317.0925L307.31906250000003,316.3725L311.6475,315.5775L315.9759375,314.76L320.30437500000005,313.935L324.6328125,313.23375L328.96125,312.4875L333.2896875,311.87625L337.618125,311.115L341.9465625,310.33125L346.275,309.57L350.60343750000004,308.65125L354.93187500000005,307.7475L359.2603125,306.99375L363.58875,306.21000000000004L367.9171875,305.28L372.245625,304.7475L376.5740625,303.9075L380.9025,303.015L385.23093750000004,301.95375L389.55937500000005,301.1175L393.8878125,300.3225L398.21625000000006,299.4375L402.5446875,298.62L406.873125,297.6675L411.2015625,296.7675L415.53000000000003,295.62L419.85843750000004,294.67875000000004L424.186875,293.7375L428.5153125,293.04375L432.84375000000006,292.4025L437.1721875,291.72L441.500625,290.865L445.8290625,290.15625L450.1575,289.3125L454.48593750000003,288.23625L458.814375,287.2125L463.14281250000005,286.37625L467.47125000000005,285.6075L471.7996875,284.61375L476.128125,283.6275L480.4565625,282.70125L484.785,281.71500000000003L489.11343750000003,280.92375000000004L493.441875,279.7575L497.77031250000005,278.70375L502.09875000000005,277.8975L506.4271875,276.95625L510.755625,275.9175L515.0840625000001,275.0175L519.4125,273.9L523.7409375,272.9625L528.069375,272.1L532.3978125,271.21500000000003L536.72625,270.1875L541.0546875000001,269.2125L545.3831250000001,268.275L549.7115625,267.31875L554.04,266.3625L558.3684375,265.26L562.696875,264.1875L567.0253124999999,263.14125L571.3537500000001,262.065L575.6821875,260.99625000000003L580.010625,260.1675L584.3390625000001,259.0425L588.6675,258.075L592.9959375,256.8825L597.324375,255.72000000000003L601.6528125000001,254.81625L605.98125,253.875L610.3096875,252.80625L614.6381250000001,251.76L618.9665625,250.6275L623.295,249.63L627.6234375,248.5575L631.951875,247.515L636.2803125,246.21375L640.6087500000001,244.98749999999998L644.9371875,243.96L649.265625,242.79L653.5940625000001,241.64999999999998L657.9225,240.615L662.2509375,239.5725L666.579375,238.4025L670.9078125000001,237.22125L675.23625,236.0775L679.5646875,234.91125L683.893125,233.595L688.2215625,232.40625L692.55,231.0375L696.8784375,229.9125L701.2068750000001,228.51L705.5353125,227.39624999999998L709.8637500000001,226.215L714.1921875,224.95874999999998L718.520625,223.56L722.8490625,222.45L727.1775,221.1375L731.5059375000001,219.95625L735.834375,218.9475L740.1628125000001,217.74L744.49125,216.42000000000002L748.8196875,215.0325L753.148125,214.005L757.4765625,212.72625L761.805,211.45499999999998L766.1334375000001,210.22125L770.4618750000001,209.085L774.7903125,207.87375L779.1187500000001,206.3625L783.4471875,205.07999999999998L787.775625,203.67L792.1040624999999,202.38750000000002L796.4325000000001,200.9475L800.7609375000001,199.73624999999998L805.089375,198.315L809.4178125000001,197.11875L813.74625,195.885L818.0746875,194.5125L822.403125,193.00500000000002L826.7315625,191.715L831.0600000000001,190.4325L835.3884375000001,189.12L839.7168750000001,187.73999999999998L844.0453125,186.28875000000002L848.37375,185.07L852.7021875,183.91125000000002L857.030625,182.69249999999997L861.3590625,181.35375L865.6875000000001,180.45L870.0159375000001,179.08875L874.344375,177.7575L878.6728125000001,176.4675L883.00125,175.36499999999998L887.3296875,173.92499999999998L891.658125,172.65750000000003L895.9865625000001,171.18L900.315,169.79999999999998L904.6434375,168.54749999999999L908.9718750000001,167.355L913.3003125,165.97125000000003L917.62875,164.73L921.9571875,163.30875L926.2856250000001,161.9925L930.6140625,160.66875L934.9425000000001,159.48L939.2709375000001,158.00625L943.599375,156.80249999999998L947.9278125000001,155.37375L952.25625,154.0125" style="fill: none;" fill="none"></path></g><g><path stroke="rgb(51, 187, 238)" stroke-width="2px" d="M90.8971875,337.4625L95.225625,337.4475L99.55406250000001,337.395L103.88250000000001,337.3875L108.21093750000001,337.31625L112.539375,337.2525L116.86781250000001,337.20375L121.19625,337.095L125.52468750000001,337.00875L129.853125,336.9L134.1815625,336.7125L138.51,336.4725L142.83843750000003,336.2925L147.166875,336.0225L151.4953125,335.75625L155.82375,335.3925L160.15218750000003,335.09625L164.480625,334.77L168.8090625,334.47L173.1375,334.155L177.46593750000002,333.65999999999997L181.794375,333.24L186.1228125,332.85375L190.45125,332.49L194.77968750000002,332.17125L199.10812500000003,331.74L203.4365625,331.33125L207.76500000000001,331.005L212.0934375,330.6675L216.42187500000003,330.195L220.7503125,329.89125L225.07875,329.6175L229.4071875,329.26875L233.73562500000003,329.0025L238.0640625,328.7025L242.3925,328.2675L246.7209375,327.96L251.04937500000003,327.5325L255.3778125,327.21L259.70625,326.7225L264.0346875,326.19375L268.363125,325.7175L272.69156250000003,325.26375L277.02,324.8625L281.3484375,324.48L285.67687500000005,323.7675L290.0053125,323.35125L294.33375,322.6725L298.6621875,322.22249999999997L302.990625,321.8925L307.31906250000003,321.52875L311.6475,321.0375L315.9759375,320.56875L320.30437500000005,319.995L324.6328125,319.47375L328.96125,318.8775L333.2896875,318.23625L337.618125,317.7L341.9465625,316.9725L346.275,316.3875L350.60343750000004,315.7725L354.93187500000005,315.1125L359.2603125,314.64L363.58875,314.3175L367.9171875,313.85625L372.245625,313.2L376.5740625,312.66375L380.9025,312L385.23093750000004,311.4525L389.55937500000005,310.6725L393.8878125,310.00875L398.21625000000006,309.375L402.5446875,308.54625L406.873125,307.7925L411.2015625,307.09875L415.53000000000003,306.4425L419.85843750000004,305.7975L424.186875,305.0325L428.5153125,304.3575L432.84375000000006,303.53999999999996L437.1721875,302.79375L441.500625,301.9575L445.8290625,301.26L450.1575,300.495L454.48593750000003,299.92875L458.814375,299.31L463.14281250000005,298.69124999999997L467.47125000000005,297.9825L471.7996875,297.19875L476.128125,296.4375L480.4565625,295.59000000000003L484.785,294.84749999999997L489.11343750000003,294.33L493.441875,293.55L497.77031250000005,292.8375L502.09875000000005,292.065L506.4271875,291.42L510.755625,290.82L515.0840625000001,290.15625L519.4125,289.4625L523.7409375,288.65999999999997L528.069375,287.7825L532.3978125,287.2575L536.72625,286.62L541.0546875000001,285.8925L545.3831250000001,284.9325L549.7115625,284.11125L554.04,283.3425L558.3684375,282.61125L562.696875,281.7075L567.0253124999999,280.9275L571.3537500000001,280.3575L575.6821875,279.70124999999996L580.010625,278.88750000000005L584.3390625000001,278.085L588.6675,277.2375L592.9959375,276.55125L597.324375,275.73L601.6528125000001,274.99875L605.98125,274.275L610.3096875,273.45L614.6381250000001,272.475L618.9665625,271.485L623.295,270.6L627.6234375,269.52375L631.951875,268.575L636.2803125,267.5775L640.6087500000001,266.6625L644.9371875,265.76625L649.265625,264.825L653.5940625000001,263.805L657.9225,262.89L662.2509375,261.94125L666.579375,260.685L670.9078125000001,259.68375000000003L675.23625,258.6975L679.5646875,257.62874999999997L683.893125,256.5825L688.2215625,255.61124999999998L692.55,254.7975L696.8784375,253.8825L701.2068750000001,252.99L705.5353125,251.98875L709.8637500000001,251.07L714.1921875,250.30875L718.520625,249.4425L722.8490625,248.355L727.1775,247.59L731.5059375000001,246.77625L735.834375,245.67L740.1628125000001,244.63125L744.49125,243.5325L748.8196875,242.4675L753.148125,241.455L757.4765625,240.6375L761.805,239.79749999999999L766.1334375000001,238.7175L770.4618750000001,237.5925L774.7903125,236.7675L779.1187500000001,235.9125L783.4471875,234.88875L787.775625,234.04500000000002L792.1040624999999,232.91625L796.4325000000001,232.1475L800.7609375000001,231.14625L805.089375,230.07L809.4178125000001,228.96L813.74625,227.82L818.0746875,226.815L822.403125,225.8625L826.7315625,224.77875L831.0600000000001,223.59L835.3884375000001,222.615L839.7168750000001,221.4825L844.0453125,220.3575L848.37375,219.315L852.7021875,218.32125L857.030625,217.2075L861.3590625,216.20625L865.6875000000001,215.16L870.0159375000001,214.09875L874.344375,212.955L878.6728125000001,211.73999999999998L883.00125,210.75L887.3296875,209.75625L891.658125,208.6875L895.9865625000001,207.51375L900.315,206.355L904.6434375,205.1775L908.9718750000001,204L913.3003125,202.8825L917.62875,201.8925L921.9571875,200.66625L926.2856250000001,199.6875L930.6140625,198.48L934.9425000000001,197.28L939.2709375000001,196.20375L943.599375,195.075L947.9278125000001,194.0325L952.25625,192.9075" style="fill: none;" fill="none"></path></g><g><path stroke="rgb(204, 51, 17)" stroke-width="2px" d="M90.8971875,337.4775L95.225625,337.4775L99.55406250000001,337.44375L103.88250000000001,337.41L108.21093750000001,337.37625L112.539375,337.335L116.86781250000001,337.27875L121.19625,337.2375L125.52468750000001,337.1925L129.853125,337.08L134.1815625,336.92625L138.51,336.7725L142.83843750000003,336.6L147.166875,336.4125L151.4953125,336.18L155.82375,335.9175L160.15218750000003,335.6025L164.480625,335.235L168.8090625,334.84875L173.1375,334.47L177.46593750000002,334.12874999999997L181.794375,333.7875L186.1228125,333.34125L190.45125,332.9925L194.77968750000002,332.5425L199.10812500000003,332.0775L203.4365625,331.665L207.76500000000001,330.9375L212.0934375,330.40125L216.42187500000003,330.0525L220.7503125,329.53125L225.07875,329.0775L229.4071875,328.54875L233.73562500000003,327.9075L238.0640625,327.41625L242.3925,327.03L246.7209375,326.30625L251.04937500000003,325.755L255.3778125,325.34625L259.70625,324.69L264.0346875,324.01125L268.363125,323.2425L272.69156250000003,322.6575L277.02,322.0725L281.3484375,321.5625L285.67687500000005,321.15L290.0053125,320.56875L294.33375,320.0475L298.6621875,319.2075L302.990625,318.465L307.31906250000003,317.73375L311.6475,316.92L315.9759375,316.06875L320.30437500000005,315.195L324.6328125,314.49375L328.96125,313.9725L333.2896875,313.185L337.618125,312.33L341.9465625,311.51625L346.275,310.68L350.60343750000004,310.21875L354.93187500000005,309.4875L359.2603125,308.77125L363.58875,308.1375L367.9171875,307.30875000000003L372.245625,306.795L376.5740625,306.36L380.9025,305.6325L385.23093750000004,305.01375L389.55937500000005,304.33500000000004L393.8878125,303.58875L398.21625000000006,303.1125L402.5446875,302.60249999999996L406.873125,301.815L411.2015625,301.16625L415.53000000000003,300.42L419.85843750000004,299.97L424.186875,299.2725L428.5153125,298.44375L432.84375000000006,297.39L437.1721875,296.34749999999997L441.500625,295.53L445.8290625,294.77625L450.1575,293.91L454.48593750000003,293.22749999999996L458.814375,292.6425L463.14281250000005,291.7725L467.47125000000005,290.8425L471.7996875,290.1L476.128125,289.0575L480.4565625,288.33375L484.785,287.5575L489.11343750000003,286.8225L493.441875,285.93L497.77031250000005,284.85375L502.09875000000005,283.83L506.4271875,283.10625L510.755625,282.435L515.0840625000001,281.475L519.4125,280.53000000000003L523.7409375,279.73875L528.069375,278.90250000000003L532.3978125,278.1675L536.72625,277.245L541.0546875000001,276.22875L545.3831250000001,275.445L549.7115625,274.41L554.04,273.555L558.3684375,272.94L562.696875,271.7625L567.0253124999999,270.80625L571.3537500000001,269.71500000000003L575.6821875,268.84875L580.010625,267.8175L584.3390625000001,267.11625L588.6675,266.2875L592.9959375,265.42875L597.324375,264.2025L601.6528125000001,263.35125L605.98125,262.275L610.3096875,261.405L614.6381250000001,260.3025L618.9665625,259.5525L623.295,258.48L627.6234375,257.43375L631.951875,256.455L636.2803125,255.34125L640.6087500000001,254.48250000000002L644.9371875,253.5375L649.265625,252.3L653.5940625000001,251.13L657.9225,250.08749999999998L662.2509375,249.1425L666.579375,248.1525L670.9078125000001,247.095L675.23625,246L679.5646875,244.7625L683.893125,243.885L688.2215625,243.00375L692.55,241.935L696.8784375,240.75L701.2068750000001,239.655L705.5353125,238.74375L709.8637500000001,237.6675L714.1921875,236.64L718.520625,235.845L722.8490625,234.88125L727.1775,233.8275L731.5059375000001,232.69125L735.834375,231.585L740.1628125000001,230.6325L744.49125,229.5L748.8196875,228.49125L753.148125,227.4075L757.4765625,226.50375L761.805,225.64499999999998L766.1334375000001,224.51999999999998L770.4618750000001,223.29749999999999L774.7903125,222.04125000000002L779.1187500000001,220.8075L783.4471875,219.645L787.775625,218.415L792.1040624999999,217.365L796.4325000000001,216.10500000000002L800.7609375000001,215.02125L805.089375,213.94500000000002L809.4178125000001,212.74124999999998L813.74625,211.54500000000002L818.0746875,210.585L822.403125,209.48250000000002L826.7315625,208.395L831.0600000000001,207.51000000000002L835.3884375000001,206.11125L839.7168750000001,205.095L844.0453125,203.86125L848.37375,202.665L852.7021875,201.40125L857.030625,200.16L861.3590625,198.855L865.6875000000001,197.64000000000001L870.0159375000001,196.4025L874.344375,195.1425L878.6728125000001,193.99875L883.00125,192.6225L887.3296875,191.34375L891.658125,190.185L895.9865625000001,188.745L900.315,187.64249999999998L904.6434375,186.5325L908.9718750000001,185.13750000000002L913.3003125,183.76874999999998L917.62875,182.4225L921.9571875,181.02L926.2856250000001,179.91L930.6140625,178.9125L934.9425000000001,177.7575L939.2709375000001,176.52L943.599375,174.9675L947.9278125000001,173.65125L952.25625,172.57500000000002" style="fill: none;" fill="none"></path></g><g><path stroke="rgb(0, 119, 187)" stroke-width="2px" d="M90.8971875,337.4625L95.225625,337.455L99.55406250000001,337.44L103.88250000000001,337.4325L108.21093750000001,337.42125L112.539375,337.4025L116.86781250000001,337.365L121.19625,337.3125L125.52468750000001,337.25625L129.853125,337.155L134.1815625,337.06875L138.51,336.96L142.83843750000003,336.8325L147.166875,336.7125L151.4953125,336.60375L155.82375,336.405L160.15218750000003,336.22875L164.480625,336.015L168.8090625,335.82L173.1375,335.6325L177.46593750000002,335.4L181.794375,335.1075L186.1228125,334.86L190.45125,334.5L194.77968750000002,334.185L199.10812500000003,333.84000000000003L203.4365625,333.555L207.76500000000001,333.1575L212.0934375,332.86125L216.42187500000003,332.6175L220.7503125,332.25L225.07875,331.8075L229.4071875,331.59L233.73562500000003,331.2825L238.0640625,330.9075L242.3925,330.495L246.7209375,330L251.04937500000003,329.64L255.3778125,329.15250000000003L259.70625,328.5375L264.0346875,328.065L268.363125,327.6225L272.69156250000003,327.13125L277.02,326.5725L281.3484375,326.1075L285.67687500000005,325.785L290.0053125,325.4325L294.33375,324.91499999999996L298.6621875,324.51L302.990625,323.85L307.31906250000003,323.38875L311.6475,322.98L315.9759375,322.52625L320.30437500000005,322.0575L324.6328125,321.615L328.96125,321.09000000000003L333.2896875,320.505L337.618125,319.965L341.9465625,319.4325L346.275,318.9825L350.60343750000004,318.55125L354.93187500000005,317.985L359.2603125,317.43375L363.58875,316.92L367.9171875,316.3125L372.245625,315.7425L376.5740625,315.045L380.9025,314.4525L385.23093750000004,313.935L389.55937500000005,313.395L393.8878125,312.76875L398.21625000000006,312.3825L402.5446875,311.86125L406.873125,311.4L411.2015625,310.995L415.53000000000003,310.545L419.85843750000004,310.08L424.186875,309.645L428.5153125,309.255L432.84375000000006,308.7675L437.1721875,308.24625000000003L441.500625,307.59749999999997L445.8290625,307.0725L450.1575,306.46500000000003L454.48593750000003,305.8575L458.814375,305.295L463.14281250000005,304.69125L467.47125000000005,304.05L471.7996875,303.42375L476.128125,302.7L480.4565625,302.05875000000003L484.785,301.455L489.11343750000003,300.92625L493.441875,300.1725L497.77031250000005,299.2875L502.09875000000005,298.68L506.4271875,297.7875L510.755625,297.21L515.0840625000001,296.74875L519.4125,296.205L523.7409375,295.56375L528.069375,294.77250000000004L532.3978125,293.94375L536.72625,293.235L541.0546875000001,292.72875L545.3831250000001,292.0425L549.7115625,291.33L554.04,290.625L558.3684375,290.09625L562.696875,289.395L567.0253124999999,288.84749999999997L571.3537500000001,288.105L575.6821875,287.3775L580.010625,286.5675L584.3390625000001,285.72375L588.6675,285L592.9959375,284.23125L597.324375,283.365L601.6528125000001,282.405L605.98125,281.55L610.3096875,280.9425L614.6381250000001,280.09499999999997L618.9665625,279.28125L623.295,278.4825L627.6234375,277.5525L631.951875,276.6L636.2803125,275.62874999999997L640.6087500000001,274.86L644.9371875,273.78L649.265625,272.97749999999996L653.5940625000001,271.84875L657.9225,270.975L662.2509375,270.03375L666.579375,269.145L670.9078125000001,268.1775L675.23625,267.1425L679.5646875,266.07375L683.893125,264.945L688.2215625,263.96625L692.55,262.8375L696.8784375,261.94125L701.2068750000001,261.1725L705.5353125,260.3175L709.8637500000001,259.2675L714.1921875,258.0675L718.520625,256.9875L722.8490625,255.84L727.1775,254.88L731.5059375000001,254.175L735.834375,253.245L740.1628125000001,252.22875L744.49125,251.26500000000001L748.8196875,250.17374999999998L753.148125,249.165L757.4765625,248.15625L761.805,247.10250000000002L766.1334375000001,246.20625L770.4618750000001,245.04749999999999L774.7903125,243.9675L779.1187500000001,242.94L783.4471875,241.76625L787.775625,240.6525L792.1040624999999,239.475L796.4325000000001,238.5375L800.7609375000001,237.43125L805.089375,236.2875L809.4178125000001,235.1925L813.74625,234.06L818.0746875,232.995L822.403125,232.02L826.7315625,230.80125L831.0600000000001,229.6575L835.3884375000001,228.72375000000002L839.7168750000001,227.76749999999998L844.0453125,226.70624999999998L848.37375,225.63750000000002L852.7021875,224.67L857.030625,223.875L861.3590625,222.8175L865.6875000000001,221.7075L870.0159375000001,220.70625L874.344375,219.645L878.6728125000001,218.68125L883.00125,217.73250000000002L887.3296875,216.52125L891.658125,215.31L895.9865625000001,214.305L900.315,213.2925L904.6434375,212.23874999999998L908.9718750000001,210.9975L913.3003125,209.83875L917.62875,208.7625L921.9571875,207.70875L926.2856250000001,206.64L930.6140625,205.60875L934.9425000000001,204.585L939.2709375000001,203.32500000000002L943.599375,202.1775L947.9278125000001,201.225L952.25625,200.16" style="fill: none;" fill="none"></path></g><g><path stroke="rgb(255, 112, 67)" stroke-width="2px" d="M90.8971875,337.4775L95.225625,337.47L99.55406250000001,337.42125L103.88250000000001,337.4025L108.21093750000001,337.365L112.539375,337.335L116.86781250000001,337.2675L121.19625,337.1925L125.52468750000001,337.12125L129.853125,336.9675L134.1815625,336.885L138.51,336.6825L142.83843750000003,336.47625L147.166875,336.3075L151.4953125,336.1725L155.82375,335.9625L160.15218750000003,335.7375L164.480625,335.46L168.8090625,335.28L173.1375,335.085L177.46593750000002,334.81125L181.794375,334.545L186.1228125,334.275L190.45125,333.975L194.77968750000002,333.7125L199.10812500000003,333.4275L203.4365625,333.0825L207.76500000000001,332.7375L212.0934375,332.47125L216.42187500000003,332.0625L220.7503125,331.74L225.07875,331.425L229.4071875,331.14375L233.73562500000003,330.8025L238.0640625,330.46875L242.3925,330.1125L246.7209375,329.77125L251.04937500000003,329.415L255.3778125,329.00625L259.70625,328.545L264.0346875,328.15125L268.363125,327.675L272.69156250000003,327.16875L277.02,326.6625L281.3484375,326.31375L285.67687500000005,325.9425L290.0053125,325.44375L294.33375,324.9225L298.6621875,324.4425L302.990625,323.90999999999997L307.31906250000003,323.49L311.6475,323.025L315.9759375,322.56375L320.30437500000005,322.1175L324.6328125,321.52125L328.96125,321.0375L333.2896875,320.6325L337.618125,320.2425L341.9465625,319.7175L346.275,319.1775L350.60343750000004,318.735L354.93187500000005,318.27L359.2603125,317.79L363.58875,317.2725L367.9171875,316.9575L372.245625,316.5075L376.5740625,316.11375L380.9025,315.6825L385.23093750000004,315.46125L389.55937500000005,314.9475L393.8878125,314.5575L398.21625000000006,314.2125L402.5446875,313.80375L406.873125,313.3125L411.2015625,312.93L415.53000000000003,312.51L419.85843750000004,312.24375L424.186875,311.985L428.5153125,311.71875L432.84375000000006,311.3625L437.1721875,311.0925L441.500625,310.6575L445.8290625,310.305L450.1575,309.93L454.48593750000003,309.48L458.814375,309.0075L463.14281250000005,308.68125L467.47125000000005,308.1975L471.7996875,307.8L476.128125,307.32L480.4565625,307.0425L484.785,306.6225L489.11343750000003,306.2175L493.441875,305.7375L497.77031250000005,305.35125L502.09875000000005,305.01L506.4271875,304.7175L510.755625,304.26L515.0840625000001,303.70875L519.4125,303.2025L523.7409375,302.73L528.069375,302.0325L532.3978125,301.545L536.72625,301.005L541.0546875000001,300.57375L545.3831250000001,299.9475L549.7115625,299.385L554.04,298.98L558.3684375,298.54875L562.696875,298.0875L567.0253124999999,297.60375L571.3537500000001,297.1275L575.6821875,296.47125L580.010625,296.07L584.3390625000001,295.605L588.6675,295.2375L592.9959375,294.915L597.324375,294.315L601.6528125000001,293.7825L605.98125,293.1975L610.3096875,292.845L614.6381250000001,292.44L618.9665625,291.9225L623.295,291.4425L627.6234375,290.79375L631.951875,290.22L636.2803125,289.75125L640.6087500000001,289.0125L644.9371875,288.5625L649.265625,288.075L653.5940625000001,287.4825L657.9225,286.89L662.2509375,286.40250000000003L666.579375,285.885L670.9078125000001,285.31875L675.23625,284.85L679.5646875,284.13L683.893125,283.5L688.2215625,282.8325L692.55,282.315L696.8784375,281.90625L701.2068750000001,281.25L705.5353125,280.66125L709.8637500000001,279.9525L714.1921875,279.2625L718.520625,278.775L722.8490625,278.21625L727.1775,277.5375L731.5059375000001,276.9075L735.834375,276.4425L740.1628125000001,275.955L744.49125,275.28L748.8196875,274.635L753.148125,274.10249999999996L757.4765625,273.5325L761.805,272.9475L766.1334375000001,272.5425L770.4618750000001,271.845L774.7903125,271.25625L779.1187500000001,270.675L783.4471875,269.98875L787.775625,269.39250000000004L792.1040624999999,268.7775L796.4325000000001,268.32L800.7609375000001,267.64125L805.089375,266.90999999999997L809.4178125000001,266.27625L813.74625,265.5825L818.0746875,264.91875L822.403125,264.2775L826.7315625,263.59875L831.0600000000001,262.9275L835.3884375000001,262.38L839.7168750000001,261.6075L844.0453125,260.92125L848.37375,260.295L852.7021875,259.755L857.030625,259.03499999999997L861.3590625,258.34499999999997L865.6875000000001,257.6175L870.0159375000001,256.85249999999996L874.344375,256.125L878.6728125000001,255.5025L883.00125,254.76L887.3296875,254.10750000000002L891.658125,253.4025L895.9865625000001,252.69375000000002L900.315,251.9475L904.6434375,251.16000000000003L908.9718750000001,250.3875L913.3003125,249.67875L917.62875,249.0525L921.9571875,248.415L926.2856250000001,247.5675L930.6140625,247.0275L934.9425000000001,246.315L939.2709375000001,245.655L943.599375,245.0175L947.9278125000001,244.17L952.25625,243.435" style="fill: none;" fill="none"></path></g></g></g></g></g></g><g transform="translate(73, 375)" clip-path="url(#clip_1)"><clipPath id="clip_1"><rect width="1038" height="25"></rect></clipPath><g><g><line x1="0" y1="0" x2="0" y2="5" style="visibility: inherit;" fill="rgb(0, 0, 0)" stroke="rgb(204, 204, 204)" stroke-width="1px"></line><line x1="86.56875" y1="0" x2="86.56875" y2="5" style="visibility: inherit;" fill="rgb(0, 0, 0)" stroke="rgb(204, 204, 204)" stroke-width="1px"></line><line x1="173.1375" y1="0" x2="173.1375" y2="5" style="visibility: inherit;" fill="rgb(0, 0, 0)" stroke="rgb(204, 204, 204)" stroke-width="1px"></line><line x1="259.70625" y1="0" x2="259.70625" y2="5" style="visibility: inherit;" fill="rgb(0, 0, 0)" stroke="rgb(204, 204, 204)" stroke-width="1px"></line><line x1="346.275" y1="0" x2="346.275" y2="5" style="visibility: inherit;" fill="rgb(0, 0, 0)" stroke="rgb(204, 204, 204)" stroke-width="1px"></line><line x1="432.84375000000006" y1="0" x2="432.84375000000006" y2="5" style="visibility: inherit;" fill="rgb(0, 0, 0)" stroke="rgb(204, 204, 204)" stroke-width="1px"></line><line x1="519.4125" y1="0" x2="519.4125" y2="5" style="visibility: inherit;" fill="rgb(0, 0, 0)" stroke="rgb(204, 204, 204)" stroke-width="1px"></line><line x1="605.98125" y1="0" x2="605.98125" y2="5" style="visibility: inherit;" fill="rgb(0, 0, 0)" stroke="rgb(204, 204, 204)" stroke-width="1px"></line><line x1="692.55" y1="0" x2="692.55" y2="5" style="visibility: inherit;" fill="rgb(0, 0, 0)" stroke="rgb(204, 204, 204)" stroke-width="1px"></line><line x1="779.1187500000001" y1="0" x2="779.1187500000001" y2="5" style="visibility: inherit;" fill="rgb(0, 0, 0)" stroke="rgb(204, 204, 204)" stroke-width="1px"></line><line x1="865.6875000000001" y1="0" x2="865.6875000000001" y2="5" style="visibility: inherit;" fill="rgb(0, 0, 0)" stroke="rgb(204, 204, 204)" stroke-width="1px"></line><line x1="952.25625" y1="0" x2="952.25625" y2="5" style="visibility: inherit;" fill="rgb(0, 0, 0)" stroke="rgb(204, 204, 204)" stroke-width="1px"></line><line x1="1038.825" y1="0" x2="1038.825" y2="5" style="visibility: inherit;" fill="rgb(0, 0, 0)" stroke="rgb(204, 204, 204)" stroke-width="1px"></line></g><g transform="translate(0, 8)"><text x="0" y="0" dx="0em" dy="0.95em" style="text-anchor: middle; visibility: hidden; font-family: &quot;Helvetica Neue&quot;, sans-serif; font-size: 12px; font-weight: 200;" fill="rgb(33, 33, 33)" stroke="none" stroke-width="1px">-200k</text><text x="86.56875" y="0" dx="0em" dy="0.95em" style="text-anchor: middle; visibility: inherit; font-family: &quot;Helvetica Neue&quot;, sans-serif; font-size: 12px; font-weight: 200;" fill="rgb(33, 33, 33)" stroke="none" stroke-width="1px">0</text><text x="173.1375" y="0" dx="0em" dy="0.95em" style="text-anchor: middle; visibility: inherit; font-family: &quot;Helvetica Neue&quot;, sans-serif; font-size: 12px; font-weight: 200;" fill="rgb(33, 33, 33)" stroke="none" stroke-width="1px">200k</text><text x="259.70625" y="0" dx="0em" dy="0.95em" style="text-anchor: middle; visibility: inherit; font-family: &quot;Helvetica Neue&quot;, sans-serif; font-size: 12px; font-weight: 200;" fill="rgb(33, 33, 33)" stroke="none" stroke-width="1px">400k</text><text x="346.275" y="0" dx="0em" dy="0.95em" style="text-anchor: middle; visibility: inherit; font-family: &quot;Helvetica Neue&quot;, sans-serif; font-size: 12px; font-weight: 200;" fill="rgb(33, 33, 33)" stroke="none" stroke-width="1px">600k</text><text x="432.84375000000006" y="0" dx="0em" dy="0.95em" style="text-anchor: middle; visibility: inherit; font-family: &quot;Helvetica Neue&quot;, sans-serif; font-size: 12px; font-weight: 200;" fill="rgb(33, 33, 33)" stroke="none" stroke-width="1px">800k</text><text x="519.4125" y="0" dx="0em" dy="0.95em" style="text-anchor: middle; visibility: inherit; font-family: &quot;Helvetica Neue&quot;, sans-serif; font-size: 12px; font-weight: 200;" fill="rgb(33, 33, 33)" stroke="none" stroke-width="1px">1M</text><text x="605.98125" y="0" dx="0em" dy="0.95em" style="text-anchor: middle; visibility: inherit; font-family: &quot;Helvetica Neue&quot;, sans-serif; font-size: 12px; font-weight: 200;" fill="rgb(33, 33, 33)" stroke="none" stroke-width="1px">1.2M</text><text x="692.55" y="0" dx="0em" dy="0.95em" style="text-anchor: middle; visibility: inherit; font-family: &quot;Helvetica Neue&quot;, sans-serif; font-size: 12px; font-weight: 200;" fill="rgb(33, 33, 33)" stroke="none" stroke-width="1px">1.4M</text><text x="779.1187500000001" y="0" dx="0em" dy="0.95em" style="text-anchor: middle; visibility: inherit; font-family: &quot;Helvetica Neue&quot;, sans-serif; font-size: 12px; font-weight: 200;" fill="rgb(33, 33, 33)" stroke="none" stroke-width="1px">1.6M</text><text x="865.6875000000001" y="0" dx="0em" dy="0.95em" style="text-anchor: middle; visibility: inherit; font-family: &quot;Helvetica Neue&quot;, sans-serif; font-size: 12px; font-weight: 200;" fill="rgb(33, 33, 33)" stroke="none" stroke-width="1px">1.8M</text><text x="952.25625" y="0" dx="0em" dy="0.95em" style="text-anchor: middle; visibility: inherit; font-family: &quot;Helvetica Neue&quot;, sans-serif; font-size: 12px; font-weight: 200;" fill="rgb(33, 33, 33)" stroke="none" stroke-width="1px">2M</text><text x="1038.825" y="0" dx="0em" dy="0.95em" style="text-anchor: middle; visibility: hidden; font-family: &quot;Helvetica Neue&quot;, sans-serif; font-size: 12px; font-weight: 200;" fill="rgb(33, 33, 33)" stroke="none" stroke-width="1px">2.2M</text></g><line x1="0" y1="0" x2="1038.825" y2="0" fill="rgb(0, 0, 0)" stroke="rgb(204, 204, 204)" stroke-width="1px"></line></g></g></g></g></svg>